<?xml version="1.0" standalone="no"?>
<!DOCTYPE svg PUBLIC "-//W3C//DTD SVG 1.1//EN" "http://www.w3.org/Graphics/SVG/1.1/DTD/svg11.dtd" >
<svg>
<metadata>
Created by FontForge 20090914 at Mon May 21 19:16:27 2018
 By www-data
Copyright (c) 2010-2012 by Claus Eggers S&#195;&#184;rensen (es@forthehearts.net), with Reserved Font Name 'Playfair'.
</metadata>
<defs>
<font id="PlayfairDisplay-Regular" horiz-adv-x="1022" >
  <font-face 
    font-family="Playfair Display"
    font-weight="400"
    font-stretch="normal"
    units-per-em="2048"
    panose-1="0 0 5 0 0 0 0 0 0 0"
    ascent="1638"
    descent="-410"
    x-height="1055"
    cap-height="1450"
    bbox="-307 -399 2011 1931"
    underline-thickness="41"
    underline-position="-165"
    unicode-range="U+000D-U+E000"
  />
<missing-glyph horiz-adv-x="748" 
d="M68 0v1365h544v-1365h-544zM136 68h408v1229h-408v-1229z" />
    <glyph glyph-name=".notdef" horiz-adv-x="748" 
d="M68 0v1365h544v-1365h-544zM136 68h408v1229h-408v-1229z" />
    <glyph glyph-name="glyph1" horiz-adv-x="2048" 
 />
    <glyph glyph-name="glyph1" horiz-adv-x="2048" 
 />
    <glyph glyph-name="uni000D" unicode="&#xd;" horiz-adv-x="0" 
 />
    <glyph glyph-name="space" unicode=" " horiz-adv-x="510" 
 />
    <glyph glyph-name="exclam" unicode="!" horiz-adv-x="537" 
d="M137 102c0 36 12.833 66.833 38.5 92.5s56.5 38.5 92.5 38.5s66.833 -12.833 92.5 -38.5s38.5 -56.5 38.5 -92.5c0 -35.333 -12.833 -66 -38.5 -92s-56.5 -39 -92.5 -39s-66.833 13 -92.5 39s-38.5 56.667 -38.5 92zM174 1487c0 39.333 8.66699 68.333 26 87s40 28 68 28
c27.333 0 49.833 -9.5 67.5 -28.5s26.5 -47.833 26.5 -86.5c0 -53.333 -12.5 -207 -37.5 -461s-37.5 -462.333 -37.5 -625h-37c0 162.667 -12.667 371 -38 625s-38 407.667 -38 461z" />
    <glyph glyph-name="quotedbl" unicode="&#x22;" horiz-adv-x="610" 
d="M121 1399c0 28.667 6.99902 51.5 20.999 68.5s31.667 26.167 53 27.5c21.333 0 38.833 -8.5 52.5 -25.5s20.5 -39.833 20.5 -68.5c0 -40 -2.33301 -78.667 -7 -116s-12.667 -87.666 -24 -150.999s-20.666 -122 -27.999 -176h-29c-7.33301 50 -16.5 106.667 -27.5 170
s-19 114.166 -24 152.499s-7.5 77.833 -7.5 118.5zM343.999 1399c0 28.667 6.99902 51.5 20.999 68.5s31.667 26.167 53 27.5c21.333 0 38.833 -8.5 52.5 -25.5s20.5 -39.833 20.5 -68.5c0 -40 -2.33301 -78.667 -7 -116s-12.667 -87.666 -24 -150.999
s-20.666 -122 -27.999 -176h-29c-7.33301 50 -16.5 106.667 -27.5 170s-19 114.166 -24 152.499s-7.5 77.833 -7.5 118.5z" />
    <glyph glyph-name="numbersign" unicode="#" horiz-adv-x="1305" 
d="M98 506l8 41h302l66 342h-300l6 41h302l59 303h41l-59 -303h342l59 303h41l-59 -303h300l-6 -41h-302l-66 -342h301l-9 -41h-300l-58 -299h-41l58 299h-342l-58 -299h-41l58 299h-302zM449 547h342l66 342h-342z" />
    <glyph glyph-name="dollar" unicode="$" horiz-adv-x="1071" 
d="M111 -14c5.33301 74.667 7.99902 238.33 7.99902 490.997h47c8 -116.667 33.167 -215.167 75.5 -295.5s106.5 -132.5 192.5 -156.5v665c-49.333 30.667 -90.333 58.667 -123 84s-64.834 55.333 -96.501 90s-55.167 73 -70.5 115s-23 88.333 -23 139
c0 101.333 29.167 181.833 87.5 241.5s133.5 95.834 225.5 108.501v252h41v-248l31 1c38.667 0 72 -3 100 -9v256h41v-266c32 -10.667 68.333 -29.667 109 -57c29.333 -19.333 52.333 -29 69 -29c12.667 0 22.334 7.16699 29.001 21.5s12 37.166 16 68.499h48
c-7.33301 -75.333 -11 -214.666 -11 -417.999h-47c-6 84.667 -26.5 160.834 -61.5 228.501s-85.5 115.167 -151.5 142.5v-608c45.333 -28.667 82.833 -53.5 112.5 -74.5s60.334 -45.833 92.001 -74.5s56.334 -56.667 74.001 -84s32.334 -59 44.001 -95
s17.5 -74.333 17.5 -115c0 -108 -31.333 -194.667 -94 -260s-144.667 -106 -246 -122v-248h-41v243c-22.667 -1.33301 -40.334 -2 -53.001 -2c-20 0 -46 1.33301 -78 4v-245h-41v251c-54 11.333 -108 33.333 -162 66c-29.333 19.333 -52.333 29 -69 29
c-12.667 0 -22.334 -7.16699 -29.001 -21.5s-12 -37.166 -16 -68.499h-47zM273.999 1196c0 -56 13.5 -104 40.5 -144s66.833 -78.333 119.5 -115v483c-48.667 -16 -87.5 -43.833 -116.5 -83.5s-43.5 -86.5 -43.5 -140.5zM474.999 16.9961c22 -3.33301 43.333 -5 64 -5
c24 0 46.333 2.33301 67 7v563c-32.667 23.333 -73 49 -121 77l-10 6v-648zM474.999 908.996l64.5 -40l66.5 -41v596c-24 6.66699 -51.333 10 -82 10c-18.667 0 -35 -1.33301 -49 -4v-521zM646.999 30.9961c48 18 86.333 48.333 115 91s43 97 43 163
c0 54 -13.333 102.167 -40 144.5s-66 83.5 -118 123.5v-522z" />
    <glyph glyph-name="percent" unicode="%" horiz-adv-x="1520" 
d="M72 1214c0 102 28.667 185.001 86 249.001s130.333 96 219 96c92 0 165.833 -29.667 221.5 -89s83.5 -141 83.5 -245c0 -102.667 -28.667 -185.667 -86 -249s-130.333 -95 -219 -95c-92 0 -165.833 29.667 -221.5 89s-83.5 140.666 -83.5 243.999zM153 -85.999l1198 1774
l39 -27l-1198 -1774zM215 1217c0 -97.333 14.667 -171.5 44 -222.5s70 -76.5 122 -76.5c104 0 156 101 156 303c0 98.667 -14.333 173.5 -43 224.5s-69 76.5 -121 76.5c-105.333 0 -158 -101.667 -158 -305zM834 305.001c0 102 28.667 184.833 86 248.5
s130.333 95.5 219 95.5c92 0 165.833 -29.667 221.5 -89s83.5 -141 83.5 -245c0 -102 -28.667 -184.833 -86 -248.5s-130.333 -95.5 -219 -95.5c-92.667 0 -166.667 29.667 -222 89s-83 141 -83 245zM977 307.001c0 -97.333 14.5 -171.5 43.5 -222.5
s69.833 -76.5 122.5 -76.5c103.333 0 155 101 155 303c0 98.667 -14.167 173.5 -42.5 224.5s-68.5 76.5 -120.5 76.5c-105.333 0 -158 -101.667 -158 -305z" />
    <glyph glyph-name="ampersand" unicode="&#x26;" horiz-adv-x="1714" 
d="M111 481c0 56 9.99609 108.168 29.9961 156.501s44.167 87.666 72.5 117.999s61 57.666 98 81.999s69.5 42.166 97.5 53.499s54.667 20.333 80 27c-66.667 28.667 -117.667 66.667 -153 114s-53 97.333 -53 150c0 70.667 30.5 131 91.5 181s145.833 75 254.5 75
c91.333 0 162.333 -20.667 213 -62s76 -88.333 76 -141c0 -32.667 -11.667 -59 -35 -79s-50 -30 -80 -30c-29.333 0 -54.5 9.33301 -75.5 28s-31.5 43.667 -31.5 75c0 29.333 10.167 54.666 30.5 75.999s46.5 33.333 78.5 36c-6 18 -23.333 33.5 -52 46.5
s-63.334 19.5 -104.001 19.5c-71.333 0 -128.666 -21.333 -171.999 -64s-65 -102.667 -65 -180c0 -91.333 34.667 -169 104 -233c46.667 8 89 12 127 12c25.333 0 45.333 -4 60 -12s22 -19.667 22 -35c0 -12 -5.16699 -21.5 -15.5 -28.5s-24.166 -10.5 -41.499 -10.5
c-29.333 0 -79.333 15 -150 45c-177.333 -52.667 -266 -164.667 -266 -336c0 -91.333 24.5 -170.833 73.5 -238.5s114.667 -118.5 197 -152.5s175.166 -51 278.499 -51c97.333 0 186.5 14.667 267.5 44s146.333 73 196 131s74.5 124.667 74.5 200
c0 22.667 -2.5 45.5 -7.5 68.5s-14 49.167 -27 78.5s-34.167 57.333 -63.5 84s-65.333 48.667 -108 66c-115.333 -36 -194 -62 -236 -78c-57.333 -22 -101.666 -47 -132.999 -75s-47 -62.333 -47 -103c0 -49.333 20.167 -89 60.5 -119s82.833 -45 127.5 -45
c23.333 0 48.833 4 76.5 12s43.167 19 46.5 33c-26 4.66699 -48.5 15.334 -67.5 32.001s-28.5 40.667 -28.5 72c0 32 10.667 57.833 32 77.5s48 29.5 80 29.5c32.667 0 59 -10.167 79 -30.5s30 -47.166 30 -80.499c0 -36.667 -13 -68.834 -39 -96.501
s-57.167 -47.834 -93.5 -60.501s-73.5 -19 -111.5 -19c-30 0 -59.5 4.66699 -88.5 14s-56.167 23.166 -81.5 41.499s-45.666 43.5 -60.999 75.5s-23 68.333 -23 109c0 69.333 23.5 128.333 70.5 177s117.833 89.334 212.5 122.001
c1.33301 0.666992 69.833 20.834 205.5 60.501s233.834 73.167 294.501 100.5c64.667 30.667 110.167 61.834 136.5 93.501s39.5 66.167 39.5 103.5c0 58 -23.5 107 -70.5 147s-102.833 60 -167.5 60c-34.667 0 -55 -6 -61 -18c18 -9.33301 32 -22.833 42 -40.5
s15 -35.834 15 -54.501c0 -28 -11.333 -51.667 -34 -71s-49.667 -29 -81 -29c-29.333 0 -54.666 8.83301 -75.999 26.5s-32 42.834 -32 75.501c0 33.333 12.333 61.166 37 83.499s53.167 37.666 85.5 45.999s66.5 12.5 102.5 12.5c86.667 0 158.167 -25 214.5 -75
s84.5 -117.333 84.5 -202c0 -65.333 -17.667 -122.166 -53 -170.499s-82.333 -87.166 -141 -116.499c-50 -24 -151.333 -59.667 -304 -107c76.667 -32 133.167 -78.333 169.5 -139s54.5 -130 54.5 -208c0 -62.667 -14.333 -123.167 -43 -181.5
s-68.834 -110.5 -120.501 -156.5s-117.667 -82.833 -198 -110.5s-168.166 -41.5 -263.499 -41.5c-88.667 0 -173 12 -253 36s-150.333 57.5 -211 100.5s-109 96.833 -145 161.5s-54 135.334 -54 212.001z" />
    <glyph glyph-name="quotesingle" unicode="'" horiz-adv-x="387" 
d="M121 1399c0 28.667 6.99902 51.5 20.999 68.5s31.667 26.167 53 27.5c21.333 0 38.833 -8.5 52.5 -25.5s20.5 -39.833 20.5 -68.5c0 -40 -2.33301 -78.667 -7 -116s-12.667 -87.666 -24 -150.999s-20.666 -122 -27.999 -176h-29c-7.33301 50 -16.5 106.667 -27.5 170
s-19 114.166 -24 152.499s-7.5 77.833 -7.5 118.5z" />
    <glyph glyph-name="parenleft" unicode="(" horiz-adv-x="602" 
d="M90 639c0 401.333 150.333 738.668 451 1012l28 -27c-111.333 -130 -190.333 -273.5 -237 -430.5s-70 -341.833 -70 -554.5s23.333 -397.5 70 -554.5s125.667 -300.5 237 -430.5l-28 -27c-300.667 273.333 -451 610.666 -451 1012z" />
    <glyph glyph-name="parenright" unicode=")" horiz-adv-x="602" 
d="M33 -346c111.333 130 190.333 273.498 237 430.498s70 341.833 70 554.5s-23.333 397.5 -70 554.5s-125.667 300.5 -237 430.5l28 27c300.667 -273.333 451 -610.666 451 -1012s-150.333 -738.666 -451 -1012z" />
    <glyph glyph-name="asterisk" unicode="*" horiz-adv-x="1008" 
d="M120 877c0 31.333 22.666 60.667 67.999 88c20 11.333 43.167 21.333 69.5 30s63.833 19.334 112.5 32.001s89.334 23.667 122.001 33c-30 8.66699 -69.833 19.5 -119.5 32.5s-88.167 24 -115.5 33s-51 18.833 -71 29.5c-43.333 26 -65 55.333 -65 88
c0 12 3.33301 23.667 10 35c10.667 21.333 29.334 32 56.001 32c22 0 47 -8 75 -24c20 -11.333 40.167 -26 60.5 -44s49.333 -46.167 87 -84.5l88.5 -88.5l-31.5 119c-13.667 50.667 -23.5 90 -29.5 118s-9 53.333 -9 76c0 38 7.33301 66 22 84s32.667 27 54 27
c20.667 0 38.167 -9 52.5 -27s21.5 -46 21.5 -84c0 -17.333 -2.16699 -37.833 -6.5 -61.5s-9 -45.334 -14 -65.001s-12.833 -48.5 -23.5 -86.5s-19.334 -70.667 -26.001 -98l88.5 87c35.667 36 64.167 63.833 85.5 83.5s41.666 35.167 60.999 46.5
c28 15.333 52.333 23 73 23c29.333 0 50.333 -11.667 63 -35c6 -10.667 9 -21 9 -31c0 -32.667 -23 -62 -69 -88c-19.333 -11.333 -42.166 -21.333 -68.499 -30s-64.166 -19.334 -113.499 -32.001s-90 -23.667 -122 -33c30 -8.66699 69.667 -19.5 119 -32.5
s87.833 -24 115.5 -33s51.5 -18.833 71.5 -29.5c44 -26 66 -55.333 66 -88c0 -12 -3.33301 -23.667 -10 -35c-12 -21.333 -31 -32 -57 -32c-22 0 -47 8 -75 24c-15.333 8.66699 -32.166 20.667 -50.499 36s-34.666 30.166 -48.999 44.499l-63.5 63.5l-72 71
c7.33301 -29.333 18 -69.333 32 -120s24 -89.834 30 -117.501s9.33301 -52.5 10 -74.5c-0.666992 -38 -8.66699 -65.833 -24 -83.5s-34 -26.5 -56 -26.5c-20 0 -37 8.66699 -51 26s-21 45.333 -21 84c0 23.333 2.66699 47.833 8 73.5s15.166 64.834 29.499 117.501l32.5 121
l-88.5 -87.5c-35.667 -36.333 -64.334 -64.166 -86.001 -83.499s-42.167 -34.666 -61.5 -45.999c-26.667 -15.333 -51 -23 -73 -23c-28.667 0 -49.334 11.667 -62.001 35c-6 10.667 -9 21 -9 31z" />
    <glyph glyph-name="plus" unicode="+" horiz-adv-x="1202" 
d="M88 696v62h477v483h74v-483h475v-62h-475v-481h-74v481h-477z" />
    <glyph glyph-name="comma" unicode="," horiz-adv-x="535" 
d="M127 102c0 37.333 12.665 68.5 37.998 93.5s56.333 37.5 93 37.5c52.667 0 93 -21.667 121 -65c23.333 -36 35 -81 35 -135c0 -68.667 -17.5 -130.167 -52.5 -184.5s-87.833 -98.166 -158.5 -131.499l-19 37c42.667 18 79.334 46.167 110.001 84.5s46 77.166 46 116.499
c0 16.667 -2 31 -6 43c-23.333 -18 -48.666 -27 -75.999 -27c-37.333 0 -68.5 11.833 -93.5 35.5s-37.5 55.5 -37.5 95.5z" />
    <glyph glyph-name="hyphen" unicode="-" 
d="M141 492v118h740v-118h-740z" />
    <glyph glyph-name="period" unicode="." horiz-adv-x="516" 
d="M127 102c0 36 12.833 66.833 38.5 92.5s56.5 38.5 92.5 38.5s66.833 -12.833 92.5 -38.5s38.5 -56.5 38.5 -92.5c0 -35.333 -12.833 -66 -38.5 -92s-56.5 -39 -92.5 -39s-66.833 13 -92.5 39s-38.5 56.667 -38.5 92z" />
    <glyph glyph-name="slash" unicode="/" horiz-adv-x="762" 
d="M70 -29l557 1508h67l-557 -1508h-67z" />
    <glyph glyph-name="zero" unicode="0" horiz-adv-x="1229" 
d="M106 512c0 108 21.1689 205.167 63.502 291.5s103.166 154.5 182.499 204.5s170.333 75 273 75c145.333 0 264.166 -49.333 356.499 -148s138.5 -228.667 138.5 -390c0 -166 -48.167 -303.167 -144.5 -411.5s-220.833 -162.5 -373.5 -162.5
c-144.667 0 -263.5 49.5 -356.5 148.5s-139.5 229.833 -139.5 392.5zM305.002 518c0 -89.333 8.33301 -167.501 25 -234.501s39.834 -120.167 69.501 -159.5s63 -68.5 100 -87.5s77.5 -28.5 121.5 -28.5c89.333 0 161.833 47.5 217.5 142.5s83.5 224.5 83.5 388.5
c0 88.667 -8.33301 166.334 -25 233.001s-39.834 119.667 -69.501 159s-63 68.5 -100 87.5s-77.5 28.5 -121.5 28.5c-90 0 -162.667 -47.167 -218 -141.5s-83 -223.5 -83 -387.5z" />
    <glyph glyph-name="one" unicode="1" horiz-adv-x="758" 
d="M96 928l-0.00195312 45c100 2 182.5 10.833 247.5 26.5s123.167 41.5 174.5 77.5v-866c0 -64 14.667 -108 44 -132s80.333 -36 153 -36v-43c-149.333 5.33301 -243.666 8 -282.999 8c-42 0 -147 -2.66699 -315 -8v43c72.667 0 127 12.167 163 36.5s54 68.166 54 131.499
v496c0 50 -3.33301 89.167 -10 117.5s-20.167 50.333 -40.5 66s-44.166 25.834 -71.499 30.501s-66 7 -116 7z" />
    <glyph glyph-name="two" unicode="2" horiz-adv-x="981" 
d="M96 827c36 74.667 87.0029 136.002 153.003 184.002s149.667 72 251 72c95.333 0 170.333 -22.5 225 -67.5s82 -108.5 82 -190.5c0 -51.333 -12.667 -102.333 -38 -153s-59 -98.334 -101 -143.001s-84.833 -86.667 -128.5 -126l-137 -126
c-47.667 -44.667 -84.167 -84.334 -109.5 -119.001h416c53.333 0 88.166 7 104.499 21s27.166 41.667 32.499 83h35c0 -125.333 2.66699 -216 8 -272c-30.667 6.66699 -132.334 10 -305.001 10h-480v35c22.667 24.667 60.667 61.667 114 111s99.166 93.833 137.499 133.5
s78.5 86.5 120.5 140.5s74.5 111.5 97.5 172.5s34.5 123.5 34.5 187.5c0 147.333 -68.333 221 -205 221c-111.333 0 -202.666 -64 -273.999 -192z" />
    <glyph glyph-name="three" unicode="3" horiz-adv-x="924" 
d="M76 -272c71.333 1.33301 140.17 12.833 206.503 34.5s126.166 51.667 179.499 90s96.166 87.666 128.499 147.999s48.5 127.166 48.5 200.499c0 80 -19.667 146.5 -59 199.5s-92 81.833 -158 86.5c-51.333 -20 -83.333 -30 -96 -30c-22 0 -33 8.66699 -33 26
c0 12 5 21.5 15 28.5s22.667 10.5 38 10.5c8.66699 0 21 -1.16699 37 -3.5s27.667 -3.83301 35 -4.5c104.667 80 157 178.333 157 295c0 62.667 -15.5 109 -46.5 139s-74.833 45 -131.5 45c-119.333 0 -210 -60.667 -272 -182l-35 16c78.667 170.667 203.667 256 375 256
c86.667 0 157.5 -21 212.5 -63s82.5 -98.667 82.5 -170c0 -75.333 -29.667 -143 -89 -203s-131.333 -105 -216 -135c49.333 -1.33301 96 -8.5 140 -21.5s84.167 -31.667 120.5 -56s65.166 -56.666 86.499 -96.999s32 -85.833 32 -136.5c0 -60.667 -15 -118.167 -45 -172.5
s-70.333 -101.666 -121 -141.999s-108.5 -75.5 -173.5 -105.5s-133.5 -52.5 -205.5 -67.5s-143 -22.5 -213 -22.5v37z" />
    <glyph glyph-name="four" unicode="4" horiz-adv-x="1012" 
d="M35 111l0.00195312 43.001l665 929h33v-835h25c53.333 0 88.166 7 104.499 21s27.166 41.667 32.499 83h35c0 -114.667 2.66699 -198.667 8 -252c-20.667 5.33301 -89 8.66602 -205 9.99902v-399h-164v400h-534zM156.002 248.001h413v584z" />
    <glyph glyph-name="five" unicode="5" horiz-adv-x="850" 
d="M92 -266c61.333 0.666992 120.17 10.8359 176.503 30.5029s107.5 48.167 153.5 85.5s82.667 86.166 110 146.499s41 127.833 41 202.5c0 86.667 -22.333 154 -67 202s-108.334 72 -191.001 72c-53.333 0 -109.333 -11.667 -168 -35l-20 13l39 610
c27.333 -5.33301 64 -8 110 -8h232c54 0 89 7 105 21s26.667 41.667 32 83h39c0 -138.667 2.66699 -238.334 8 -299.001c-29.333 6.66699 -124 10 -284 10h-218l-24 -395c37.333 19.333 74 34.5 110 45.5s79.333 16.5 130 16.5c118.667 0 208.667 -29 270 -87
s92 -134.333 92 -229c0 -61.333 -13.167 -119.833 -39.5 -175.5s-61.833 -104.167 -106.5 -145.5s-95.834 -77.333 -153.501 -108s-118.834 -53.834 -183.501 -69.501s-129 -23.5 -193 -23.5v37z" />
    <glyph glyph-name="six" unicode="6" horiz-adv-x="1059" 
d="M113 553c0 85.333 8.00391 166.166 24.0039 242.499s37.667 143.833 65 202.5s59.666 112.834 96.999 162.501s76.666 92.167 117.999 127.5s85.166 66.5 131.499 93.5s90.666 48.333 132.999 64s84.166 27.5 125.499 35.5l8 -41
c-47.333 -15.333 -89.666 -32 -126.999 -50s-78.166 -45.333 -122.499 -82s-82 -79 -113 -127s-59 -110.833 -84 -188.5s-41.833 -165.5 -50.5 -263.5c31.333 58 74.5 100.5 129.5 127.5s109.833 40.5 164.5 40.5c48 0 94 -10 138 -30s83.333 -48.333 118 -85
s62.167 -83.667 82.5 -141s30.5 -120.666 30.5 -189.999c0 -148.667 -43.167 -265.834 -129.5 -351.501s-193.5 -128.5 -321.5 -128.5c-130.667 0 -232.834 51 -306.501 153s-110.5 245 -110.5 429zM311.004 557c0 -103.333 6.99805 -192.168 20.998 -266.501
s33 -130.833 57 -169.5s49.333 -66.5 76 -83.5s55.334 -25.5 86.001 -25.5c66.667 0 121.834 34.833 165.501 104.5s65.5 176.167 65.5 319.5c0 138.667 -20.333 240.334 -61 305.001s-94 97 -160 97c-48 0 -95.5 -14.167 -142.5 -42.5s-81.833 -73.166 -104.5 -134.499
c-2 -32.667 -3 -67.334 -3 -104.001z" />
    <glyph glyph-name="seven" unicode="7" horiz-adv-x="831" 
d="M55 1063c30.667 -6.66699 132.334 -9.99902 305.001 -9.99902h455v-43c-18.667 -44 -45.667 -100 -81 -168l-96 -189c-28.667 -58 -57.5 -123.333 -86.5 -196s-51.5 -151 -67.5 -235s-23.667 -170.333 -23 -259c0 -23.333 1.33301 -53 4 -89s4 -60.333 4 -73
c0 -30.667 -8.83301 -55.667 -26.5 -75s-40.834 -29 -69.501 -29c-30 0 -52.833 11 -68.5 33s-23.5 49.333 -23.5 82c0 65.333 7.16699 132.166 21.5 200.499s31.333 129.833 51 184.5s46.667 116.167 81 184.5s64.333 124.666 90 168.999l102 171
c42.333 69.667 73.833 122.834 94.5 159.501h-485c-54 0 -89 -6.83301 -105 -20.5s-27 -41.834 -33 -84.501h-35c0 134.667 -2.66699 230.334 -8 287.001z" />
    <glyph glyph-name="eight" unicode="8" horiz-adv-x="1065" 
d="M106 315c0 94.667 30.002 178.831 90.002 252.498s139.667 135.167 239 184.5c-40 32.667 -73.333 61.5 -100 86.5s-53.5 54.5 -80.5 88.5s-47.167 70.333 -60.5 109s-20 79.667 -20 123c0 94 35.667 170.833 107 230.5s160.666 89.5 267.999 89.5
c96.667 0 177.167 -24.667 241.5 -74s96.5 -118.333 96.5 -207c0 -73.333 -22.5 -140.666 -67.5 -201.999s-109.167 -120 -192.5 -176c94 -68.667 159 -121 195 -157c92.667 -92 139 -192.333 139 -301c0 -116 -41.667 -210.167 -125 -282.5s-189.333 -108.5 -318 -108.5
c-55.333 0 -107.333 7.16699 -156 21.5s-92.334 35.333 -131.001 63s-69.167 63.834 -91.5 108.501s-33.5 95 -33.5 151zM287.002 345.997c0 -62 7.49902 -117.333 22.499 -166s41.333 -89.5 79 -122.5s84.834 -49.5 141.501 -49.5c72.667 0 133.5 23.833 182.5 71.5
s73.5 113.167 73.5 196.5c0 47.333 -8 91.666 -24 132.999s-40.333 80.5 -73 117.5s-63.5 68.5 -92.5 94.5s-66.833 57.333 -113.5 94l-6 4.5c-1.33301 1 -3 2.33301 -5 4s-4 3.16699 -6 4.5c-119.333 -87.333 -179 -214.666 -179 -381.999zM334.001 1223
c0 -40.667 6.66797 -79.167 20.001 -115.5s33.666 -70.333 60.999 -102s54.166 -59.167 80.499 -82.5s59.833 -50 100.5 -80c84.667 80.667 127 190 127 328c0 82.667 -17.167 148.5 -51.5 197.5s-82.833 73.5 -145.5 73.5c-55.333 0 -101.166 -20 -137.499 -60
s-54.5 -93 -54.5 -159z" />
    <glyph glyph-name="nine" unicode="9" horiz-adv-x="1042" 
d="M76 604c0 74.667 12 142.663 36 203.996s56.5 111.833 97.5 151.5s88.667 70.167 143 91.5s112.166 32 173.499 32c130.667 0 233 -47.167 307 -141.5s111 -227.166 111 -398.499c0 -77.333 -8 -150.833 -24 -220.5s-37.667 -131.334 -65 -185.001
s-59.833 -103.334 -97.5 -149.001s-77.167 -84.667 -118.5 -117s-85 -60.666 -131 -84.999s-90.167 -43.666 -132.5 -57.999s-84.166 -24.833 -125.499 -31.5l-8 41c44 12.667 83.667 26.334 119 41.001s74 36.834 116 66.501s78.5 63.834 109.5 102.501
s59.5 88.834 85.5 150.501s45 131.167 57 208.5c-32.667 -51.333 -75.334 -89 -128.001 -113s-105 -36 -157 -36c-48 0 -94 10 -138 30s-83.167 48.333 -117.5 85s-61.666 83.667 -81.999 141s-30.5 120.666 -30.5 189.999zM274 617.996
c0 -138.667 20.5 -240.169 61.5 -304.502s94.5 -96.5 160.5 -96.5c46 0 91.667 12.833 137 38.5s80 66.5 104 122.5c5.33301 53.333 8 107 8 161c0 95.333 -7 177.333 -21 246s-33 120.834 -57 156.501s-49.167 61.334 -75.5 77.001s-54.833 23.5 -85.5 23.5
c-66.667 0 -122 -34.833 -166 -104.5s-66 -176.167 -66 -319.5z" />
    <glyph glyph-name="colon" unicode=":" horiz-adv-x="545" 
d="M141 102c0 36 12.833 66.833 38.5 92.5s56.5 38.5 92.5 38.5s66.833 -12.833 92.5 -38.5s38.5 -56.5 38.5 -92.5c0 -35.333 -12.833 -66 -38.5 -92s-56.5 -39 -92.5 -39s-66.833 13 -92.5 39s-38.5 56.667 -38.5 92zM141 950c0 36 12.833 66.833 38.5 92.5
s56.5 38.5 92.5 38.5s66.833 -12.833 92.5 -38.5s38.5 -56.5 38.5 -92.5c0 -35.333 -12.833 -66 -38.5 -92s-56.5 -39 -92.5 -39s-66.833 13 -92.5 39s-38.5 56.667 -38.5 92z" />
    <glyph glyph-name="semicolon" unicode=";" horiz-adv-x="584" 
d="M150 102c0 37.333 12.665 68.5 37.998 93.5s56.333 37.5 93 37.5c52.667 0 93 -21.667 121 -65c23.333 -36 35 -81 35 -135c0 -68.667 -17.5 -130.167 -52.5 -184.5s-87.833 -98.166 -158.5 -131.499l-19 37c42.667 18 79.334 46.167 110.001 84.5s46 77.166 46 116.499
c0 16.667 -2 31 -6 43c-23.333 -18 -48.666 -27 -75.999 -27c-37.333 0 -68.5 11.833 -93.5 35.5s-37.5 55.5 -37.5 95.5zM163.998 950c0 36 12.833 66.833 38.5 92.5s56.5 38.5 92.5 38.5s66.833 -12.833 92.5 -38.5s38.5 -56.5 38.5 -92.5
c0 -35.333 -12.833 -66 -38.5 -92s-56.5 -39 -92.5 -39s-66.833 13 -92.5 39s-38.5 56.667 -38.5 92z" />
    <glyph glyph-name="less" unicode="&#x3c;" horiz-adv-x="1245" 
d="M61 727l998 465l35 -74l-838 -391l838 -391l-35 -74z" />
    <glyph glyph-name="equal" unicode="=" horiz-adv-x="1325" 
d="M150 553v61h1026v-61h-1026zM150 840v61h1026v-61h-1026z" />
    <glyph glyph-name="greater" unicode="&#x3e;" horiz-adv-x="1245" 
d="M151 336l838 391l-838 391l35 74l998 -465l-998 -465z" />
    <glyph glyph-name="question" unicode="?" horiz-adv-x="940" 
d="M66 1380c0 55.333 31.999 104.666 95.999 147.999c72 49.333 164.667 74 278 74c129.333 0 233.333 -33.167 312 -99.5s118 -156.166 118 -269.499c0 -112 -41 -206.667 -123 -284s-194.333 -134.333 -337 -171v-299h-41v318c66 24 120.667 50.833 164 80.5s76 62 98 97
s37 69.333 45 103s12 72.5 12 116.5c0 124 -25.5 216.167 -76.5 276.5s-121.167 90.5 -210.5 90.5c-94 0 -160.667 -24.667 -200 -74c26 -5.33301 46.833 -17.166 62.5 -35.499s23.5 -41.5 23.5 -69.5c0 -33.333 -10.833 -60 -32.5 -80s-48.5 -30 -80.5 -30
c-31.333 0 -57.166 10.167 -77.499 30.5s-30.5 46.166 -30.5 77.499zM259.999 102c0 36 12.833 66.833 38.5 92.5s56.5 38.5 92.5 38.5s66.833 -12.833 92.5 -38.5s38.5 -56.5 38.5 -92.5c0 -35.333 -12.833 -66 -38.5 -92s-56.5 -39 -92.5 -39s-66.833 13 -92.5 39
s-38.5 56.667 -38.5 92z" />
    <glyph glyph-name="at" unicode="@" horiz-adv-x="1798" 
d="M100 293c0 136 26.0039 269.334 78.0039 400.001s121.833 245.5 209.5 344.5s193.167 178.833 316.5 239.5s252 91 386 91c72.667 0 140.5 -6.66699 203.5 -20s121.333 -34.5 175 -63.5s99.667 -65.167 138 -108.5s68.333 -96.5 90 -159.5s32.5 -133.5 32.5 -211.5
c0 -88.667 -12.167 -173.5 -36.5 -254.5s-56.833 -151 -97.5 -210s-86.834 -110.5 -138.501 -154.5s-105.167 -77.167 -160.5 -99.5s-109 -33.5 -161 -33.5c-98.667 0 -148 44.333 -148 133c0 14 1.33301 29.667 4 47s5.33398 30.833 8.00098 40.5l11.5 40
c5 17 7.5 25.833 7.5 26.5v2c-38.667 -99.333 -83.334 -172.333 -134.001 -219s-111.334 -70 -182.001 -70c-73.333 0 -126.666 22.5 -159.999 67.5s-50 105.167 -50 180.5c0 101.333 24 205 72 311s110.333 193.667 187 263s152.667 104 228 104
c83.333 0 132.666 -36.333 147.999 -109l16 80c78 0 139.333 9.66699 184 29l-172 -752c-8.66699 -28 -13 -51.333 -13 -70c0 -19.333 4.83301 -33 14.5 -41s24.834 -12 45.501 -12c26.667 0 57 7 91 21s69.167 34 105.5 60s71.666 59.667 105.999 101s65.166 87 92.499 137
s49.333 108.333 66 175s25 136.334 25 209.001c0 92 -15.833 172.333 -47.5 241s-75.334 123.167 -131.001 163.5s-118.334 70.333 -188.001 90s-146.167 29.5 -229.5 29.5c-123.333 0 -243.333 -28.167 -360 -84.5s-218.167 -131 -304.5 -224
s-155.666 -203.167 -207.999 -330.5s-78.5 -259 -78.5 -395c0 -102.667 15.333 -192.5 46 -269.5s74 -138.5 130 -184.5s120.5 -80.167 193.5 -102.5s154.833 -33.5 245.5 -33.5c157.333 0 298 37 422 111l14 -27c-52.667 -37.333 -116.834 -66.833 -192.501 -88.5
s-157.5 -32.5 -245.5 -32.5c-77.333 0 -148.833 7.66699 -214.5 23s-125.667 39.166 -180 71.499s-100.666 72.666 -138.999 120.999s-68 107 -89 176s-31.5 146.167 -31.5 231.5zM666.004 313.001c0 -132 35.332 -197.999 105.999 -197.999
c53.333 0 106.5 39.667 159.5 119s96.5 186.666 130.5 321.999l51 249c-4.66699 84.667 -46.667 127 -126 127c-56.667 0 -110.167 -31.667 -160.5 -95s-89.666 -142.5 -117.999 -237.5s-42.5 -190.5 -42.5 -286.5z" />
    <glyph glyph-name="A" unicode="A" horiz-adv-x="1290" 
d="M-14 0l0.000976562 41.002c68 15.333 121.667 74.666 161 177.999l482 1241h33l499 -1288c33.333 -84.667 80.666 -128.334 141.999 -131.001v-41c-56 4 -129.333 6 -220 6c-116.667 0 -204 -2 -262 -6v41c52 2 89.167 8.33301 111.5 19s33.5 29.667 33.5 57
c0 23.333 -8 55.333 -24 96l-126 336h-494l-84 -217c-27.333 -69.333 -41 -125.333 -41 -168c0 -43.333 14.5 -74.333 43.5 -93s73.833 -28.667 134.5 -30v-41c-78 4 -156.667 6 -236 6c-61.333 0 -112.333 -2 -153 -6zM337.001 590.002h464l-229 611z" />
    <glyph glyph-name="B" unicode="B" horiz-adv-x="1276" 
d="M86 0l-0.000976562 41.0029c49.333 2 84.833 7.33301 106.5 16s37 24.667 46 48s13.5 60.666 13.5 111.999v1016c0 51.333 -4.5 88.666 -13.5 111.999s-24.333 39.333 -46 48s-57.167 14 -106.5 16v41c56.667 -4 140 -6 250 -6c49.333 0 110.666 0.666992 183.999 2
s115 2 125 2c139.333 0 246.166 -29.333 320.499 -88s111.5 -136.667 111.5 -234c0 -78.667 -24.833 -149.334 -74.5 -212.001s-128.5 -110.667 -236.5 -144v-4c78 -10.667 145 -28 201 -52s99.333 -53 130 -87s52.834 -69.833 66.501 -107.5s20.5 -78.5 20.5 -122.5
c0 -118 -44.167 -213.667 -132.5 -287s-208.166 -110 -359.499 -110c-11.333 0 -56.666 1 -135.999 3s-151.333 3 -216 3c-112 0 -196.667 -2 -254 -6zM441.999 217.003c0 -71.333 9.66699 -117.5 29 -138.5s61 -31.5 125 -31.5c255.333 0 383 119.667 383 359
c0 107.333 -29.167 189 -87.5 245s-150.833 84 -277.5 84h-172v-518zM441.999 770.003l137.999 0.000976562c58 0 107.333 8.83301 148 26.5s71.834 42.667 93.501 75s37 67.166 46 104.499s13.5 80 13.5 128c0 102.667 -22.667 179.167 -68 229.5s-118.333 75.5 -219 75.5
c-62 0 -102.833 -11.5 -122.5 -34.5s-29.5 -70.167 -29.5 -141.5v-463z" />
    <glyph glyph-name="C" unicode="C" horiz-adv-x="1409" 
d="M109 713c0 150.667 27.667 284.168 83 400.501s132.333 206.333 231 270s211 95.5 337 95.5c81.333 0 150.833 -11.667 208.5 -35s113.834 -56 168.501 -98c14.667 -12 28 -18 40 -18c28 0 45.333 40.667 52 122h47c-5.33301 -88.667 -8 -245.667 -8 -471h-47
c-14.667 89.333 -28.334 153.166 -41.001 191.499s-33.334 75.5 -62.001 111.5c-41.333 53.333 -93.666 93.333 -156.999 120s-131.666 40 -204.999 40c-134 0 -241.333 -65 -322 -195s-121 -305.333 -121 -526c0 -222.667 43.167 -396.5 129.5 -521.5
s197.5 -187.5 333.5 -187.5c68 0 134.333 13 199 39s115 65 151 117c28 37.333 48 77.833 60 121.5s23.667 111.167 35 202.5h47c0 -235.333 2.66699 -399.333 8 -492h-47c-3.33301 42.667 -8.83301 73.5 -16.5 92.5s-18.834 28.5 -33.501 28.5
c-10.667 0 -24.667 -5.66699 -42 -17c-62 -43.333 -120.833 -76.333 -176.5 -99s-123.167 -34 -202.5 -34c-197.333 0 -354.833 65.833 -472.5 197.5s-176.5 313.167 -176.5 544.5z" />
    <glyph glyph-name="D" unicode="D" horiz-adv-x="1481" 
d="M86 0l0.00488281 41.002c49.333 2 84.833 7.33301 106.5 16s37 24.667 46 48s13.5 60.666 13.5 111.999v1016c0 51.333 -4.5 88.666 -13.5 111.999s-24.333 39.333 -46 48s-57.167 14 -106.5 16v41c73.333 -4.66699 140 -7 200 -7c5.33301 0 13.666 0.166992 24.999 0.5
s19.666 0.5 24.999 0.5c188 4 291 6 309 6c241.333 0 422.166 -60.333 542.499 -181s180.5 -296.667 180.5 -528c0 -226 -65.333 -406 -196 -540s-312.334 -201 -545.001 -201c-18.667 0 -63.334 1 -134.001 3s-121.667 3 -153 3c-112 0 -196.667 -2 -254 -6z
M442.005 213.002c0 -72 9.83203 -119.332 29.499 -141.999s61.167 -34 124.5 -34c74 0 139.667 6.66699 197 20s106.833 33.833 148.5 61.5s76.834 60.667 105.501 99s51.5 84.166 68.5 137.499s29.167 110.333 36.5 171s11 129.667 11 207
c0 117.333 -9.83301 217.5 -29.5 300.5s-51.667 153.333 -96 211s-103 100.167 -176 127.5s-162.167 41 -267.5 41c-62 0 -102.833 -11.5 -122.5 -34.5s-29.5 -70.167 -29.5 -141.5v-1024z" />
    <glyph glyph-name="E" unicode="E" horiz-adv-x="1247" 
d="M86 0v40.9932c49.333 2 84.833 7.33301 106.5 16s37 24.667 46 48s13.5 60.666 13.5 111.999v1016c0 51.333 -4.5 88.666 -13.5 111.999s-24.333 39.333 -46 48s-57.167 14 -106.5 16v41c134 -4 332 -6 594 -6c200.667 0 343.334 2 428.001 6
c-9.33301 -89.333 -14 -170 -14 -242c0 -53.333 2 -95.666 6 -126.999h-47c-4.66699 44.667 -9.5 80.834 -14.5 108.501s-11.833 54.834 -20.5 81.501s-19 47.334 -31 62.001s-27.667 27.834 -47 39.501s-42 19.667 -68 24s-57.333 6.5 -94 6.5h-170
c-70.667 0 -116 -10 -136 -30s-30 -66.667 -30 -140v-483h136c24.667 0 46.5 3 65.5 9s34.833 15.333 47.5 28s23.167 25.167 31.5 37.5s15.166 28.666 20.499 48.999s9.16602 36.833 11.499 49.5s4.83301 30 7.5 52s4.66699 37 6 45h47c-4.66699 -68 -7 -132.333 -7 -193
c0 -13.333 0.166992 -30.666 0.5 -51.999s0.5 -36.666 0.5 -45.999c0 -69.333 4 -166.333 12 -291h-47c-9.33301 76.667 -17 125.334 -23 146.001c-18.667 66 -57.334 105.667 -116.001 119c-16.667 4 -35.667 6 -57 6h-136v-492c0 -73.333 10 -120 30 -140
s65.333 -30 136 -30h150c64.667 0 116.834 5.83301 156.501 17.5s71.834 32.834 96.501 63.501s42.667 67.167 54 109.5s21 99.833 29 172.5h47c-4 -36.667 -6 -86 -6 -148c0 -77.333 4.66699 -164.666 14 -261.999c-92.667 4 -249 6 -469 6c-262 0 -460 -2 -594 -6z" />
    <glyph glyph-name="F" unicode="F" horiz-adv-x="1165" 
d="M86 0l-0.000976562 41.001c49.333 2 84.833 7.33301 106.5 16s37 24.667 46 48s13.5 60.666 13.5 111.999v1016c0 51.333 -4.5 88.666 -13.5 111.999s-24.333 39.333 -46 48s-57.167 14 -106.5 16v41c134 -4 332 -6 594 -6c200.667 0 343.334 2 428.001 6
c-9.33301 -97.333 -14 -184.666 -14 -261.999c0 -69.333 2 -125.333 6 -168h-47c-4 39.333 -7.83301 72.166 -11.5 98.499s-8.33398 53.333 -14.001 81s-12.167 50.167 -19.5 67.5s-16.666 34.333 -27.999 51s-24.166 29.667 -38.499 39s-31.5 17.833 -51.5 25.5
s-42.5 13 -67.5 16s-53.5 4.5 -85.5 4.5h-129c-70.667 0 -116 -10 -136 -30s-30 -66.667 -30 -140v-504h150c24.667 0 46.5 3 65.5 9s34.833 15.333 47.5 28s23.167 25.167 31.5 37.5s15.166 28.666 20.499 48.999s9.16602 36.833 11.499 49.5s4.83301 30 7.5 52
s4.66699 37 6 45h47c-4.66699 -66.667 -7 -131 -7 -193c0 -12.667 0.166992 -29.667 0.5 -51s0.5 -36.666 0.5 -45.999c0 -72 4.33301 -169 13 -291h-48c-9.33301 76.667 -17 125.667 -23 147c-18.667 64.667 -57.334 103.667 -116.001 117c-17.333 4 -36.333 6 -57 6h-150
v-471c0 -38.667 2.5 -68.667 7.5 -90s15.833 -38.5 32.5 -51.5s37.167 -21.667 61.5 -26s59.5 -7.16602 105.5 -8.49902v-41c-71.333 4 -171.666 6 -300.999 6c-117.333 0 -204.666 -2 -261.999 -6z" />
    <glyph glyph-name="G" unicode="G" horiz-adv-x="1440" 
d="M111 700c0 117.333 16.498 225.001 49.498 323.001s78.667 180.167 137 246.5s128 117.833 209 154.5s168.833 55 263.5 55c42.667 0 81.667 -3.33301 117 -10s68.666 -17.334 99.999 -32.001s56.833 -28 76.5 -40s44.834 -29 75.501 -51c17.333 -14 31 -21 41 -21
c26 0 43 41.667 51 125h47c-5.33301 -88.667 -8 -245.667 -8 -471h-47c-8 48.667 -15 87.167 -21 115.5s-16.167 60.5 -30.5 96.5s-31.5 66.333 -51.5 91c-40 49.333 -91.667 88.333 -155 117s-129.666 43 -198.999 43c-136.667 0 -246 -65 -328 -195
s-123 -304.667 -123 -524c0 -245.333 39.5 -425.166 118.5 -539.499s202.167 -171.5 369.5 -171.5c82 0 153 21.333 213 64c24.667 16.667 40.667 32.667 48 48s11 36.666 11 63.999v197c0 82 -12.667 134.5 -38 157.5s-81.666 36.167 -168.999 39.5v41
c67.333 -4.66699 163.666 -7 288.999 -7c96 0 167 2.33301 213 7v-41c-32 -2.66699 -54.667 -8.16699 -68 -16.5s-22.666 -23.833 -27.999 -46.5s-8 -60.334 -8 -113.001v-406h-41c-1.33301 28 -7 54.5 -17 79.5s-23 37.5 -39 37.5c-14 0 -36.333 -11.667 -67 -35
c-98 -74 -204.667 -111 -320 -111c-211.333 0 -376 64.333 -494 193s-177 307.334 -177 536.001z" />
    <glyph glyph-name="H" unicode="H" horiz-adv-x="1550" 
d="M86 0l-0.000976562 41c49.333 2 84.833 7.33301 106.5 16s37 24.667 46 48s13.5 60.666 13.5 111.999v1016c0 51.333 -4.5 88.666 -13.5 111.999s-24.333 39.333 -46 48s-57.167 14 -106.5 16v41c56.667 -4 144 -6 262 -6c110.667 0 197.334 2 260.001 6v-41
c-49.333 -2 -84.833 -7.33301 -106.5 -16s-37 -24.667 -46 -48s-13.5 -60.666 -13.5 -111.999v-483h666v483c0 51.333 -4.5 88.666 -13.5 111.999s-24.333 39.333 -46 48s-57.167 14 -106.5 16v41c64 -4 150.667 -6 260 -6c117.333 0 204.666 2 261.999 6v-41
c-49.333 -2 -84.833 -7.33301 -106.5 -16s-37 -24.667 -46 -48s-13.5 -60.666 -13.5 -111.999v-1016c0 -51.333 4.5 -88.666 13.5 -111.999s24.333 -39.333 46 -48s57.167 -14 106.5 -16v-41c-57.333 4 -144.666 6 -261.999 6c-109.333 0 -196 -2 -260 -6v41
c49.333 2 84.833 7.33301 106.5 16s37 24.667 46 48s13.5 60.666 13.5 111.999v492h-666v-492c0 -51.333 4.5 -88.666 13.5 -111.999s24.333 -39.333 46 -48s57.167 -14 106.5 -16v-41c-62.667 4 -149.334 6 -260.001 6c-117.333 0 -204.666 -2 -261.999 -6z" />
    <glyph glyph-name="I" unicode="I" horiz-adv-x="694" 
d="M86 0l-0.000976562 41c49.333 2 84.833 7.33301 106.5 16s37 24.667 46 48s13.5 60.666 13.5 111.999v1016c0 51.333 -4.5 88.666 -13.5 111.999s-24.333 39.333 -46 48s-57.167 14 -106.5 16v41c56.667 -4 144 -6 262 -6c110.667 0 197.334 2 260.001 6v-41
c-49.333 -2 -84.833 -7.33301 -106.5 -16s-37 -24.667 -46 -48s-13.5 -60.666 -13.5 -111.999v-1016c0 -51.333 4.5 -88.666 13.5 -111.999s24.333 -39.333 46 -48s57.167 -14 106.5 -16v-41c-62.667 4 -149.334 6 -260.001 6c-117.333 0 -204.666 -2 -261.999 -6z" />
    <glyph glyph-name="J" unicode="J" horiz-adv-x="668" 
d="M-307 -207c0 32 10.168 58.165 30.501 78.498s46.166 30.5 77.499 30.5c32.667 0 59.667 -10 81 -30s32 -47 32 -81c0 -28.667 -7.66699 -51.834 -23 -69.501s-36.333 -29.167 -63 -34.5c22 -22 65.667 -33 131 -33c59.333 0 110.5 15.333 153.5 46
s73.833 73.334 92.5 128.001c14 42.667 23.333 95.834 28 159.501s7 166.834 7 309.501v936c0 51.333 -4.5 88.666 -13.5 111.999s-24.333 39.333 -46 48s-57.167 14 -106.5 16v41c56.667 -4 144 -6 262 -6c109.333 0 196 2 260 6v-41
c-49.333 -2 -84.833 -7.33301 -106.5 -16s-37 -24.667 -46 -48s-13.5 -60.666 -13.5 -111.999v-750c0 -259.333 -11.667 -437.333 -35 -534c-23.333 -98.667 -73 -179 -149 -241s-170.333 -93 -283 -93c-66.667 0 -124 12.333 -172 37c-65.333 34 -98 81 -98 141z" />
    <glyph glyph-name="K" unicode="K" horiz-adv-x="1341" 
d="M86 0l0.00195312 41.001c49.333 2 84.833 7.33301 106.5 16s37 24.667 46 48s13.5 60.666 13.5 111.999v1016c0 51.333 -4.5 88.666 -13.5 111.999s-24.333 39.333 -46 48s-57.167 14 -106.5 16v41c56.667 -4 144 -6 262 -6c110.667 0 197.334 2 260.001 6v-41
c-49.333 -2 -84.833 -7.33301 -106.5 -16s-37 -24.667 -46 -48s-13.5 -60.666 -13.5 -111.999v-459c98.667 3.33301 176.667 41.666 234 114.999l196 250c70 88.667 105 154 105 196c0 47.333 -42.333 72 -127 74v41c78 -4 156.333 -6 235 -6c75.333 0 133.666 2 174.999 6
v-41c-94.667 -13.333 -175.334 -63 -242.001 -149l-334 -428l475 -666c22.667 -34.667 48 -61.667 76 -81s62.667 -34 104 -44v-41c-64.667 4 -146.334 6 -245.001 6c-74 0 -144.333 -2 -211 -6v41c62.667 2.66699 94 17 94 43c0 12.667 -7 29 -21 49l-299 451
c-40 60.667 -73.667 100 -101 118s-65.333 28.333 -114 31v-516c0 -51.333 4.5 -88.666 13.5 -111.999s24.333 -39.333 46 -48s57.167 -14 106.5 -16v-41c-62.667 4 -149.334 6 -260.001 6c-117.333 0 -204.666 -2 -261.999 -6z" />
    <glyph glyph-name="L" unicode="L" horiz-adv-x="1204" 
d="M86 0l-0.00292969 41c49.333 2 84.833 7.33301 106.5 16s37 24.667 46 48s13.5 60.666 13.5 111.999v1016c0 51.333 -4.5 88.666 -13.5 111.999s-24.333 39.333 -46 48s-57.167 14 -106.5 16v41c56.667 -4 144 -6 262 -6c110.667 0 197.334 2 260.001 6v-41
c-49.333 -2 -84.833 -7.33301 -106.5 -16s-37 -24.667 -46 -48s-13.5 -60.666 -13.5 -111.999v-1016c0 -73.333 10 -120 30 -140s65.333 -30 136 -30h150c64.667 0 116.834 6.16699 156.501 18.5s71.834 34.833 96.501 67.5s42.667 71.167 54 115.5s21 104.833 29 181.5h47
c-4 -42.667 -6 -98.667 -6 -168c0 -77.333 4.66699 -164.666 14 -261.999c-92.667 4 -249 6 -469 6c-262 0 -460 -2 -594 -6z" />
    <glyph glyph-name="M" unicode="M" horiz-adv-x="1784" 
d="M86 0v41.001c68.667 2.66699 113.5 17.167 134.5 43.5s31.5 77.5 31.5 153.5v995c0 51.333 -4.5 88.666 -13.5 111.999s-24.333 39.333 -46 48s-57.167 14 -106.5 16v41c44.667 -4 108 -6 190 -6c72 0 130.333 2 175 6l450 -1188l440 1182h97c109.333 0 196 2 260 6v-41
c-49.333 -2 -84.833 -7.33301 -106.5 -16s-37 -24.667 -46 -48s-13.5 -60.666 -13.5 -111.999v-1016c0 -51.333 4.5 -88.666 13.5 -111.999s24.333 -39.333 46 -48s57.167 -14 106.5 -16v-41c-64 4 -150.667 6 -260 6c-117.333 0 -204.666 -2 -261.999 -6v41
c37.333 1.33301 65.666 4.16602 84.999 8.49902s35.666 13.166 48.999 26.499s21.833 30.5 25.5 51.5s5.5 50.833 5.5 89.5v1096l-493 -1323h-33l-516 1329v-1081c0 -76.667 11.5 -128 34.5 -154s73.5 -40.333 151.5 -43v-41c-49.333 4 -119 6 -209 6
c-81.333 0 -144.666 -2 -189.999 -6z" />
    <glyph glyph-name="N" unicode="N" horiz-adv-x="1446" 
d="M86 0l0.000976562 41.002c68.667 2.66699 113.5 17.167 134.5 43.5s31.5 77.5 31.5 153.5v995c0 51.333 -4.5 88.666 -13.5 111.999s-24.333 39.333 -46 48s-57.167 14 -106.5 16v41c44.667 -4 108 -6 190 -6c62 0 115.333 2 160 6l723 -1114v876
c0 40 -2.16699 71.333 -6.5 94s-13.333 42 -27 58s-32.334 27.167 -56.001 33.5s-55.834 10.166 -96.501 11.499v41c48.667 -4 118.334 -6 209.001 -6c81.333 0 144.666 2 189.999 6v-41c-68.667 -2.66699 -113.5 -17.167 -134.5 -43.5s-31.5 -77.5 -31.5 -153.5v-1222h-47
l-860 1329v-1081c0 -76.667 11.5 -128 34.5 -154s73.5 -40.333 151.5 -43v-41c-49.333 4 -119 6 -209 6c-81.333 0 -144.666 -2 -189.999 -6z" />
    <glyph glyph-name="O" unicode="O" horiz-adv-x="1518" 
d="M109 713c0 150.667 27.667 284.167 83 400.5s132.333 206.333 231 270s211 95.5 337 95.5c197.333 0 354.833 -65.833 472.5 -197.5s176.5 -313.167 176.5 -544.5c0 -150.667 -27.667 -284.167 -83 -400.5s-132.333 -206.333 -231 -270s-211 -95.5 -337 -95.5
c-197.333 0 -354.833 65.833 -472.5 197.5s-176.5 313.167 -176.5 544.5zM313 721c0 -213.333 43.167 -385.5 129.5 -516.5s194.166 -196.5 323.499 -196.5c87.333 0 164.333 30.5 231 91.5s117.834 146 153.501 255s53.5 233.833 53.5 374.5
c0 213.333 -43.167 385.5 -129.5 516.5s-193.833 196.5 -322.5 196.5c-87.333 0 -164.5 -30.5 -231.5 -91.5s-118.333 -146 -154 -255s-53.5 -233.833 -53.5 -374.5z" />
    <glyph glyph-name="P" unicode="P" horiz-adv-x="1198" 
d="M86 0l-0.00195312 41.001c49.333 2 84.833 7.33301 106.5 16s37 24.667 46 48s13.5 60.666 13.5 111.999v1016c0 51.333 -4.5 88.666 -13.5 111.999s-24.333 39.333 -46 48s-57.167 14 -106.5 16v41c56.667 -4 140 -6 250 -6c49.333 0 110.666 0.666992 183.999 2
s115 2 125 2c160.667 0 283.167 -36.667 367.5 -110s126.5 -171.333 126.5 -294c0 -42.667 -5 -84 -15 -124s-27.833 -80.667 -53.5 -122s-58 -77.333 -97 -108s-90.667 -55.667 -155 -75s-137.166 -29 -218.499 -29h-158v-369c0 -38.667 2.5 -68.667 7.5 -90
s15.833 -38.5 32.5 -51.5s37.167 -21.667 61.5 -26s59.5 -7.16602 105.5 -8.49902v-41c-71.333 4 -171.666 6 -300.999 6c-117.333 0 -204.666 -2 -261.999 -6zM441.998 627.001h138c56 0 105.167 7.16699 147.5 21.5s76.5 33.333 102.5 57s47 53 63 88
s26.833 70.667 32.5 107s8.5 76.833 8.5 121.5c0 132 -26.333 229.5 -79 292.5s-139.667 94.5 -261 94.5c-62 0 -102.833 -11.5 -122.5 -34.5s-29.5 -70.167 -29.5 -141.5v-606z" />
    <glyph glyph-name="Q" unicode="Q" horiz-adv-x="1518" 
d="M109 713c0 150.667 27.6689 284.166 83.002 400.499s132.333 206.333 231 270s211 95.5 337 95.5c197.333 0 354.833 -65.833 472.5 -197.5s176.5 -313.167 176.5 -544.5c0 -214 -54 -390.5 -162 -529.5s-249.333 -216.833 -424 -233.5v-1
c-46.667 -5.33301 -102.334 -21.5 -167.001 -48.5s-110 -44.167 -136 -51.5c326.667 -65.333 543 -98 649 -98c97.333 0 174.333 14.167 231 42.5s100.667 73.5 132 135.5l31 -12c-30.667 -104.667 -73.667 -182.667 -129 -234c-68 -61.333 -160.333 -92 -277 -92
c-64.667 0 -130.167 10.833 -196.5 32.5s-145 52.834 -236 93.501s-166.5 71 -226.5 91c-6.66699 2 -15.5 4.5 -26.5 7.5s-18.5 5.16699 -22.5 6.5c-60 -20 -116.667 -30 -170 -30c-63.333 0 -95 13.667 -95 41c0 28.667 37 43 111 43
c49.333 0 100.666 -5.66699 153.999 -17c36.667 10 81 26.667 133 50s84.667 37.333 98 42c-175.333 17.333 -314.333 90.833 -417 220.5s-154 302.167 -154 517.5zM313.002 720.999c0 -213.333 43.167 -385.5 129.5 -516.5s194.166 -196.5 323.499 -196.5
c87.333 0 164.333 30.5 231 91.5s117.834 146 153.501 255s53.5 233.833 53.5 374.5c0 213.333 -43.167 385.5 -129.5 516.5s-193.833 196.5 -322.5 196.5c-87.333 0 -164.5 -30.5 -231.5 -91.5s-118.333 -146 -154 -255s-53.5 -233.833 -53.5 -374.5z" />
    <glyph glyph-name="R" unicode="R" horiz-adv-x="1327" 
d="M86 0l-0.00292969 40.998c49.333 2 84.833 7.33301 106.5 16s37 24.667 46 48s13.5 60.666 13.5 111.999v1016c0 51.333 -4.5 88.666 -13.5 111.999s-24.333 39.333 -46 48s-57.167 14 -106.5 16v41c56.667 -4 140 -6 250 -6c49.333 0 110.666 0.666992 183.999 2
s115 2 125 2c158.667 0 280.667 -33.167 366 -99.5s128 -151.833 128 -256.5c0 -38.667 -6.5 -77.167 -19.5 -115.5s-33.833 -76.833 -62.5 -115.5s-70.167 -72.667 -124.5 -102s-118.166 -49.666 -191.499 -60.999l25 -4c89.333 -14.667 154.5 -41.667 195.5 -81
s71.5 -102.333 91.5 -189l51 -209c13.333 -62 27.333 -105.5 42 -130.5s35.667 -37.5 63 -37.5c22.667 0 41.334 5.83301 56.001 17.5s33.334 31.834 56.001 60.501l31 -23c-32 -46 -63.667 -79.333 -95 -100s-72.666 -31 -123.999 -31c-56 0 -102 16.333 -138 49
s-63.333 90.334 -82 173.001l-45 204c-6.66699 30.667 -12.167 54.667 -16.5 72s-10.333 37.833 -18 61.5s-15 42 -22 55s-16.167 27 -27.5 42s-23.666 26.333 -36.999 34s-29.333 14 -48 19s-39.334 7.5 -62.001 7.5h-195v-471c0 -51.333 4.5 -88.666 13.5 -111.999
s24.333 -39.333 46 -48s57.167 -14 106.5 -16v-41c-62.667 4 -149.334 6 -260.001 6c-117.333 0 -204.666 -2 -261.999 -6zM441.997 728.998h138c56.667 0 106 5.83301 148 17.5s76 27.5 102 47.5s46.833 44.833 62.5 74.5s26.5 60.5 32.5 92.5s9 68 9 108
c0 112 -26.667 196.667 -80 254s-140 86 -260 86c-62 0 -102.833 -11.5 -122.5 -34.5s-29.5 -70.167 -29.5 -141.5v-504z" />
    <glyph glyph-name="S" unicode="S" horiz-adv-x="1106" 
d="M129 -14c5.33301 74.667 7.99805 238.328 7.99805 490.995h47c4.66699 -65.333 14.5 -124.666 29.5 -177.999s36.5 -102.166 64.5 -146.499s65.667 -78.833 113 -103.5s102.666 -37 165.999 -37c73.333 0 136 23 188 69s78 114 78 204c0 40 -7.16699 77 -21.5 111
s-37.166 66.333 -68.499 97s-63.833 57.834 -97.5 81.501s-77.5 51.834 -131.5 84.501l-95.5 59.5c-24.333 15.667 -52.5 35.5 -84.5 59.5s-57.5 46.833 -76.5 68.5s-37.667 46.667 -56 75s-31.666 58.833 -39.999 91.5s-12.5 67.667 -12.5 105c0 58.667 10.5 111 31.5 157
s49.5 83.167 85.5 111.5s76.833 49.833 122.5 64.5s94.167 22 145.5 22c42 0 80 -4.33301 114 -13s59.167 -17.334 75.5 -26.001s36.5 -21 60.5 -37c30.667 -19.333 54 -29 70 -29c12.667 0 22.334 7.16699 29.001 21.5s12 37.166 16 68.499h47
c-6.66699 -80 -10 -219.333 -10 -418h-47c-4 51.333 -13.167 99.5 -27.5 144.5s-34.5 86.667 -60.5 125s-60.167 68.666 -102.5 90.999s-90.833 33.5 -145.5 33.5c-73.333 0 -133.333 -22.167 -180 -66.5s-70 -101.5 -70 -171.5c0 -20 1.66699 -39.167 5 -57.5
s9.16602 -35.666 17.499 -51.999s16.666 -31.166 24.999 -44.499s20.333 -27.166 36 -41.499l40.5 -36.5c11.333 -10 27.833 -22.167 49.5 -36.5l52 -34l58.5 -36l60 -36.5l88.5 -56.5c23 -15 48.833 -33 77.5 -54s51.834 -40.167 69.501 -57.5s35.834 -37.5 54.501 -60.5
s33.167 -45.833 43.5 -68.5s18.833 -48 25.5 -76s10 -57.333 10 -88c0 -84 -20 -155.833 -60 -215.5s-92.167 -103.5 -156.5 -131.5s-137.166 -42 -218.499 -42c-65.333 0 -119 6.83301 -161 20.5s-81.667 32.167 -119 55.5c-30.667 19.333 -54 29 -70 29
c-12.667 0 -22.334 -7.16699 -29.001 -21.5s-12 -37.166 -16 -68.499h-47z" />
    <glyph glyph-name="T" unicode="T" horiz-adv-x="1272" 
d="M59 1450c113.333 -4 305.997 -6.00293 577.997 -6.00293c270 0 461.667 2 575 6c-9.33301 -97.333 -14 -184.666 -14 -261.999c0 -69.333 2 -125.333 6 -168h-47c-5.33301 53.333 -10.5 96 -15.5 128s-12.333 64.333 -22 97s-21.334 57.5 -35.001 74.5
s-31.5 32.667 -53.5 47s-48.167 24 -78.5 29s-67.166 7.5 -110.499 7.5h-111v-1165c0 -34.667 1.83301 -62.667 5.5 -84s9.5 -39.666 17.5 -54.999s20.5 -26.833 37.5 -34.5s36.5 -13.167 58.5 -16.5s51.333 -5.66602 88 -6.99902v-41c-72 4 -172.333 6 -301 6
c-136.667 0 -237.667 -2 -303 -6v41c36.667 1.33301 66 3.66602 88 6.99902s41.5 8.83301 58.5 16.5s29.5 19.167 37.5 34.5s13.833 33.666 17.5 54.999s5.5 49.333 5.5 84v1165h-111c-43.333 0 -80.166 -2.5 -110.499 -7.5s-56.666 -14.667 -78.999 -29
s-40.166 -30 -53.499 -47s-24.833 -41.667 -34.5 -74s-17 -64.666 -22 -96.999s-10.167 -75.166 -15.5 -128.499h-47c4 42.667 6 98.667 6 168c0 80 -5 167.333 -15 262z" />
    <glyph glyph-name="U" unicode="U" horiz-adv-x="1397" 
d="M55 1409l0.00195312 41c58 -4 145.333 -6 262 -6c110 0 197 2 261 6v-41c-37.333 -1.33301 -65.833 -4.16602 -85.5 -8.49902s-36.167 -13.166 -49.5 -26.499s-21.833 -30.5 -25.5 -51.5s-5.5 -50.833 -5.5 -89.5v-678c0 -52.667 1.33301 -98.167 4 -136.5
s7.66699 -78.5 15 -120.5s18.5 -77.167 33.5 -105.5s34 -54.5 57 -78.5s52.5 -41.833 88.5 -53.5s77.667 -17.5 125 -17.5c75.333 0 139.166 13 191.499 39s92.833 63.667 121.5 113s49.167 104.5 61.5 165.5s18.5 131.833 18.5 212.5v639c0 74 -13.333 124.5 -40 151.5
s-75.334 42.167 -146.001 45.5v41c49.333 -4 119 -6 209 -6c82 0 145.333 2 190 6v-41c-68 -2.66699 -112.5 -17 -133.5 -43s-31.5 -77.333 -31.5 -154v-616c0 -194 -28 -338.667 -84 -434c-34.667 -58.667 -85.167 -105.167 -151.5 -139.5s-140.833 -51.5 -223.5 -51.5
c-150 0 -264.667 37 -344 111c-60 56 -100.333 119.333 -121 190s-31 176.667 -31 318v643c0 38.667 -1.83301 68.5 -5.5 89.5s-12.167 38.167 -25.5 51.5s-29.833 22.166 -49.5 26.499s-48.167 7.16602 -85.5 8.49902z" />
    <glyph glyph-name="V" unicode="V" horiz-adv-x="1290" 
d="M-12 1409v40.9971c55.333 -4 128.333 -6 219 -6c118 0 205.333 2 262 6v-41c-52 -2 -89.167 -8.33301 -111.5 -19s-33.5 -29.667 -33.5 -57c0 -23.333 8 -55.333 24 -96l371 -984l334 865c27.333 70.667 41 126.334 41 167.001c0 43.333 -14.667 74.5 -44 93.5
s-74.333 29.167 -135 30.5v41c78 -4 156.667 -6 236 -6c62 0 113.333 2 154 6v-41c-68.667 -15.333 -122.667 -74.666 -162 -177.999l-481 -1241h-17h-16l-500 1288c-33.333 84.667 -80.333 128.334 -141 131.001z" />
    <glyph glyph-name="W" unicode="W" horiz-adv-x="1853" 
d="M-14 1409l0.00195312 40.999c55.333 -4 128.333 -6 219 -6c98 0 171.667 2 221 6v-41c-36 -2.66699 -61.667 -9.33398 -77 -20.001s-23 -27.667 -23 -51c0 -22 7.33301 -55.667 22 -101l300 -913l248 793l-54 161c-28 84.667 -68.333 128.334 -121 131.001v41
c49.333 -4 115.666 -6 198.999 -6c116.667 0 204 2 262 6v-41c-26.667 -1.33301 -47.167 -2.83301 -61.5 -4.5s-28.333 -5 -42 -10s-23.167 -12.167 -28.5 -21.5s-8 -21.666 -8 -36.999c0 -22.667 7 -55.667 21 -99l294 -911l253 792c22 69.333 33 124.333 33 165
c0 45.333 -13.833 77.333 -41.5 96s-72.167 28.667 -133.5 30v41c78 -4 156.667 -6 236 -6c61.333 0 112.666 2 153.999 6v-41c-76 -16.667 -130 -76 -162 -178l-387 -1241h-17h-16l-356 1055l-326 -1055h-16h-17l-434 1288c-29.333 84 -76.333 127.667 -141 131z" />
    <glyph glyph-name="X" unicode="X" horiz-adv-x="1298" 
d="M33 0v41c76.667 10.667 153.667 73.334 231 188.001l309 461l-401 615c-25.333 39.333 -46.833 65.666 -64.5 78.999s-41.834 21 -72.501 23v43c93.333 -5.33301 152 -8 176 -8c91.333 0 187.666 2.66699 288.999 8v-43c-91.333 0 -137 -15 -137 -45
c0 -10.667 6 -25.667 18 -45l319 -488l201 301c59.333 88.667 89 154.334 89 197.001c0 28.667 -13.167 49.167 -39.5 61.5s-66.166 19.166 -119.499 20.499v41c78 -4 156.667 -6 236 -6c75.333 0 133.333 2 174 6v-41c-41.333 -6 -80.5 -24.5 -117.5 -55.5
s-74.833 -75.167 -113.5 -132.5l-287 -428l424 -648c25.333 -39.333 46.833 -65.666 64.5 -78.999s41.834 -21 72.501 -23v-43c-93.333 5.33301 -152 8 -176 8c-46 0 -142.333 -2.66699 -289 -8v43c53.333 0 91 2.33301 113 7s33 13.334 33 26.001
c0 9.33301 -5 21.666 -15 36.999l-350 536l-221 -330c-52 -77.333 -78 -137.333 -78 -180c0 -34.667 15.5 -59.334 46.5 -74.001s76.167 -22.667 135.5 -24v-41c-76.667 4 -168.667 6 -276 6c-75.333 0 -133.333 -2 -174 -6z" />
    <glyph glyph-name="Y" unicode="Y" horiz-adv-x="1210" 
d="M-6 1407l-0.00292969 43.001c53.333 -4 113.333 -6 180 -6c132.667 0 228.334 2 287.001 6v-43c-96 0 -144 -26.333 -144 -79c0 -20 7 -43.667 21 -71l341 -653l261 520c37.333 75.333 56 134 56 176c0 38.667 -15 66.167 -45 82.5s-75.333 25.166 -136 26.499v41
c78 -4 156.667 -6 236 -6c60.667 0 111.667 2 153 6v-41c-27.333 -6 -54 -23.167 -80 -51.5s-54 -71.833 -84 -130.5l-321 -637v-373c0 -38.667 1.83301 -68.5 5.5 -89.5s12.167 -38.167 25.5 -51.5s29.833 -22.166 49.5 -26.499s48.167 -7.16602 85.5 -8.49902v-41
c-64 4 -150.667 6 -260 6c-117.333 0 -205 -2 -263 -6v41c37.333 1.33301 65.833 4.16602 85.5 8.49902s36.167 13.166 49.5 26.499s21.833 30.5 25.5 51.5s5.5 50.833 5.5 89.5v309l-415 766c-25.333 46 -47.166 76.667 -65.499 92s-36.166 23 -53.499 23z" />
    <glyph glyph-name="Z" unicode="Z" horiz-adv-x="1217" 
d="M86 0v41.001l854 1362h-430c-64.667 0 -116.834 -6.16699 -156.501 -18.5s-71.834 -34.833 -96.501 -67.5s-42.667 -71.167 -54 -115.5s-21 -104.833 -29 -181.5h-47c4 42.667 6 98.667 6 168c0 77.333 -4.66699 164.666 -14 261.999c100.667 -4 270.667 -6 510 -6
c232 0 397.667 2 497 6v-41l-847 -1362h432c64.667 0 116.834 6.16699 156.501 18.5s71.834 34.833 96.501 67.5s42.667 71.167 54 115.5s21 104.833 29 181.5h47c-4.66699 -50 -7 -106 -7 -168c0 -70.667 5 -158 15 -262c-101.333 4 -271.333 6 -510 6
c-233.333 0 -402 -2 -506 -6z" />
    <glyph glyph-name="bracketleft" unicode="[" horiz-adv-x="606" 
d="M188 -371v1952h351v-39h-166v-1874h166v-39h-351z" />
    <glyph glyph-name="backslash" unicode="\" horiz-adv-x="762" 
d="M68 1479h67l557 -1508h-67z" />
    <glyph glyph-name="bracketright" unicode="]" horiz-adv-x="606" 
d="M67 -332h166v1874h-166v39h351v-1952h-351v39z" />
    <glyph glyph-name="asciicircum" unicode="^" horiz-adv-x="1098" 
d="M147 688c87.333 42 165 98.333 233 169s118 145.334 150 224.001h37c32.667 -78.667 83 -153.334 151 -224.001s145.333 -127 232 -169l-16 -29c-82.667 30 -162.667 67.333 -240 112s-139.333 89.334 -186 134.001c-38.667 -44.667 -89.167 -89.334 -151.5 -134.001
s-126.5 -82 -192.5 -112z" />
    <glyph glyph-name="underscore" unicode="_" horiz-adv-x="1210" 
d="M141 -235h928v-82h-928v82z" />
    <glyph glyph-name="grave" unicode="`" horiz-adv-x="457" 
d="M42 1608c0 22.667 9.33301 41.665 28 56.998c12.667 10 27.334 15 44.001 15c29.333 0 55.666 -15.333 78.999 -46c19.333 -25.333 50.333 -79.166 93 -161.499s86 -158.166 130 -227.499l-23 -18c-56 60 -118.833 120.5 -188.5 181.5s-114.5 104.167 -134.5 129.5
c-18.667 24.667 -28 48 -28 70z" />
    <glyph glyph-name="a" unicode="a" horiz-adv-x="1020" 
d="M80 215c0 39.333 7 74.334 21 105.001s36.833 58.667 68.5 84s65.334 47.5 101.001 66.5s82.167 40.5 139.5 64.5c8.66699 4 23.167 10 43.5 18s34.666 13.833 42.999 17.5l37.5 16.5c16.667 7.33301 28.5 13.166 35.5 17.499l28 17c11.667 7 20 13.333 25 19
s10.5 12.334 16.5 20.001s10.167 15.5 12.5 23.5s3.5 16.333 3.5 25v127c0 79.333 -16.5 133.5 -49.5 162.5s-79.833 43.5 -140.5 43.5c-96.667 0 -164.334 -24.333 -203.001 -73c27.333 -6.66699 50.166 -21.167 68.499 -43.5s27.5 -49.5 27.5 -81.5
c0 -34.667 -10.833 -61.834 -32.5 -81.501s-50.834 -29.5 -87.501 -29.5c-34.667 0 -61.834 11.667 -81.501 35s-29.5 54 -29.5 92c0 53.333 32 102 96 146c78.667 51.333 174.334 77 287.001 77c114 0 196.667 -25.667 248 -77c31.333 -32 52.833 -69.167 64.5 -111.5
s17.5 -100.833 17.5 -175.5v-569c0 -34 4.83301 -58.667 14.5 -74s25.834 -23 48.501 -23c28 0 58.667 14.333 92 43l23 -35c-24 -18 -42.667 -31.333 -56 -40s-31.666 -16.667 -54.999 -24s-48.666 -11 -75.999 -11c-66 0 -111.833 16.5 -137.5 49.5
s-38.5 77.167 -38.5 132.5c-40 -66 -88 -112.833 -144 -140.5s-113 -41.5 -171 -41.5c-74 0 -135.833 19.333 -185.5 58s-74.5 95.667 -74.5 171zM260 248.001c0 -59.333 14.998 -104.171 44.998 -134.504s69.667 -45.5 119 -45.5c90.667 0 167.667 51.667 231 155v402
c-10 -15.333 -26.667 -29.666 -50 -42.999s-72 -38 -146 -74c-28.667 -14 -52.167 -26.667 -70.5 -38s-38.666 -27.166 -60.999 -47.499s-39.166 -45.166 -50.499 -74.499s-17 -62.666 -17 -99.999z" />
    <glyph glyph-name="b" unicode="b" horiz-adv-x="1153" 
d="M8 1538l-0.00195312 43.0039c43.333 -4 85.666 -6 126.999 -6c88 0 159 9.66699 213 29v-740c30 69.333 73.167 123.166 129.5 161.499s119.833 57.5 190.5 57.5c116 0 209.833 -47.833 281.5 -143.5s107.5 -233.5 107.5 -413.5c0 -89.333 -12.167 -169.833 -36.5 -241.5
s-57.666 -130 -99.999 -175s-90.666 -79.333 -144.999 -103s-112.833 -35.5 -175.5 -35.5c-50 0 -98.667 10.167 -146 30.5s-88.666 50.166 -123.999 89.499l-146 -124l-34 15c9.33301 33.333 14 72.666 14 117.999v1258c0 63.333 -11.5 109.166 -34.5 137.499
s-63.5 42.5 -121.5 42.5zM347.998 120.004c66 -68 144.667 -101.999 236 -101.999c92 0 160.667 41.5 206 124.5s68 210.833 68 383.5c0 166.667 -20.5 291 -61.5 373s-103.833 123 -188.5 123c-57.333 0 -110 -22.333 -158 -67s-82 -107.334 -102 -188.001v-647z" />
    <glyph glyph-name="c" unicode="c" horiz-adv-x="995" 
d="M94 514c0 168 44.4971 304.83 133.497 410.497s203.5 158.5 343.5 158.5c92 0 171.333 -21.667 238 -65c64 -43.333 96 -96 96 -158c0 -36 -10.167 -64.167 -30.5 -84.5s-46.166 -30.5 -77.499 -30.5c-32 0 -58.833 9.16699 -80.5 27.5s-32.5 43.5 -32.5 75.5
c0 29.333 8.16699 53.833 24.5 73.5s36.833 32.834 61.5 39.501c-13.333 24.667 -37.666 45.167 -72.999 61.5s-72.333 24.5 -111 24.5c-28.667 0 -56.167 -4.83301 -82.5 -14.5s-52.5 -26.667 -78.5 -51s-48.667 -55 -68 -92s-34.833 -85 -46.5 -144
s-17.5 -125.833 -17.5 -200.5c0 -88 7.83301 -164.167 23.5 -228.5s37.5 -114.833 65.5 -151.5s59 -63.5 93 -80.5s71.667 -25.5 113 -25.5c58 0 113.5 17 166.5 51s96.5 87.333 130.5 160l39 -14c-10.667 -35.333 -26 -69 -46 -101s-45 -62.167 -75 -90.5
s-67.167 -51 -111.5 -68s-92.5 -25.5 -144.5 -25.5c-63.333 0 -122.666 12.667 -177.999 38s-103.333 60.833 -144 106.5s-72.667 102.834 -96 171.501s-35 144.334 -35 227.001z" />
    <glyph glyph-name="d" unicode="d" horiz-adv-x="1190" 
d="M98 526l0.000976562 6.99902c0 88 12 167 36 237c25.333 72 59.666 130.333 102.999 175s92.5 78.834 147.5 102.501s113.833 35.5 176.5 35.5c114.667 0 196.667 -40.333 246 -121v398c0 63.333 -11.5 109.166 -34.5 137.499s-63.5 42.5 -121.5 42.5v43
c43.333 -4 85.666 -6 126.999 -6c88 0 159 9.66699 213 29v-1383c0 -63.333 11.5 -109.166 34.5 -137.499s63.5 -42.5 121.5 -42.5v-43c-43.333 4 -85.666 6 -126.999 6c-88 0 -159 -9.66699 -213 -29v182c-51.333 -125.333 -148.333 -188 -291 -188
c-131.333 0 -234 47 -308 141s-110.667 232 -110 414zM297.001 525.999l-0.000976562 -7c-0.666992 -160.667 22.333 -281.667 69 -363c46.667 -82.667 116.334 -123.667 209.001 -123c53.333 0 101.5 20.667 144.5 62s72.167 99.333 87.5 174v609
c-38 105.333 -114.333 158 -229 158c-84 0 -152 -43.333 -204 -130c-51.333 -85.333 -77 -210 -77 -374v-6z" />
    <glyph glyph-name="e" unicode="e" horiz-adv-x="1036" 
d="M94 502c0 179.333 41.835 321.001 125.502 425.001s196.167 156 337.5 156c122.667 0 217.167 -37.167 283.5 -111.5s99.5 -187.166 99.5 -338.499h-640c-4.66699 -36.667 -7 -80.334 -7 -131.001c0 -134 31.333 -241.667 94 -323s135.667 -122 219 -122
c137.333 0 237.666 68.333 300.999 205l41 -16c-24.667 -75.333 -70.834 -140 -138.501 -194s-149.167 -81 -244.5 -81c-146 0 -261 48.667 -345 146s-126 225.666 -126 384.999zM297.002 672.001l446 -0.000976562c0.666992 11.333 1 22.333 1 33
c0 91.333 -15.333 169 -46 233c-34 70.667 -83.667 106 -149 106c-64.667 0 -120.167 -31.167 -166.5 -93.5s-74.833 -155.166 -85.5 -278.499z" />
    <glyph glyph-name="f" unicode="f" horiz-adv-x="680" 
d="M53 1012l0.000976562 40.9961h164c0 120 7.66699 212.833 23 278.5s42.666 121.5 81.999 167.5c26.667 32 61.334 57.167 104.001 75.5s89 27.5 139 27.5c70 0 129.333 -18.667 178 -56c42.667 -34.667 64 -77 64 -127c0 -31.333 -10.167 -57.166 -30.5 -77.499
s-46.5 -30.5 -78.5 -30.5c-31.333 0 -57.833 10 -79.5 30s-32.5 46.667 -32.5 80c0 28 7.83301 51.167 23.5 69.5s36.5 30.166 62.5 35.499c-4 12.667 -15 23.334 -33 32.001s-40.667 13 -68 13c-60.667 0 -105 -25.333 -133 -76
c-15.333 -27.333 -25.333 -68.166 -30 -122.499s-7 -143.166 -7 -266.499v-53h220v-41h-220v-801c0 -63.333 18 -107.166 54 -131.499s90.333 -36.5 163 -36.5v-43c-168 5.33301 -273 8 -315 8c-33.333 0 -114 -2.66699 -242 -8v43c57.333 0 97.666 10.5 120.999 31.5
s35 59.5 35 115.5v822h-164z" />
    <glyph glyph-name="g" unicode="g" horiz-adv-x="1061" 
d="M39 -197c0 46.667 24.5 91.668 73.5 135.001s110.167 81.666 183.5 114.999h-7c-22 0 -43.167 1.83301 -63.5 5.5s-42 10.5 -65 20.5s-41.5 26.167 -55.5 48.5s-21 49.5 -21 81.5c0 46.667 19.5 91 58.5 133s104.833 84 197.5 126
c-126.667 49.333 -190 146.666 -190 291.999c0 72.667 16.833 133.667 50.5 183s78.167 85 133.5 107s120 33 194 33c52.667 0 101 -6 145 -18c14 76 38 136.667 72 182c36.667 45.333 83.334 68 140.001 68c34 0 60.5 -10 79.5 -30s28.5 -45.667 28.5 -77
c0 -28 -9.33301 -51.333 -28 -70s-42 -28 -70 -28c-34.667 0 -59.667 10.5 -75 31.5s-26.666 53.5 -33.999 97.5c-20 -18 -38.333 -51.333 -55 -100c-10.667 -36 -17.667 -64.333 -21 -85c131.333 -48.667 197 -146.667 197 -294c0 -108 -34.833 -189 -104.5 -243
s-161.167 -81 -274.5 -81c-56.667 0 -107 6.33301 -151 19c-55.333 -29.333 -97.833 -56.5 -127.5 -81.5s-44.5 -51.833 -44.5 -80.5c0 -45.333 32.667 -68 98 -68h481c71.333 0 129.166 -15 173.499 -45s66.5 -78.333 66.5 -145c0 -37.333 -7 -75.166 -21 -113.499
s-36.333 -76 -67 -113s-67.834 -69.667 -111.501 -98s-97.667 -51.333 -162 -69s-134.833 -26.5 -211.5 -26.5c-71.333 0 -137.5 6.83301 -198.5 20.5s-111.833 35 -152.5 64s-61 63.5 -61 103.5zM207 -153.999c0 -44 15.8311 -81.333 47.498 -112
s69.334 -52.334 113.001 -65.001s89.834 -19 138.501 -19c44.667 0 88.667 6 132 18s83.5 29.333 120.5 52s67 53 90 91s34.5 80.667 34.5 128c0 40 -11 69 -33 87s-63 27 -123 27h-381c-43.333 -22 -77.333 -52.167 -102 -90.5s-37 -77.166 -37 -116.499zM341.998 760.001
c0 -104 15.833 -177.833 47.5 -221.5s77.834 -65.5 138.501 -65.5c61.333 0 107.833 21.667 139.5 65s47.5 117.333 47.5 222s-15.833 178.667 -47.5 222s-78.167 65 -139.5 65c-60.667 0 -106.834 -21.833 -138.501 -65.5s-47.5 -117.5 -47.5 -221.5z" />
    <glyph glyph-name="h" unicode="h" horiz-adv-x="1204" 
d="M41 0l0.00488281 43.001c57.333 0 97.666 10.5 120.999 31.5s35 59.5 35 115.5v1168c0 63.333 -11.5 109.166 -34.5 137.499s-63.5 42.5 -121.5 42.5v43c43.333 -4 85.666 -6 126.999 -6c88 0 159 9.66699 213 29v-766c34 86.667 81.5 149.167 142.5 187.5
s129.5 57.5 205.5 57.5c95.333 0 167.666 -25.667 216.999 -77c26 -28 44.5 -62.5 55.5 -103.5s16.5 -96.167 16.5 -165.5v-547c0 -56 11.667 -94.5 35 -115.5s63.666 -31.5 120.999 -31.5v-43c-128 5.33301 -210 8 -246 8c-38.667 0 -115.334 -2.66699 -230.001 -8v43
c50.667 0 86 10.5 106 31.5s30 59.5 30 115.5v592c0 36 -1.83301 66.5 -5.5 91.5s-11 49.333 -22 73s-28 41.5 -51 53.5s-52.167 18 -87.5 18c-84 0 -152.833 -34.667 -206.5 -104s-80.5 -158.333 -80.5 -267v-457c0 -56 10 -94.5 30 -115.5s55 -31.5 105 -31.5v-43
c-114.667 5.33301 -191 8 -229 8c-38.667 0 -120.667 -2.66699 -246 -8z" />
    <glyph glyph-name="i" unicode="i" horiz-adv-x="600" 
d="M59 0l0.00195312 43c57.333 0 97.666 10.5 120.999 31.5s35 59.5 35 115.5v641c0 63.333 -11.5 109.333 -34.5 138s-63.5 43 -121.5 43v43c42.667 -4 85 -6 127 -6c86.667 0 157.667 9.33301 213 28v-887c0 -56 11.667 -94.5 35 -115.5s63.666 -31.5 120.999 -31.5v-43
c-125.333 5.33301 -208 8 -248 8s-122.667 -2.66699 -248 -8zM162.002 1436c0 35.333 12.833 66 38.5 92s56.5 39 92.5 39c35.333 0 66 -13 92 -39s39 -56.667 39 -92c0 -36 -13 -66.833 -39 -92.5s-56.667 -38.5 -92 -38.5c-36 0 -66.833 12.833 -92.5 38.5
s-38.5 56.5 -38.5 92.5z" />
    <glyph glyph-name="j" unicode="j" horiz-adv-x="547" 
d="M-131 -260c0 31.333 9.83301 56.834 29.5 76.501s45.167 29.5 76.5 29.5c32.667 0 58.667 -8.33301 78 -25s29 -41.667 29 -75c0 -46.667 -26 -79.334 -78 -98.001c8 -1.33301 19.667 -2 35 -2c47.333 0 85.666 15.667 114.999 47c31.333 39.333 47 97.333 47 174v964
c0 63.333 -11.5 109.333 -34.5 138s-63.5 43 -121.5 43v43c42.667 -4 85 -6 127 -6c86.667 0 157.667 9.33301 213 28v-841c0 -111.333 -7.5 -208.5 -22.5 -291.5s-43.833 -151.167 -86.5 -204.5c-31.333 -40.667 -69.166 -71.667 -113.499 -93s-88.833 -32 -133.5 -32
c-48 0 -86.333 10.333 -115 31c-30 22.667 -45 54 -45 94zM141 1425c0 36 13 66.833 39 92.5s56.667 38.5 92 38.5c36 0 66.833 -12.833 92.5 -38.5s38.5 -56.5 38.5 -92.5c0 -35.333 -12.833 -66 -38.5 -92s-56.5 -39 -92.5 -39c-35.333 0 -66 13 -92 39s-39 56.667 -39 92
z" />
    <glyph glyph-name="k" unicode="k" horiz-adv-x="1126" 
d="M41 0l0.00585938 43.0039c57.333 0 97.666 10.5 120.999 31.5s35 59.5 35 115.5v1170c0 63.333 -11.5 109.166 -34.5 137.499s-63.5 42.5 -121.5 42.5v43c43.333 -4 85.666 -6 126.999 -6c88 0 159 9.66699 213 29v-1017c40 5.33301 73.333 14.666 100 27.999
s52 32.333 76 57l152 157c43.333 45.333 65 83 65 113c0 46.667 -50.333 70 -151 70v41c94.667 -5.33301 171.667 -8 231 -8c64 0 123.333 2.66699 178 8v-41c-66.667 -6 -128 -38 -184 -96l-249 -262l370 -506c25.333 -34.667 48.333 -60.167 69 -76.5
s45.334 -26.5 74.001 -30.5v-43c-82.667 5.33301 -138 8 -166 8c-36.667 0 -112.334 -2.66699 -227.001 -8v43c19.333 0 34.666 3.66699 45.999 11s17 16.666 17 27.999c0 9.33301 -4 19.666 -12 30.999l-235 344c-24.667 34.667 -47.334 58 -68.001 70
s-49.334 18.667 -86.001 20v-357c0 -56 10 -94.5 30 -115.5s55 -31.5 105 -31.5v-43c-114.667 5.33301 -190.334 8 -227.001 8c-40 0 -122.667 -2.66699 -248 -8z" />
    <glyph glyph-name="l" unicode="l" horiz-adv-x="586" 
d="M45 0l0.00195312 43.001c57.333 0 97.666 10.5 120.999 31.5s35 59.5 35 115.5v1170c0 63.333 -11.5 109.166 -34.5 137.499s-63.5 42.5 -121.5 42.5v43c42.667 -4 85 -6 127 -6c88 0 159 9.66699 213 29v-1416c0 -56 11.667 -94.5 35 -115.5s63.666 -31.5 120.999 -31.5
v-43c-125.333 5.33301 -208 8 -248 8s-122.667 -2.66699 -248 -8z" />
    <glyph glyph-name="m" unicode="m" horiz-adv-x="1819" 
d="M59 0l0.00878906 42.9971c57.333 0 97.666 10.5 120.999 31.5s35 59.5 35 115.5v641c0 63.333 -11.5 109.333 -34.5 138s-63.5 43 -121.5 43v43c42.667 -4 85 -6 127 -6c86.667 0 157.667 9.33301 213 28v-241c33.333 84 80 146.167 140 186.5s125.333 60.5 196 60.5
c92.667 0 163.667 -25.667 213 -77c34 -36.667 55 -91.667 63 -165c23.333 59.333 54.166 107.666 92.499 144.999s77.666 62.833 117.999 76.5s83.833 20.5 130.5 20.5c92.667 0 163.667 -25.667 213 -77c24.667 -27.333 42 -62.166 52 -104.499s15 -97.166 15 -164.499
v-547c0 -56 11.667 -94.5 35 -115.5s63.666 -31.5 120.999 -31.5v-43c-125.333 5.33301 -207.333 8 -246 8c-38 0 -114.333 -2.66699 -229 -8v43c50 0 85 10.5 105 31.5s30 59.5 30 115.5v592c0 30.667 -0.666992 55.5 -2 74.5s-4.83301 39.833 -10.5 62.5
s-13.834 40.334 -24.501 53.001s-26 23.5 -46 32.5s-44.333 13.5 -73 13.5c-79.333 0 -145.166 -35.5 -197.499 -106.5s-78.5 -159.167 -78.5 -264.5v-457c0 -56 11.5 -94.5 34.5 -115.5s63.167 -31.5 120.5 -31.5v-43c-125.333 5.33301 -207 8 -245 8
c-38.667 0 -115.334 -2.66699 -230.001 -8v43c50 0 85 10.5 105 31.5s30 59.5 30 115.5v592c0 30.667 -0.666992 55.5 -2 74.5s-4.83301 39.833 -10.5 62.5s-13.834 40.334 -24.501 53.001s-25.834 23.5 -45.501 32.5s-43.834 13.5 -72.501 13.5
c-79.333 0 -145.333 -35.833 -198 -107.5s-79 -160.167 -79 -265.5v-455c0 -56 10 -94.5 30 -115.5s55.333 -31.5 106 -31.5v-43c-114.667 5.33301 -191.334 8 -230.001 8s-120.667 -2.66699 -246 -8z" />
    <glyph glyph-name="n" unicode="n" horiz-adv-x="1223" 
d="M59 0l0.00683594 42.998c57.333 0 97.666 10.5 120.999 31.5s35 59.5 35 115.5v641c0 63.333 -11.5 109.333 -34.5 138s-63.5 43 -121.5 43v43c42.667 -4 85 -6 127 -6c86.667 0 157.667 9.33301 213 28v-241c34 86.667 81.5 149.5 142.5 188.5s129.833 58.5 206.5 58.5
c95.333 0 167.666 -25.667 216.999 -77c25.333 -28 43.5 -62.5 54.5 -103.5s16.5 -96.167 16.5 -165.5v-547c0 -56 11.667 -94.5 35 -115.5s63.666 -31.5 120.999 -31.5v-43c-125.333 5.33301 -207.333 8 -246 8c-38 0 -114.333 -2.66699 -229 -8v43c50 0 85 10.5 105 31.5
s30 59.5 30 115.5v592c0 28.667 -1 53.334 -3 74.001s-6.33301 41.834 -13 63.501s-15.834 39.167 -27.501 52.5s-27.834 24.333 -48.501 33s-45.334 13 -74.001 13c-84.667 0 -153.667 -35.667 -207 -107s-80 -160 -80 -266v-455c0 -56 10 -94.5 30 -115.5
s55.333 -31.5 106 -31.5v-43c-114.667 5.33301 -191.334 8 -230.001 8s-120.667 -2.66699 -246 -8z" />
    <glyph glyph-name="o" unicode="o" horiz-adv-x="1122" 
d="M96 526c0 77.333 7.83105 147 23.498 209s37.334 114.5 65.001 157.5s61.167 78.833 100.5 107.5s81.833 49.667 127.5 63s95.167 20 148.5 20s102.833 -6.66699 148.5 -20s88.167 -34.333 127.5 -63s72.833 -64.5 100.5 -107.5s49.334 -95.5 65.001 -157.5
s23.5 -131.667 23.5 -209c0 -95.333 -11.833 -179.166 -35.5 -251.499s-57 -130.333 -100 -174s-92 -76.167 -147 -97.5s-115.833 -32 -182.5 -32s-127.5 10.667 -182.5 32s-104 53.833 -147 97.5s-76.333 101.667 -100 174s-35.5 156.166 -35.5 251.499zM294.998 526
c0 -175.333 23.833 -304.833 71.5 -388.5s112.5 -125.5 194.5 -125.5s146.833 41.833 194.5 125.5s71.5 213.167 71.5 388.5c0 176 -23.833 306 -71.5 390s-112.5 126 -194.5 126s-146.833 -42 -194.5 -126s-71.5 -214 -71.5 -390z" />
    <glyph glyph-name="p" unicode="p" horiz-adv-x="1190" 
d="M45 1012l-0.000976562 43c42.667 -4 85 -6 127 -6c86.667 0 157.667 9.33301 213 28v-216c30.667 70.667 74.834 125.334 132.501 164.001s122.834 58 195.501 58c111.333 0 202.666 -44.667 273.999 -134s107 -214 107 -374c0 -60.667 -5.5 -119.5 -16.5 -176.5
s-28.667 -111.667 -53 -164s-54.333 -97.833 -90 -136.5s-80 -69.5 -133 -92.5s-111.833 -34.5 -176.5 -34.5c-52 0 -99 10.167 -141 30.5s-75 47.166 -99 80.499v-262c0 -55.333 16.333 -93.833 49 -115.5s82 -32.5 148 -32.5v-43c-180 6 -278.333 9 -295 9
c-18 0 -91.667 -3 -221 -9v43c50 0 85 9.16699 105 27.5s30 51.5 30 99.5v1032c0 63.333 -11.5 109.333 -34.5 138s-63.5 43 -121.5 43zM384.999 150c44 -88 116.333 -132 217 -132c195.333 0 293 176.333 293 529c0 316.667 -79.333 475 -238 475
c-62 0 -117.5 -22.167 -166.5 -66.5s-84.167 -108.5 -105.5 -192.5v-613z" />
    <glyph glyph-name="q" unicode="q" horiz-adv-x="1153" 
d="M96 526c0 90.667 11.333 171.835 34 243.502s53.834 130.167 93.501 175.5s86 79.666 139 102.999s110.5 35 172.5 35c69.333 0 127.166 -11.833 173.499 -35.5s84.5 -61.5 114.5 -113.5l66.5 70.5l79.5 82.5l35 -14c-10 -33.333 -15 -73 -15 -119v-1155
c0 -48 10 -81.167 30 -99.5s55 -27.5 105 -27.5v-43c-129.333 6 -203 9 -221 9c-16.667 0 -115 -3 -295 -9v43c66 0 115.333 10.833 148 32.5s49 60.167 49 115.5v353c-27.333 -64.667 -66.166 -114.5 -116.499 -149.5s-107.166 -52.5 -170.499 -52.5
c-59.333 0 -114.333 11.5 -165 34.5s-95.334 57 -134.001 102s-68.834 103.167 -90.501 174.5s-32.5 152.666 -32.5 243.999zM295 526.001c0 -163.333 24.168 -286.333 72.501 -369s118.5 -124 210.5 -124c50 0 95.833 20.5 137.5 61.5s71.5 99.5 89.5 175.5v629
c-52.667 91.333 -137.334 137 -254.001 137c-82.667 0 -146 -42.5 -190 -127.5s-66 -212.5 -66 -382.5z" />
    <glyph glyph-name="r" unicode="r" horiz-adv-x="911" 
d="M59 0l-0.00195312 42.999c57.333 0 97.666 10.5 120.999 31.5s35 59.5 35 115.5v641c0 63.333 -11.5 109.333 -34.5 138s-63.5 43 -121.5 43v43c42.667 -4 85 -6 127 -6c86.667 0 157.667 9.33301 213 28v-256c24.667 68 63.834 128.667 117.501 182s113.5 80 179.5 80
c54.667 0 99.5 -15.667 134.5 -47s52.5 -69.333 52.5 -114c0 -36 -10.667 -66.5 -32 -91.5s-49.666 -37.5 -84.999 -37.5c-30 0 -55.667 9.5 -77 28.5s-32 44.833 -32 77.5c0 44.667 23.333 81.667 70 111c-9.33301 13.333 -23.666 20 -42.999 20
c-40.667 0 -79.5 -12.833 -116.5 -38.5s-67.333 -58 -91 -97s-42.5 -80.667 -56.5 -125s-21 -85.833 -21 -124.5v-434c0 -63.333 18 -107.166 54 -131.499s90.333 -36.5 163 -36.5v-43c-168 5.33301 -273 8 -315 8c-36 0 -116.667 -2.66699 -242 -8z" />
    <glyph glyph-name="s" unicode="s" horiz-adv-x="913" 
d="M113 -14c5.33301 78 7.99707 214.332 7.99707 408.999h47c6 -49.333 12.833 -92 20.5 -128s18.5 -71 32.5 -105s31 -61.333 51 -82s45.167 -37.167 75.5 -49.5s65.5 -18.5 105.5 -18.5c48 0 90.333 15.833 127 47.5s55 80.834 55 147.501
c0 23.333 -4.16699 45.5 -12.5 66.5s-18.166 39.167 -29.499 54.5s-28.5 32.333 -51.5 51s-43.667 34.167 -62 46.5l-76.5 49.5l-49.5 31.5l-45 30c-22.333 15 -37.5 25.833 -45.5 32.5l-38 32c-17.333 14.667 -29.333 26.667 -36 36l-27 37.5
c-11.333 15.667 -19.166 30.334 -23.499 44.001s-8.33301 29.167 -12 46.5s-5.5 35.333 -5.5 54c0 86.667 28.833 152.334 86.5 197.001s129.834 67 216.501 67s161 -25 223 -75c14.667 -11.333 26.667 -17 36 -17c24 0 39.333 30 46 90h47
c-5.33301 -66.667 -8 -182.667 -8 -348h-47c-34 207.333 -127 311 -279 311c-49.333 0 -89.666 -13.833 -120.999 -41.5s-47 -66.167 -47 -115.5c0 -17.333 2.16699 -33.5 6.5 -48.5s11.666 -29.5 21.999 -43.5s20.333 -26.333 30 -37s24 -22.834 43 -36.501l47 -33
c12.333 -8.33301 31.166 -20.333 56.499 -36l58 -36.5l89.5 -60c23 -16 48 -36 75 -60s47.833 -46.833 62.5 -68.5s27.167 -47.167 37.5 -76.5s15.5 -60.333 15.5 -93c0 -60.667 -16.5 -113.167 -49.5 -157.5s-75.5 -77 -127.5 -98s-109.667 -31.5 -173 -31.5
c-60.667 0 -114.667 9.66699 -162 29c-26.667 13.333 -54.667 31.666 -84 54.999c-5.33301 5.33301 -11.666 8 -18.999 8c-20 0 -34 -25.667 -42 -77h-47z" />
    <glyph glyph-name="t" unicode="t" horiz-adv-x="725" 
d="M8 1012v41h197v313c76.667 2 138 11.667 184 29v-342h303v-41h-303v-793c0 -62 11 -106.5 33 -133.5s54.667 -40.5 98 -40.5c42.667 0 79 17 109 51s55.333 90 76 168l40 -10c-33.333 -188.667 -122 -283 -266 -283c-84 0 -148.667 22.667 -194 68
c-29.333 30 -50 66.833 -62 110.5s-18 102.5 -18 176.5v686h-197z" />
    <glyph glyph-name="u" unicode="u" horiz-adv-x="1190" 
d="M33 1012l-0.00390625 43.001c42.667 -4 85 -6 127 -6c86 0 157 9.33301 213 28v-805c0 -30.667 0.666992 -55.5 2 -74.5s4.83301 -39.833 10.5 -62.5s13.834 -40.334 24.501 -53.001s25.834 -23.334 45.501 -32.001s43.834 -13 72.501 -13
c79.333 0 145.333 35.5 198 106.5s79 159.167 79 264.5v423c0 63.333 -11.5 109.333 -34.5 138s-63.5 43 -121.5 43v43c42.667 -4 85 -6 127 -6c86.667 0 157.667 9.33301 213 28v-856c0 -63.333 11.5 -109.166 34.5 -137.499s63.5 -42.5 121.5 -42.5v-43
c-43.333 4 -85.666 6 -126.999 6c-88 0 -159 -9.66699 -213 -29v242c-33.333 -84 -79.833 -146 -139.5 -186s-125.167 -60 -196.5 -60c-92 0 -163 26 -213 78c-45.333 48.667 -68 138 -68 268v514c0 63.333 -11.333 109.333 -34 138s-63 43 -121 43z" />
    <glyph glyph-name="v" unicode="v" horiz-adv-x="1001" 
d="M-4 1012l-0.00292969 43c70.667 -5.33301 130.667 -8 180 -8c104.667 0 193.334 2.66699 266.001 8v-43c-17.333 0 -30.166 -0.166992 -38.499 -0.5s-19.333 -1 -33 -2s-24 -3 -31 -6s-14.333 -7 -22 -12s-13 -11.667 -16 -20s-4.5 -18.166 -4.5 -29.499
c0 -22.667 7.33301 -52.667 22 -90l252 -623l226 592c14.667 37.333 22 69 22 95c0 31.333 -12 54.666 -36 69.999s-62.333 24.666 -115 27.999v41c70.667 -4 128 -6 172 -6c60 0 111.667 2 155 6v-41c-27.333 -3.33301 -51.666 -15.666 -72.999 -36.999
s-41.333 -57 -60 -107l-336 -880h-34l-377 907c-32 76.667 -71.667 115 -119 115z" />
    <glyph glyph-name="w" unicode="w" horiz-adv-x="1577" 
d="M0 1012l-0.00195312 42.9971c57.333 -8.66699 117.333 -13 180 -13c60.667 0 149.334 4.33301 266.001 13v-43c-21.333 0 -36.666 -0.166992 -45.999 -0.5s-21.666 -1.66602 -36.999 -3.99902s-26.333 -6 -33 -11s-12.834 -12.5 -18.501 -22.5s-8.5 -22.333 -8.5 -37
c0 -25.333 7 -57.666 21 -96.999l205 -589l294 812h47l314 -829l192 587c12.667 40 19 71 19 93c0 32.667 -11.833 56.667 -35.5 72s-62.5 24.666 -116.5 27.999v41c72 -4 129.333 -6 172 -6c60.667 0 112.667 2 156 6v-41c-28.667 -3.33301 -54 -15.666 -76 -36.999
s-41 -57 -57 -107l-297 -880h-35l-325 824l-292 -824h-34l-336 907c-10 26 -20.667 47.333 -32 64s-22.5 28.334 -33.5 35.001s-20.333 11 -28 13s-16.167 3 -25.5 3z" />
    <glyph glyph-name="x" unicode="x" horiz-adv-x="1063" 
d="M43 0l-0.000976562 41.002c26.667 3.33301 54 15.666 82 36.999s60.667 56.666 98 105.999l236 311l-285 414c-27.333 39.333 -49.166 65.5 -65.499 78.5s-36.833 21.167 -61.5 24.5v43c72 -5.33301 120.667 -8 146 -8c46 0 126.333 2.66699 241 8v-43
c-22 0 -40.833 -4.16699 -56.5 -12.5s-23.5 -19.5 -23.5 -33.5c0 -8 2.66699 -16 8 -24l219 -319l142 198c41.333 58 62 101 62 129c0 36.667 -39 58 -117 64v41c70.667 -4 128 -6 172 -6c60 0 111.667 2 155 6v-41c-55.333 -6.66699 -115.333 -54.667 -180 -144l-207 -286
l301 -439c24 -34.667 44.667 -59.167 62 -73.5s39 -23.833 65 -28.5v-43c-69.333 5.33301 -117.666 8 -144.999 8c-46.667 0 -127.334 -2.66699 -242.001 -8v43c22 0 41 4.33301 57 13s24 19.667 24 33c0 7.33301 -3 15.333 -9 24l-233 340l-150 -195
c-38 -48.667 -57 -89.667 -57 -123c0 -56 50.333 -87.333 151 -94v-41c-72 4 -149.667 6 -233 6c-60.667 0 -112.667 -2 -156 -6z" />
    <glyph glyph-name="y" unicode="y" horiz-adv-x="1032" 
d="M-8 1012l-0.00292969 43c64 -8.66699 131 -13 201 -13c58.667 0 147.334 4.33301 266.001 13v-43c-20 0 -35 -0.166992 -45 -0.5s-22.5 -1.66602 -37.5 -3.99902s-26 -5.83301 -33 -10.5s-13.333 -11.667 -19 -21s-8.5 -21 -8.5 -35
c0 -24.667 8.66699 -58.334 26 -101.001l247 -612l226 593c14.667 40 22 71.333 22 94c0 32 -12.167 55.667 -36.5 71s-63.166 24.666 -116.499 27.999v41c72 -4 129.333 -6 172 -6c61.333 0 113.333 2 156 6v-41c-27.333 -3.33301 -51.666 -15.666 -72.999 -36.999
s-41.333 -57 -60 -107l-336 -880l-70 -178c-26 -67.333 -55.333 -115.333 -88 -144c-38.667 -35.333 -92 -53 -160 -53c-40.667 0 -74 10.833 -100 32.5s-39 51.834 -39 90.501c0 32.667 9.66699 58.834 29 78.501s46 29.5 80 29.5c30 0 54.833 -8.33301 74.5 -25
s29.5 -40.334 29.5 -71.001c0 -40.667 -18.333 -71.334 -55 -92.001c2.66699 -1.33301 6.66699 -2 12 -2c75.333 0 133.333 53.333 174 160l73 187l-372 894c-38 76.667 -84.333 115 -139 115z" />
    <glyph glyph-name="z" unicode="z" horiz-adv-x="975" 
d="M78 -10l592.002 1034h-226c-91.333 0 -159.333 -25.5 -204 -76.5s-71.334 -135.5 -80.001 -253.5h-47c0 180.667 -3 303.667 -9 369c107.333 -5.33301 234.333 -8 381 -8c130.667 0 268.667 3.33301 414 10l-592 -1034h225c173.333 0 268.333 109.667 285 329h47
c0 -178 2.66699 -300.667 8 -368c-106.667 5.33301 -233.334 8 -380.001 8c-130.667 0 -268.667 -3.33301 -414 -10z" />
    <glyph glyph-name="braceleft" unicode="{" horiz-adv-x="623" 
d="M55 594l-0.000976562 37.002h11c25.333 1.33301 46.666 7.33301 63.999 18s32 27 44 49s21.333 52.667 28 92s11.5 85.666 14.5 138.999s4.5 119.666 4.5 198.999c0 122 11.167 216.833 33.5 284.5s58.166 116.167 107.499 145.5s118.333 44 207 44v-39
c-24 -0.666992 -43.5 -2.83398 -58.5 -6.50098s-29.167 -11.167 -42.5 -22.5s-23.5 -26.166 -30.5 -44.499s-13.167 -44.166 -18.5 -77.499s-8.83301 -72.333 -10.5 -117s-2.5 -100.334 -2.5 -167.001c0 -71.333 -5.5 -134.833 -16.5 -190.5s-25.167 -101.5 -42.5 -137.5
s-39.166 -67 -65.499 -93s-52.666 -45.833 -78.999 -59.5s-56.166 -25.5 -89.499 -35.5c33.333 -10 63.166 -21.833 89.499 -35.5s52.666 -33.667 78.999 -60s48.166 -57.333 65.499 -93s31.5 -81.334 42.5 -137.001s16.5 -119.167 16.5 -190.5
c0 -69.333 0.833008 -127 2.5 -173s5.16699 -86 10.5 -120s11.333 -60.167 18 -78.5s16.834 -33 30.501 -44s27.834 -18 42.501 -21s34.334 -4.83301 59.001 -5.5v-39c-67.333 0 -122.333 7.33301 -165 22s-78 40.5 -106 77.5s-47.833 86 -59.5 147
s-17.5 139.167 -17.5 234.5c0 99.333 -2.16699 179 -6.5 239s-12.5 109.667 -24.5 149s-27.667 66.833 -47 82.5s-45 24.834 -77 27.501h-11z" />
    <glyph glyph-name="bar" unicode="|" horiz-adv-x="455" 
d="M186 -399v2156h82v-2156h-82z" />
    <glyph glyph-name="braceright" unicode="}" horiz-adv-x="623" 
d="M54 -346c24.667 0.666992 44.333 2.49805 59 5.49805s28.834 10 42.501 21s23.834 25.667 30.501 44s12.667 44.5 18 78.5s8.83301 74 10.5 120s2.5 103.667 2.5 173c0 71.333 5.5 134.833 16.5 190.5s25.167 101.334 42.5 137.001s39.166 66.667 65.499 93
s52.666 46.333 78.999 60s56.166 25.5 89.499 35.5c-33.333 10 -63.166 21.833 -89.499 35.5s-52.666 33.5 -78.999 59.5s-48.166 57 -65.499 93s-31.5 81.833 -42.5 137.5s-16.5 119.167 -16.5 190.5c0 66.667 -0.833008 122.334 -2.5 167.001s-5.16699 83.667 -10.5 117
s-11.5 59.166 -18.5 77.499s-17.167 33.166 -30.5 44.499s-27.5 18.833 -42.5 22.5s-34.5 5.83398 -58.5 6.50098v39c88.667 0 157.667 -14.667 207 -44s85.166 -77.833 107.499 -145.5s33.5 -162.5 33.5 -284.5c0 -79.333 1.5 -145.666 4.5 -198.999
s7.83301 -99.666 14.5 -138.999s16 -70 28 -92s26.667 -38.333 44 -49s38.666 -16.667 63.999 -18h11v-37h-11c-32 -2.66699 -57.667 -11.834 -77 -27.501s-35 -43.167 -47 -82.5s-20.167 -89 -24.5 -149s-6.5 -139.667 -6.5 -239c0 -95.333 -5.83301 -173.5 -17.5 -234.5
s-31.5 -110 -59.5 -147s-63.333 -62.833 -106 -77.5s-97.667 -22 -165 -22v39z" />
    <glyph glyph-name="asciitilde" unicode="~" horiz-adv-x="1329" 
d="M152 530c8 66 39.332 118.833 93.999 158.5s119.334 59.5 194.001 59.5c44.667 0 91.167 -8.16699 139.5 -24.5s90.166 -34.5 125.499 -54.5s76.333 -38.167 123 -54.5s91 -24.5 133 -24.5c89.333 0 150.666 39.667 183.999 119l35 -11c-8 -66 -39.5 -118.667 -94.5 -158
s-119.833 -59 -194.5 -59c-44.667 0 -91.167 8.16699 -139.5 24.5s-90.166 34.5 -125.499 54.5s-76.166 38.167 -122.499 54.5s-90.5 24.5 -132.5 24.5c-90 0 -151.667 -39.667 -185 -119z" />
    <glyph glyph-name="uni00A0" unicode="&#xa0;" horiz-adv-x="510" 
 />
    <glyph glyph-name="cent" unicode="&#xa2;" horiz-adv-x="971" 
d="M69 514c0 157.333 39.6641 288.001 118.997 392.001s182.666 162.333 309.999 175v369h45v-367h3c92 0 171.333 -21.667 238 -65c64 -43.333 96 -96 96 -158c0 -36 -10.167 -64.167 -30.5 -84.5s-46.166 -30.5 -77.499 -30.5c-32 0 -58.833 9.16699 -80.5 27.5
s-32.5 43.5 -32.5 75.5c0 29.333 8.16699 53.833 24.5 73.5s36.833 32.834 61.5 39.501c-13.333 24.667 -37.666 45.167 -72.999 61.5s-72.333 24.5 -111 24.5l-18 -1v-986l20 -1c58 0 113.5 17 166.5 51s96.5 87.333 130.5 160l39 -14
c-10.667 -34.667 -25.5 -67.5 -44.5 -98.5s-42.667 -60.333 -71 -88s-63.166 -50.334 -104.499 -68.001s-86.666 -27.834 -135.999 -30.501v-342h-45v343c-124 6 -226.5 58 -307.5 156s-121.5 226.667 -121.5 386zM267.997 545.001
c0 -147.333 20.833 -259.666 62.5 -336.999s97.5 -124.333 167.5 -141v971c-31.333 -8.66699 -60 -23.834 -86 -45.501s-50.167 -51.5 -72.5 -89.5s-39.833 -87.5 -52.5 -148.5s-19 -130.833 -19 -209.5z" />
    <glyph glyph-name="sterling" unicode="&#xa3;" horiz-adv-x="1233" 
d="M72 -8c0 20 19.665 47.3398 58.998 82.0068s81 60 125 76c9.33301 44 15.5 92.167 18.5 144.5s4.5 130.166 4.5 233.499v80h-158v41h158v164h-158v41h158v45c0 405.333 151.333 608 454 608c80.667 0 145 -18.333 193 -55c40.667 -32.667 61 -70.334 61 -113.001
c0 -28.667 -9.5 -52.5 -28.5 -71.5s-41.5 -28.5 -67.5 -28.5c-24.667 0 -46.5 8.66699 -65.5 26s-28.5 39.333 -28.5 66c0 47.333 22.333 79.333 67 96c-2.66699 13.333 -17.167 25 -43.5 35s-54.166 15 -83.499 15c-26 0 -49.833 -2.33301 -71.5 -7
s-40.667 -12.167 -57 -22.5s-31.166 -21.333 -44.499 -33s-24.833 -27.167 -34.5 -46.5s-18 -37.333 -25 -54s-12.667 -37.834 -17 -63.501s-7.83301 -48.334 -10.5 -68.001s-4.5 -44.667 -5.5 -75s-1.66699 -55.666 -2 -75.999s-0.5 -46.833 -0.5 -79.5v-98h297v-41h-297
v-164h297v-41h-298c-2.66699 -81.333 -14.5 -154 -35.5 -218s-53.167 -134 -96.5 -210c58 27.333 116.667 41 176 41c46 0 114.167 -15.333 204.5 -46s162.166 -46 215.499 -46c46 0 80.667 11.167 104 33.5s35 50.166 35 83.499c0 46 -15.667 84.167 -47 114.5
s-73.666 50.833 -126.999 61.5l8 33c72 -11.333 133.667 -39.333 185 -84s77 -102 77 -172c0 -62 -19.667 -115.5 -59 -160.5s-94 -67.5 -164 -67.5c-36.667 0 -74.667 7.16699 -114 21.5s-73.5 30.666 -102.5 48.999s-62.167 38.166 -99.5 59.499s-70 36.666 -98 45.999
c-28.667 11.333 -62 17 -100 17c-38.667 0 -76.334 -7 -113.001 -21c-31.333 -54 -65.666 -96.167 -102.999 -126.5s-74 -45.5 -110 -45.5c-21.333 0 -32 7 -32 21z" />
    <glyph glyph-name="yen" unicode="&#xa5;" horiz-adv-x="1325" 
d="M55 1407l-0.00292969 43.001c53.333 -4 113.333 -6 180 -6c132.667 0 228.334 2 287.001 6v-43c-96 0 -144 -26.333 -144 -79c0 -20 7 -43.667 21 -71l340 -651h2l260 518c37.333 75.333 56 134 56 176c0 38.667 -15 66.167 -45 82.5s-75.333 25.166 -136 26.499v41
c78 -4 156.667 -6 236 -6c61.333 0 112.333 2 153 6v-41c-27.333 -6 -54 -23.167 -80 -51.5s-54 -71.833 -84 -130.5l-313 -621h279v-41h-287v-164h287v-41h-287v-143c0 -38.667 1.83301 -68.5 5.5 -89.5s12.167 -38.167 25.5 -51.5s29.833 -22.166 49.5 -26.499
s48.167 -7.16602 85.5 -8.49902v-41c-64 4 -150.667 6 -260 6c-117.333 0 -205 -2 -263 -6v41c37.333 1.33301 65.833 4.16602 85.5 8.49902s36.167 13.166 49.5 26.499s21.833 30.5 25.5 51.5s5.5 50.833 5.5 89.5v143h-286v41h286v125l-21 39h-265v41h243l-372 686
c-25.333 46 -47.166 76.667 -65.499 92s-36.166 23 -53.499 23z" />
    <glyph glyph-name="dieresis" unicode="&#xa8;" horiz-adv-x="799" 
d="M63 1403c0 32 11.833 59.833 35.5 83.5s51.5 35.5 83.5 35.5s59.833 -12 83.5 -36s35.5 -51.667 35.5 -83c0 -32.667 -11.833 -60.667 -35.5 -84s-51.5 -35 -83.5 -35c-32.667 0 -60.667 11.667 -84 35s-35 51.333 -35 84zM498 1403c0 32 11.667 59.833 35 83.5
s51 35.5 83 35.5s59.833 -12 83.5 -36s35.5 -51.667 35.5 -83c0 -32.667 -11.833 -60.667 -35.5 -84s-51.5 -35 -83.5 -35c-32.667 0 -60.5 11.667 -83.5 35s-34.5 51.333 -34.5 84z" />
    <glyph glyph-name="copyright" unicode="&#xa9;" horiz-adv-x="1831" 
d="M100 786c0 110.667 21.5 216.334 64.5 317.001s100.833 187.5 173.5 260.5s159.334 131 260.001 174s206.334 64.5 317.001 64.5s216.334 -21.5 317.001 -64.5s187.5 -101 260.5 -174s131 -159.833 174 -260.5s64.5 -206.334 64.5 -317.001
s-21.5 -216.334 -64.5 -317.001s-101 -187.334 -174 -260.001s-159.833 -130.5 -260.5 -173.5s-206.334 -64.5 -317.001 -64.5s-216.334 21.5 -317.001 64.5s-187.334 100.833 -260.001 173.5s-130.5 159.334 -173.5 260.001s-64.5 206.334 -64.5 317.001zM182 786
c0 -101.333 19.334 -198.166 58.001 -290.499s90.667 -172 156 -239s143.333 -120.333 234 -160s185.667 -59.5 285 -59.5c100 0 195.333 19.833 286 59.5s168.667 93 234 160s117.333 146.667 156 239s58 189.166 58 290.499c0 102 -19.333 199.167 -58 291.5
s-90.834 172 -156.501 239s-143.667 120.333 -234 160s-185.5 59.5 -285.5 59.5c-99.333 0 -194.333 -19.833 -285 -59.5s-168.667 -93 -234 -160s-117.333 -146.667 -156 -239s-58 -189.5 -58 -291.5zM471.001 774c0 168 44.3311 304.832 132.998 410.499
s204 158.5 346 158.5c100.667 0 182.667 -23.667 246 -71c57.333 -40 86 -90.667 86 -152c0 -35.333 -10.167 -63.166 -30.5 -83.499s-46.166 -30.5 -77.499 -30.5c-32 0 -58.833 10 -80.5 30s-32.5 46.667 -32.5 80c0 28 7.66699 51 23 69s36.333 30 63 36
c-13.333 24.667 -37.666 45.167 -72.999 61.5s-72.333 24.5 -111 24.5c-67.333 0 -126.333 -26.667 -177 -80c-77.333 -85.333 -116 -228 -116 -428c0 -85.333 7.83301 -159.666 23.5 -222.999s37.334 -113.333 65.001 -150s58.5 -63.667 92.5 -81s71.333 -26 112 -26
c59.333 0 115.5 17 168.5 51s96.5 87.333 130.5 160l38 -14c-10.667 -35.333 -25.834 -69 -45.501 -101s-44.5 -62.167 -74.5 -90.5s-66.833 -51 -110.5 -68s-91.5 -25.5 -143.5 -25.5c-131.333 0 -240 49.167 -326 147.5s-129 230.166 -129 395.499z" />
    <glyph glyph-name="guillemotleft" unicode="&#xab;" horiz-adv-x="1028" 
d="M66 526l0.000976562 1.99805c105.333 58.667 195.5 133.167 270.5 223.5s141.833 200.833 200.5 331.5l34 -14c-47.333 -127.333 -99 -231.833 -155 -313.5s-121.667 -155.167 -197 -220.5c73.333 -64 138.166 -139.167 194.499 -225.5s108.833 -194.166 157.5 -323.499
l-34 -15c-58.667 130.667 -125.5 241.334 -200.5 332.001s-165.167 165 -270.5 223zM424.001 525.998l0.000976562 1.99902c105.333 58.667 195.5 133.167 270.5 223.5s141.833 200.833 200.5 331.5l35 -14c-48 -127.333 -99.833 -231.833 -155.5 -313.5
s-121.167 -155.167 -196.5 -220.5c73.333 -64 138.166 -139 194.499 -225s108.833 -194 157.5 -324l-35 -15c-58.667 130.667 -125.5 241.334 -200.5 332.001s-165.167 165 -270.5 223z" />
    <glyph glyph-name="uni00AD" unicode="&#xad;" 
d="M141 492v118h740v-118h-740z" />
    <glyph glyph-name="registered" unicode="&#xae;" horiz-adv-x="1389" 
d="M123 1030c0 103.333 25.5 199 76.5 287s120.333 157.5 208 208.5s183.167 76.5 286.5 76.5s199 -25.5 287 -76.5s157.5 -120.5 208.5 -208.5s76.5 -183.667 76.5 -287s-25.5 -198.833 -76.5 -286.5s-120.5 -157 -208.5 -208s-183.667 -76.5 -287 -76.5
s-198.833 25.5 -286.5 76.5s-157 120.333 -208 208s-76.5 183.167 -76.5 286.5zM209 1030c0 -90.667 21.5 -174.834 64.5 -252.501s101.833 -139.334 176.5 -185.001s156 -68.5 244 -68.5c88.667 0 170.334 22.833 245.001 68.5s133.5 107.334 176.5 185.001
s64.5 161.834 64.5 252.501c0 91.333 -21.5 175.666 -64.5 252.999s-101.833 138.833 -176.5 184.5s-156.334 68.5 -245.001 68.5s-170.167 -22.833 -244.5 -68.5s-133 -107.167 -176 -184.5s-64.5 -161.666 -64.5 -252.999zM438 721l0.000976562 31.001
c20 2 32.833 7.33301 38.5 16s8.5 28.334 8.5 59.001v449c0 32 -2.83301 52.5 -8.5 61.5s-18.5 14.5 -38.5 16.5v30c16.667 -1.33301 49.667 -2 99 -2c28.667 0 63.667 0.333008 105 1s65 1 71 1c76.667 0 135.334 -14 176.001 -42s61 -67.667 61 -119
c0 -92.667 -66 -150.667 -198 -174c54 -6 92.667 -18.333 116 -37s38.333 -46 45 -82l25 -117l3 -14.5l3 -14.5c0.666992 -3.33301 1.66699 -7.5 3 -12.5s2.83301 -8.66699 4.5 -11l5.5 -8c2 -3 4.5 -5 7.5 -6s6.5 -1.5 10.5 -1.5c10 0 18 5.66699 24 17l21 -14
c-14 -28.667 -44 -43 -90 -43c-34.667 0 -60.334 6.5 -77.001 19.5s-28.667 34.167 -36 63.5l-35 152c-8 38.667 -22.333 63.667 -43 75s-66.334 17.666 -137.001 18.999v-207c0 -30.667 2.83301 -50.334 8.5 -59.001s18.5 -14 38.5 -16v-31c-8 0 -24 0.333008 -48 1
s-42.667 1 -56 1c-16 0 -36.167 -0.333008 -60.5 -1s-39.833 -1 -46.5 -1zM602.001 1067l49.001 0.000976562c67.333 0 112.833 11.667 136.5 35s35.5 56.666 35.5 99.999c0 52.667 -10.833 91.167 -32.5 115.5s-58.5 36.5 -110.5 36.5
c-32.667 0 -53.834 -4.33301 -63.501 -13s-14.5 -27 -14.5 -55v-219z" />
    <glyph glyph-name="acute" unicode="&#xb4;" horiz-adv-x="457" 
d="M41 1245c44 69.333 87.334 145.168 130.001 227.501s73.667 136.166 93 161.499c23.333 30.667 49.333 46 78 46c17.333 0 32.333 -5 45 -15c18.667 -15.333 28 -34.333 28 -57c0 -22 -9.33301 -45.333 -28 -70c-20 -25.333 -64.833 -68.5 -134.5 -129.5
s-132.834 -121.5 -189.501 -181.5z" />
    <glyph glyph-name="cedilla" unicode="&#xb8;" horiz-adv-x="467" 
d="M20 -362l9 36c28 -4 53.667 -6 77 -6c49.333 0 92.5 7.16699 129.5 21.5s55.5 37.833 55.5 70.5c0 38.667 -28.667 58 -86 58c-39.333 0 -73 -5 -101 -15l70 209h55l-53 -159c40.667 9.33301 81 14 121 14c38.667 0 69.167 -8.5 91.5 -25.5s33.5 -40.5 33.5 -70.5
c0 -36 -12.833 -66.333 -38.5 -91s-55.167 -41.667 -88.5 -51s-68.333 -14 -105 -14c-70 0 -126.667 7.66699 -170 23z" />
    <glyph glyph-name="guillemotright" unicode="&#xbb;" horiz-adv-x="1026" 
d="M98 -16c48 127.333 99.8311 231.667 155.498 313s121.5 155 197.5 221c-73.333 64 -138.166 139 -194.499 225s-109.166 194 -158.499 324l35 14c58.667 -130.667 125.5 -241.167 200.5 -331.5s165.167 -164.833 270.5 -223.5v-2
c-105.333 -58.667 -195.5 -133.167 -270.5 -223.5s-141.833 -200.833 -200.5 -331.5zM456.998 -15.999c47.333 126.667 98.832 230.834 154.499 312.501s121.5 155.5 197.5 221.5c-73.333 64 -138.166 139.167 -194.499 225.5s-108.833 194.166 -157.5 323.499l35 14
c58 -130.667 124.5 -241.167 199.5 -331.5s165.5 -164.833 271.5 -223.5v-2c-106 -58.667 -196.5 -133.167 -271.5 -223.5s-141.5 -200.833 -199.5 -331.5z" />
    <glyph glyph-name="circumflex" unicode="&#x2c6;" horiz-adv-x="823" 
d="M51 1290c78 38.667 147.5 89.667 208.5 153s105.5 129.666 133.5 198.999h37c28 -69.333 72.5 -135.666 133.5 -198.999s130.5 -114.333 208.5 -153l-16 -28c-74 25.333 -146 56.5 -216 93.5s-126.333 73.833 -169 110.5c-34.667 -36.667 -79.5 -73.5 -134.5 -110.5
s-111.167 -68.167 -168.5 -93.5z" />
    <glyph glyph-name="ring" unicode="&#x2da;" horiz-adv-x="539" 
d="M72 1434c0 55.333 19.167 100.166 57.5 134.499s84.5 51.5 138.5 51.5c55.333 0 102.333 -17.167 141 -51.5s58 -79.166 58 -134.499c0 -56.667 -19.333 -102.334 -58 -137.001s-85.667 -52 -141 -52c-54 0 -100.167 17.333 -138.5 52s-57.5 80.334 -57.5 137.001z
M129 1432c0 -45.333 14.167 -80.666 42.5 -105.999s60.5 -38 96.5 -38c37.333 0 70.333 12.667 99 38s43 60.666 43 105.999c0 44 -14.5 79.167 -43.5 105.5s-61.833 39.5 -98.5 39.5c-35.333 0 -67.333 -13.167 -96 -39.5s-43 -61.5 -43 -105.5z" />
    <glyph glyph-name="tilde" unicode="&#x2dc;" horiz-adv-x="842" 
d="M51 1362c20.667 72 52.5 125.166 95.5 159.499s92.5 51.5 148.5 51.5c27.333 0 52.833 -4.66699 76.5 -14s44.334 -20.5 62.001 -33.5l52 -39.5c17 -13.333 35.5 -24.666 55.5 -33.999s41 -14 63 -14c62 0 114.667 36 158 108l29 -14
c-20.667 -72 -52.5 -125.167 -95.5 -159.5s-91.833 -51.5 -146.5 -51.5c-33.333 0 -65 7.16699 -95 21.5s-54.167 30 -72.5 47s-40.333 32.667 -66 47s-51.5 21.5 -77.5 21.5c-60.667 0 -113.334 -36.667 -158.001 -110z" />
    <glyph glyph-name="afii10023" unicode="&#x401;" horiz-adv-x="1247" 
d="M86 0v40.9932c49.333 2 84.833 7.33301 106.5 16s37 24.667 46 48s13.5 60.666 13.5 111.999v1016c0 51.333 -4.5 88.666 -13.5 111.999s-24.333 39.333 -46 48s-57.167 14 -106.5 16v41c134 -4 332 -6 594 -6c200.667 0 343.334 2 428.001 6
c-9.33301 -89.333 -14 -170 -14 -242c0 -53.333 2 -95.666 6 -126.999h-47c-4.66699 44.667 -9.5 80.834 -14.5 108.501s-11.833 54.834 -20.5 81.501s-19 47.334 -31 62.001s-27.667 27.834 -47 39.501s-42 19.667 -68 24s-57.333 6.5 -94 6.5h-170
c-70.667 0 -116 -10 -136 -30s-30 -66.667 -30 -140v-483h136c24.667 0 46.5 3 65.5 9s34.833 15.333 47.5 28s23.167 25.167 31.5 37.5s15.166 28.666 20.499 48.999s9.16602 36.833 11.499 49.5s4.83301 30 7.5 52s4.66699 37 6 45h47c-4.66699 -68 -7 -132.333 -7 -193
c0 -13.333 0.166992 -30.666 0.5 -51.999s0.5 -36.666 0.5 -45.999c0 -69.333 4 -166.333 12 -291h-47c-9.33301 76.667 -17 125.334 -23 146.001c-18.667 66 -57.334 105.667 -116.001 119c-16.667 4 -35.667 6 -57 6h-136v-492c0 -73.333 10 -120 30 -140
s65.333 -30 136 -30h150c64.667 0 116.834 5.83301 156.501 17.5s71.834 32.834 96.501 63.501s42.667 67.167 54 109.5s21 99.833 29 172.5h47c-4 -36.667 -6 -86 -6 -148c0 -77.333 4.66699 -164.666 14 -261.999c-92.667 4 -249 6 -469 6c-262 0 -460 -2 -594 -6z
M291 1699.99c0 32 11.667 59.833 35 83.5s51.333 35.5 84 35.5c31.333 0 59 -12 83 -36s36 -51.667 36 -83c0 -32.667 -11.833 -60.667 -35.5 -84s-51.5 -35 -83.5 -35c-33.333 0 -61.5 11.5 -84.5 34.5s-34.5 51.167 -34.5 84.5zM725 1699.99c0 32 11.833 59.833 35.5 83.5
s51.5 35.5 83.5 35.5s59.833 -12 83.5 -36s35.5 -51.667 35.5 -83c0 -32.667 -11.833 -60.667 -35.5 -84s-51.5 -35 -83.5 -35c-32.667 0 -60.667 11.667 -84 35s-35 51.333 -35 84z" />
    <glyph glyph-name="afii10051" unicode="&#x402;" horiz-adv-x="1599" 
d="M59 1450c113.333 -4 305.995 -6.00195 577.995 -6.00195c270 0 461.667 2 575 6c-9.33301 -97.333 -14 -184.666 -14 -261.999c0 -69.333 2 -125.333 6 -168h-47c-5.33301 53.333 -10.5 96 -15.5 128s-12.333 64.333 -22 97s-21.334 57.5 -35.001 74.5
s-31.5 32.667 -53.5 47s-48.167 24 -78.5 29s-67.166 7.5 -110.499 7.5h-111v-688c41.333 38.667 95 71.167 161 97.5s136.667 39.5 212 39.5c129.333 0 233 -36.667 311 -110s117 -180.666 117 -321.999c0 -76 -12.167 -143.5 -36.5 -202.5s-57.166 -106 -98.499 -141
s-87.166 -61.333 -137.499 -79s-104.166 -26.5 -161.499 -26.5c-45.333 0 -87.333 6 -126 18s-71.334 31.667 -98.001 59s-40 60.333 -40 99c0 33.333 9.33301 60.166 28 80.499s44.667 30.5 78 30.5c31.333 0 57.333 -9 78 -27s31 -42.333 31 -73
c0 -52.667 -29.333 -88.334 -88 -107.001c4 -12.667 16.5 -24 37.5 -34s45.833 -15 74.5 -15c88.667 0 154.167 33.333 196.5 100s63.5 166.334 63.5 299.001c0 48 -2.33301 90 -7 126s-13.5 71 -26.5 105s-30.5 61.667 -52.5 83s-51 38.5 -87 51.5s-78.667 19.5 -128 19.5
c-61.333 0 -119.5 -10.667 -174.5 -32s-97.167 -48.666 -126.5 -81.999v-695c-66 19.333 -156 29 -270 29c-42 0 -84.333 -2 -127 -6v41c36.667 1.33301 66 3.66602 88 6.99902s41.5 8.83301 58.5 16.5s29.5 19.167 37.5 34.5s13.833 33.666 17.5 54.999s5.5 49.333 5.5 84
v1165h-111c-43.333 0 -80.166 -2.5 -110.499 -7.5s-56.666 -14.667 -78.999 -29s-40.166 -30 -53.499 -47s-24.833 -41.667 -34.5 -74s-17 -64.666 -22 -96.999s-10.167 -75.166 -15.5 -128.499h-47c4 42.667 6 98.667 6 168c0 80 -5 167.333 -15 262z" />
    <glyph glyph-name="afii10052" unicode="&#x403;" horiz-adv-x="1081" 
d="M86 0l-0.00292969 41.001c49.333 2 84.833 7.33301 106.5 16s37 24.667 46 48s13.5 60.666 13.5 111.999v1016c0 51.333 -4.5 88.666 -13.5 111.999s-24.333 39.333 -46 48s-57.167 14 -106.5 16v41c134 -4 332 -6 594 -6c162.667 0 278 2 346 6
c-9.33301 -97.333 -14 -184.666 -14 -261.999c0 -69.333 2 -125.333 6 -168h-47c-4 39.333 -7.83301 72.166 -11.5 98.499s-8.33398 53.333 -14.001 81s-12.167 50.167 -19.5 67.5s-16.666 34.333 -27.999 51s-24.166 29.667 -38.499 39s-31.5 17.833 -51.5 25.5
s-42.5 13 -67.5 16s-53.5 4.5 -85.5 4.5h-47c-70.667 0 -116 -10 -136 -30s-30 -66.667 -30 -140v-1016c0 -38.667 2.5 -68.667 7.5 -90s15.833 -38.5 32.5 -51.5s37.167 -21.667 61.5 -26s59.5 -7.16602 105.5 -8.49902v-41c-71.333 4 -171.666 6 -300.999 6
c-117.333 0 -204.666 -2 -261.999 -6zM390.997 1608c65.333 50 132.169 106.169 200.502 168.502s116.166 102.166 143.499 119.499c20.667 13.333 41.334 20 62.001 20c26.667 0 47.667 -11.333 63 -34c7.33301 -12.667 11 -25.334 11 -38.001c0 -30 -18 -57 -54 -81
c-26.667 -16 -83.334 -40.833 -170.001 -74.5s-167.334 -69.5 -242.001 -107.5z" />
    <glyph glyph-name="afii10053" unicode="&#x404;" horiz-adv-x="1415" 
d="M109 713c0 150.667 27.6689 284.169 83.002 400.502s132.333 206.333 231 270s211 95.5 337 95.5c81.333 0 150.833 -11.667 208.5 -35s113.834 -56 168.501 -98c14.667 -12 28 -18 40 -18c28 0 45.333 40.667 52 122h47c-5.33301 -88.667 -8 -245.667 -8 -471h-47
c-14.667 89.333 -28.334 153.166 -41.001 191.499s-33.334 75.5 -62.001 111.5c-41.333 53.333 -93.666 93.333 -156.999 120s-131.666 40 -204.999 40c-134 0 -241.333 -65 -322 -195s-121 -305.333 -121 -526v-7c22.667 48 55.5 84.667 98.5 110s90.833 38 143.5 38
c32 0 64 -5.33301 96 -16s61.167 -23.667 87.5 -39l78.5 -45.5c26 -15 54.167 -27.833 84.5 -38.5s60.166 -16 89.499 -16c38 0 72.5 9.33301 103.5 28s52.5 47.334 64.5 86.001l31 -14c-18 -68 -52.5 -120.167 -103.5 -156.5s-109.5 -54.5 -175.5 -54.5
c-40.667 0 -81.5 8.16699 -122.5 24.5s-75.5 34.166 -103.5 53.499s-61.333 37.166 -100 53.499s-76.667 24.5 -114 24.5c-72 0 -124.333 -30.667 -157 -92c8 -204 54.667 -363 140 -477s192.666 -171 321.999 -171c68 0 134.333 13 199 39s115 65 151 117
c28 37.333 48 77.833 60 121.5s23.667 111.167 35 202.5h47c0 -235.333 2.66699 -399.333 8 -492h-47c-3.33301 42.667 -8.83301 73.5 -16.5 92.5s-18.834 28.5 -33.501 28.5c-10.667 0 -24.667 -5.66699 -42 -17c-62 -43.333 -120.833 -76.333 -176.5 -99
s-123.167 -34 -202.5 -34c-197.333 0 -354.833 65.833 -472.5 197.5s-176.5 313.167 -176.5 544.5z" />
    <glyph glyph-name="afii10054" unicode="&#x405;" horiz-adv-x="1106" 
d="M129 -14c5.33301 74.667 7.99805 238.328 7.99805 490.995h47c4.66699 -65.333 14.5 -124.666 29.5 -177.999s36.5 -102.166 64.5 -146.499s65.667 -78.833 113 -103.5s102.666 -37 165.999 -37c73.333 0 136 23 188 69s78 114 78 204c0 40 -7.16699 77 -21.5 111
s-37.166 66.333 -68.499 97s-63.833 57.834 -97.5 81.501s-77.5 51.834 -131.5 84.501l-95.5 59.5c-24.333 15.667 -52.5 35.5 -84.5 59.5s-57.5 46.833 -76.5 68.5s-37.667 46.667 -56 75s-31.666 58.833 -39.999 91.5s-12.5 67.667 -12.5 105c0 58.667 10.5 111 31.5 157
s49.5 83.167 85.5 111.5s76.833 49.833 122.5 64.5s94.167 22 145.5 22c42 0 80 -4.33301 114 -13s59.167 -17.334 75.5 -26.001s36.5 -21 60.5 -37c30.667 -19.333 54 -29 70 -29c12.667 0 22.334 7.16699 29.001 21.5s12 37.166 16 68.499h47
c-6.66699 -80 -10 -219.333 -10 -418h-47c-4 51.333 -13.167 99.5 -27.5 144.5s-34.5 86.667 -60.5 125s-60.167 68.666 -102.5 90.999s-90.833 33.5 -145.5 33.5c-73.333 0 -133.333 -22.167 -180 -66.5s-70 -101.5 -70 -171.5c0 -20 1.66699 -39.167 5 -57.5
s9.16602 -35.666 17.499 -51.999s16.666 -31.166 24.999 -44.499s20.333 -27.166 36 -41.499l40.5 -36.5c11.333 -10 27.833 -22.167 49.5 -36.5l52 -34l58.5 -36l60 -36.5l88.5 -56.5c23 -15 48.833 -33 77.5 -54s51.834 -40.167 69.501 -57.5s35.834 -37.5 54.501 -60.5
s33.167 -45.833 43.5 -68.5s18.833 -48 25.5 -76s10 -57.333 10 -88c0 -84 -20 -155.833 -60 -215.5s-92.167 -103.5 -156.5 -131.5s-137.166 -42 -218.499 -42c-65.333 0 -119 6.83301 -161 20.5s-81.667 32.167 -119 55.5c-30.667 19.333 -54 29 -70 29
c-12.667 0 -22.334 -7.16699 -29.001 -21.5s-12 -37.166 -16 -68.499h-47z" />
    <glyph glyph-name="afii10055" unicode="&#x406;" horiz-adv-x="694" 
d="M86 0l-0.000976562 41c49.333 2 84.833 7.33301 106.5 16s37 24.667 46 48s13.5 60.666 13.5 111.999v1016c0 51.333 -4.5 88.666 -13.5 111.999s-24.333 39.333 -46 48s-57.167 14 -106.5 16v41c56.667 -4 144 -6 262 -6c110.667 0 197.334 2 260.001 6v-41
c-49.333 -2 -84.833 -7.33301 -106.5 -16s-37 -24.667 -46 -48s-13.5 -60.666 -13.5 -111.999v-1016c0 -51.333 4.5 -88.666 13.5 -111.999s24.333 -39.333 46 -48s57.167 -14 106.5 -16v-41c-62.667 4 -149.334 6 -260.001 6c-117.333 0 -204.666 -2 -261.999 -6z" />
    <glyph glyph-name="afii10056" unicode="&#x407;" horiz-adv-x="694" 
d="M12 1700c0 32 11.667 59.833 35 83.5s51.333 35.5 84 35.5c31.333 0 59 -12 83 -36s36 -51.667 36 -83c0 -32.667 -11.833 -60.667 -35.5 -84s-51.5 -35 -83.5 -35c-32.667 0 -60.667 11.5 -84 34.5s-35 51.167 -35 84.5zM86 0l-0.000976562 41
c49.333 2 84.833 7.33301 106.5 16s37 24.667 46 48s13.5 60.666 13.5 111.999v1016c0 51.333 -4.5 88.666 -13.5 111.999s-24.333 39.333 -46 48s-57.167 14 -106.5 16v41c56.667 -4 144 -6 262 -6c110.667 0 197.334 2 260.001 6v-41
c-49.333 -2 -84.833 -7.33301 -106.5 -16s-37 -24.667 -46 -48s-13.5 -60.666 -13.5 -111.999v-1016c0 -51.333 4.5 -88.666 13.5 -111.999s24.333 -39.333 46 -48s57.167 -14 106.5 -16v-41c-62.667 4 -149.334 6 -260.001 6c-117.333 0 -204.666 -2 -261.999 -6z
M445.999 1700c0 32 11.833 59.833 35.5 83.5s51.5 35.5 83.5 35.5s59.833 -12 83.5 -36s35.5 -51.667 35.5 -83c0 -32.667 -11.833 -60.667 -35.5 -84s-51.5 -35 -83.5 -35c-32.667 0 -60.667 11.667 -84 35s-35 51.333 -35 84z" />
    <glyph glyph-name="afii10057" unicode="&#x408;" horiz-adv-x="668" 
d="M-307 -207c0 32 10.168 58.165 30.501 78.498s46.166 30.5 77.499 30.5c32.667 0 59.667 -10 81 -30s32 -47 32 -81c0 -28.667 -7.66699 -51.834 -23 -69.501s-36.333 -29.167 -63 -34.5c22 -22 65.667 -33 131 -33c59.333 0 110.5 15.333 153.5 46
s73.833 73.334 92.5 128.001c14 42.667 23.333 95.834 28 159.501s7 166.834 7 309.501v936c0 51.333 -4.5 88.666 -13.5 111.999s-24.333 39.333 -46 48s-57.167 14 -106.5 16v41c56.667 -4 144 -6 262 -6c109.333 0 196 2 260 6v-41
c-49.333 -2 -84.833 -7.33301 -106.5 -16s-37 -24.667 -46 -48s-13.5 -60.666 -13.5 -111.999v-750c0 -259.333 -11.667 -437.333 -35 -534c-23.333 -98.667 -73 -179 -149 -241s-170.333 -93 -283 -93c-66.667 0 -124 12.333 -172 37c-65.333 34 -98 81 -98 141z" />
    <glyph glyph-name="afii10058" unicode="&#x409;" horiz-adv-x="1901" 
d="M-6 111c0 35.333 11.3311 63.4951 33.998 84.4951s51.667 31.5 87 31.5c30 0 54.833 -8.16699 74.5 -24.5s29.5 -38.166 29.5 -65.499c0 -28.667 -7 -52.167 -21 -70.5s-36.333 -36.5 -67 -54.5c12.667 -1.33301 29 -2 49 -2c127.333 0 220.666 110.333 279.999 331
c39.333 147.333 69 379.666 89 696.999l12 195c1.33301 22.667 2 38 2 46c0 50.667 -11.333 84.334 -34 101.001s-67.334 26.334 -134.001 29.001v41c58 -4 128.333 -6 211 -6c20.667 0 51 1 91 3s69.667 3 89 3c34 0 81.5 -1 142.5 -3s111.167 -3 150.5 -3
c106 0 187.333 2 244 6v-41c-49.333 -2 -84.833 -7.33301 -106.5 -16s-37 -24.667 -46 -48s-13.5 -60.666 -13.5 -111.999v-473c80 1.33301 143 2 189 2c159.333 0 281.333 -34.167 366 -102.5s127 -157.833 127 -268.5c0 -39.333 -4.83301 -76.666 -14.5 -111.999
s-26.667 -70 -51 -104s-55.5 -63.5 -93.5 -88.5s-87.5 -45.333 -148.5 -61s-130.5 -24.167 -208.5 -25.5h-2h-21c-27.333 0 -64.333 1.66699 -111 5c-26.667 0.666992 -69.334 1 -128.001 1c-130 0 -230.333 -2 -301 -6v41c46 1.33301 81.167 4.16602 105.5 8.49902
s44.833 13 61.5 26s27.5 30.167 32.5 51.5s7.5 51.333 7.5 90v1016c0 74 -10.167 121.833 -30.5 143.5s-65.5 32.5 -135.5 32.5h-27c-24.667 0 -45.167 -0.833008 -61.5 -2.5s-30.666 -5.5 -42.999 -11.5s-21.666 -12.333 -27.999 -19s-11.833 -17.834 -16.5 -33.501
s-8 -30.834 -10 -45.501s-4.33301 -36 -7 -64c-3.33301 -38 -7.16602 -88.5 -11.499 -151.5l-11 -165.5c-3 -47.333 -7.5 -103 -13.5 -167s-12.333 -120.333 -19 -169s-15.667 -101.167 -27 -157.5s-23.833 -105.166 -37.5 -146.499s-30.5 -82.166 -50.5 -122.499
s-42.167 -73.166 -66.5 -98.499s-52.666 -45.666 -84.999 -60.999s-67.833 -23 -106.5 -23c-51.333 0 -95.166 11.5 -131.499 34.5s-54.5 58.167 -54.5 105.5zM1157 216.995c0 -72 9.66797 -118.499 29.001 -139.499s62.666 -33.167 129.999 -36.5
c63.333 2 116.5 12.167 159.5 30.5s75.667 44.166 98 77.499s38 69 47 107s13.5 82.333 13.5 133c0 115.333 -27.167 199.833 -81.5 253.5s-146.5 80.5 -276.5 80.5l-119 -1v-505z" />
    <glyph glyph-name="afii10059" unicode="&#x40a;" horiz-adv-x="2042" 
d="M86 0v41.0029c49.333 2 84.833 7.33301 106.5 16s37 24.667 46 48s13.5 60.666 13.5 111.999v1016c0 51.333 -4.5 88.666 -13.5 111.999s-24.333 39.333 -46 48s-57.167 14 -106.5 16v41c56.667 -4 144 -6 262 -6c110.667 0 197.334 2 260.001 6v-41
c-49.333 -2 -84.833 -7.33301 -106.5 -16s-37 -24.667 -46 -48s-13.5 -60.666 -13.5 -111.999v-483h666v483c0 51.333 -4.5 88.666 -13.5 111.999s-24.333 39.333 -46 48s-57.167 14 -106.5 16v41c64 -4 150.667 -6 260 -6c117.333 0 204.666 2 261.999 6v-41
c-49.333 -2 -84.833 -7.33301 -106.5 -16s-37 -24.667 -46 -48s-13.5 -60.666 -13.5 -111.999v-474c60 2 123 3 189 3c159.333 0 281.333 -34.167 366 -102.5s127 -157.833 127 -268.5c0 -32.667 -3.5 -63.834 -10.5 -93.501s-18 -59.334 -33 -89.001
s-35.833 -56.5 -62.5 -80.5s-58.5 -45.5 -95.5 -64.5s-82.167 -34 -135.5 -45s-113 -17.167 -179 -18.5h-2h-20c-28 0 -65.333 1.66699 -112 5c-26 0.666992 -68.667 1 -128 1c-109.333 0 -196 -2 -260 -6v41c49.333 2 84.833 7.33301 106.5 16s37 24.667 46 48
s13.5 60.666 13.5 111.999v492h-666v-492c0 -51.333 4.5 -88.666 13.5 -111.999s24.333 -39.333 46 -48s57.167 -14 106.5 -16v-41c-62.667 4 -149.334 6 -260.001 6c-117.333 0 -204.666 -2 -261.999 -6zM1298 217.003c0 -72.667 9.66895 -119.332 29.002 -139.999
s62.666 -32.667 129.999 -36c50.667 1.33301 95.167 8.5 133.5 21.5s69.166 29.667 92.499 50s42 45.666 56 75.999s23.667 61.333 29 93s8 67.5 8 107.5c0 115.333 -27.333 199.833 -82 253.5s-147 80.5 -277 80.5l-119 -1v-505z" />
    <glyph glyph-name="afii10060" unicode="&#x40b;" horiz-adv-x="1667" 
d="M59 1450c113.333 -4 305.999 -6.00098 577.999 -6.00098c270 0 461.667 2 575 6c-9.33301 -97.333 -14 -184.666 -14 -261.999c0 -69.333 2 -125.333 6 -168h-47c-5.33301 53.333 -10.5 96 -15.5 128s-12.333 64.333 -22 97s-21.334 57.5 -35.001 74.5
s-31.5 32.667 -53.5 47s-48.167 24 -78.5 29s-67.166 7.5 -110.499 7.5h-111v-606c41.333 20 98.833 37.5 172.5 52.5s144.5 22.5 212.5 22.5c112 0 199.333 -23.667 262 -71c37.333 -28.667 63.166 -63.334 77.499 -104.001s21.5 -97.667 21.5 -171v-336
c0 -56 11.5 -94.5 34.5 -115.5s63.167 -31.5 120.5 -31.5v-43c-125.333 5.33301 -209.333 8 -252 8c-38 0 -114.333 -2.66699 -229 -8v43c50 0 85 10.5 105 31.5s30 59.5 30 115.5v381c0 37.333 -2.5 68.166 -7.5 92.499s-15.167 48.5 -30.5 72.5s-39.333 41.833 -72 53.5
s-74.334 17.5 -125.001 17.5c-128 0 -234.667 -15 -320 -45v-524c0 -34.667 1.83301 -62.667 5.5 -84s9.5 -39.666 17.5 -54.999s20.5 -26.833 37.5 -34.5s36.5 -13.167 58.5 -16.5s51.333 -5.66602 88 -6.99902v-41c-72 4 -172.333 6 -301 6
c-136.667 0 -237.667 -2 -303 -6v41c36.667 1.33301 66 3.66602 88 6.99902s41.5 8.83301 58.5 16.5s29.5 19.167 37.5 34.5s13.833 33.666 17.5 54.999s5.5 49.333 5.5 84v1165h-111c-43.333 0 -80.166 -2.5 -110.499 -7.5s-56.666 -14.667 -78.999 -29
s-40.166 -30 -53.499 -47s-24.833 -41.667 -34.5 -74s-17 -64.666 -22 -96.999s-10.167 -75.166 -15.5 -128.499h-47c4 42.667 6 98.667 6 168c0 80 -5 167.333 -15 262z" />
    <glyph glyph-name="afii10061" unicode="&#x40c;" horiz-adv-x="1389" 
d="M86 0v40.998c49.333 2 84.833 7.33301 106.5 16s37 24.667 46 48s13.5 60.666 13.5 111.999v1016c0 51.333 -4.5 88.666 -13.5 111.999s-24.333 39.333 -46 48s-57.167 14 -106.5 16v41c56.667 -4 144 -6 262 -6c110.667 0 197.334 2 260.001 6v-41
c-49.333 -2 -84.833 -7.33301 -106.5 -16s-37 -24.667 -46 -48s-13.5 -60.666 -13.5 -111.999v-463c101.333 2 182 41.667 242 119l197 250c69.333 88 104 153.333 104 196c0 47.333 -42.333 72 -127 74v41c78 -4 156.667 -6 236 -6c74.667 0 132.667 2 174 6v-41
c-92.667 -13.333 -173.334 -63 -242.001 -149l-386 -491c52 -2 98.333 -8 139 -18s79.667 -25.667 117 -47s69 -51.333 95 -90s45.333 -85.667 58 -141l59 -258c15.333 -66 29.166 -110.5 41.499 -133.5s31.833 -34.5 58.5 -34.5c23.333 0 42.333 5.83301 57 17.5
s33.334 31.834 56.001 60.501l31 -23c-31.333 -44.667 -62.5 -77.667 -93.5 -99s-72.833 -32 -125.5 -32c-54.667 0 -100.167 15.833 -136.5 47.5s-64.166 89.834 -83.499 174.501l-57 253c-6.66699 30 -12.334 53.333 -17.001 70s-11 36.667 -19 60
s-16.167 41.333 -24.5 54s-19.333 26.5 -33 41.5s-28.834 26.167 -45.501 33.5s-36.667 13.5 -60 18.5s-49.666 7.5 -78.999 7.5h-136v-514c0 -51.333 4.5 -88.666 13.5 -111.999s24.333 -39.333 46 -48s57.167 -14 106.5 -16v-41c-62.667 4 -149.334 6 -260.001 6
c-117.333 0 -204.666 -2 -261.999 -6zM594 1608c65.333 50 132.169 106.169 200.502 168.502s116.166 102.166 143.499 119.499c20.667 13.333 41.334 20 62.001 20c26.667 0 47.667 -11.333 63 -34c7.33301 -12.667 11 -25.334 11 -38.001c0 -30 -18 -57 -54 -81
c-26.667 -16 -83.334 -40.833 -170.001 -74.5s-167.334 -69.5 -242.001 -107.5z" />
    <glyph glyph-name="afii10062" unicode="&#x40e;" horiz-adv-x="1325" 
d="M-4 1407l-0.00195312 43.001c52.667 -4 112.667 -6 180 -6c132.667 0 228.334 2 287.001 6v-43c-96 0 -144 -26.333 -144 -79c0 -21.333 7 -45 21 -71l417 -778l322 645c37.333 75.333 56 134 56 176c0 38.667 -15 66.167 -45 82.5s-75.333 25.166 -136 26.499v41
c78 -4 156.667 -6 236 -6c62 0 113 2 153 6v-41c-27.333 -6 -53.833 -23.167 -79.5 -51.5s-53.5 -71.833 -83.5 -130.5l-449 -894l-82 -165c-30.667 -62.667 -60.667 -108.334 -90 -137.001c-40 -40 -91 -60 -153 -60c-42.667 0 -77.334 10.833 -104.001 32.5
s-40 51.834 -40 90.501c0 32.667 10.333 59 31 79s46.667 30 78 30c30 0 54.833 -8.5 74.5 -25.5s29.5 -40.833 29.5 -71.5c0 -40 -18.333 -70.667 -55 -92c2.66699 -1.33301 6.66699 -2 12 -2c36 0 68 13.167 96 39.5s54.667 65.833 80 118.5l56 114l-549 1008
c-25.333 46 -47.166 76.667 -65.499 92s-36.166 23 -53.499 23zM263.998 1819c0 34 10.002 61.167 30.002 81.5s46.333 30.5 79 30.5s59.5 -9.83301 80.5 -29.5s31.5 -46.5 31.5 -80.5c0 -28 -7.83301 -51.167 -23.5 -69.5s-36.5 -30.166 -62.5 -35.499
c28.667 -26.667 69.667 -45.667 123 -57s106.666 -17 159.999 -17s106.5 5.66699 159.5 17s93.833 30.333 122.5 57c-26 5.33301 -46.833 17.166 -62.5 35.499s-23.5 41.5 -23.5 69.5c0 33.333 10.833 60 32.5 80s48.5 30 80.5 30s58.167 -10.167 78.5 -30.5
s30.5 -47.5 30.5 -81.5c0 -28.667 -7.83301 -54 -23.5 -76s-40.834 -43.333 -75.501 -64c-84.667 -51.333 -191 -77 -319 -77c-127.333 0 -234 25.667 -320 77c-34 20.667 -58.833 42 -74.5 64s-23.5 47.333 -23.5 76z" />
    <glyph glyph-name="afii10145" unicode="&#x40f;" horiz-adv-x="1550" 
d="M86 0l-0.00292969 40.998c49.333 2 84.833 7.33301 106.5 16s37 24.667 46 48s13.5 60.666 13.5 111.999v1016c0 51.333 -4.5 88.666 -13.5 111.999s-24.333 39.333 -46 48s-57.167 14 -106.5 16v41c56.667 -4 144 -6 262 -6c110.667 0 197.334 2 260.001 6v-41
c-49.333 -2 -84.833 -7.33301 -106.5 -16s-37 -24.667 -46 -48s-13.5 -60.666 -13.5 -111.999v-1016c0 -74 10.167 -121.833 30.5 -143.5s65.5 -32.5 135.5 -32.5h334c70 0 115.167 10.833 135.5 32.5s30.5 69.5 30.5 143.5v1016c0 51.333 -4.5 88.666 -13.5 111.999
s-24.333 39.333 -46 48s-57.167 14 -106.5 16v41c64 -4 150.667 -6 260 -6c117.333 0 204.666 2 261.999 6v-41c-49.333 -2 -84.833 -7.33301 -106.5 -16s-37 -24.667 -46 -48s-13.5 -60.666 -13.5 -111.999v-1016c0 -51.333 4.5 -88.666 13.5 -111.999
s24.333 -39.333 46 -48s57.167 -14 106.5 -16v-41c-57.333 4 -144.666 6 -261.999 6c-38 0 -93 -0.666992 -165 -2h3c-36.667 0 -67.667 -4.16699 -93 -12.5s-46 -19.666 -62 -33.999s-29.167 -36 -39.5 -65s-18.166 -59.667 -23.499 -92s-10.333 -75.166 -15 -128.499h-47
c-3.33301 38 -6.83301 69.667 -10.5 95s-8.16699 50.833 -13.5 76.5s-11.833 46.167 -19.5 61.5s-17 30 -28 44s-24.167 24.667 -39.5 32s-33 13 -53 17s-43.333 6 -70 6h1c-77.333 1.33301 -137 2 -179 2c-117.333 0 -204.666 -2 -261.999 -6z" />
    <glyph glyph-name="afii10017" unicode="&#x410;" horiz-adv-x="1290" 
d="M-14 0l0.000976562 41.002c68 15.333 121.667 74.666 161 177.999l482 1241h33l499 -1288c33.333 -84.667 80.666 -128.334 141.999 -131.001v-41c-56 4 -129.333 6 -220 6c-116.667 0 -204 -2 -262 -6v41c52 2 89.167 8.33301 111.5 19s33.5 29.667 33.5 57
c0 23.333 -8 55.333 -24 96l-126 336h-494l-84 -217c-27.333 -69.333 -41 -125.333 -41 -168c0 -43.333 14.5 -74.333 43.5 -93s73.833 -28.667 134.5 -30v-41c-78 4 -156.667 6 -236 6c-61.333 0 -112.333 -2 -153 -6zM337.001 590.002h464l-229 611z" />
    <glyph glyph-name="afii10018" unicode="&#x411;" horiz-adv-x="1221" 
d="M86 0v41.002c49.333 2 84.833 7.33301 106.5 16s37 24.667 46 48s13.5 60.666 13.5 111.999v1016c0 51.333 -4.5 88.666 -13.5 111.999s-24.333 39.333 -46 48s-57.167 14 -106.5 16v41c134 -4 332 -6 594 -6c172 0 294.333 2 367 6c-10 -87.333 -15 -168 -15 -242
c0 -53.333 2 -95.666 6 -126.999h-47c-6 53.333 -12 95.833 -18 127.5s-15 61.5 -27 89.5s-27.667 48.833 -47 62.5s-43.5 24.167 -72.5 31.5s-65.5 11 -109.5 11h-109c-70.667 0 -116 -10 -136 -30s-30 -66.667 -30 -140v-374c26.667 0 62 0.5 106 1.5s71.667 1.5 83 1.5
c160 0 282.167 -39.167 366.5 -117.5s126.5 -182.5 126.5 -312.5c0 -36.667 -3.5 -71.834 -10.5 -105.501s-18.333 -67 -34 -100s-37.5 -62.833 -65.5 -89.5s-61.167 -50.5 -99.5 -71.5s-85.5 -37.167 -141.5 -48.5s-118.333 -17 -187 -17c-18.667 0 -54 1 -106 3
s-102.667 3 -152 3c-104 0 -184.667 -2 -242 -6zM442 217.002c0 -73.333 8.33008 -120.997 24.9971 -142.997s54.334 -33 113.001 -33c54.667 0 102.334 6.83301 143.001 20.5s73.334 31.667 98.001 54s44.5 50.666 59.5 84.999s25.333 69.666 31 105.999
s8.5 77.5 8.5 123.5c0 137.333 -27.333 237.166 -82 299.499s-147 93.5 -277 93.5c-15.333 0 -55 -0.666992 -119 -2v-604z" />
    <glyph glyph-name="afii10019" unicode="&#x412;" horiz-adv-x="1276" 
d="M86 0l-0.000976562 41.0029c49.333 2 84.833 7.33301 106.5 16s37 24.667 46 48s13.5 60.666 13.5 111.999v1016c0 51.333 -4.5 88.666 -13.5 111.999s-24.333 39.333 -46 48s-57.167 14 -106.5 16v41c56.667 -4 140 -6 250 -6c49.333 0 110.666 0.666992 183.999 2
s115 2 125 2c139.333 0 246.166 -29.333 320.499 -88s111.5 -136.667 111.5 -234c0 -78.667 -24.833 -149.334 -74.5 -212.001s-128.5 -110.667 -236.5 -144v-4c78 -10.667 145 -28 201 -52s99.333 -53 130 -87s52.834 -69.833 66.501 -107.5s20.5 -78.5 20.5 -122.5
c0 -118 -44.167 -213.667 -132.5 -287s-208.166 -110 -359.499 -110c-11.333 0 -56.666 1 -135.999 3s-151.333 3 -216 3c-112 0 -196.667 -2 -254 -6zM441.999 217.003c0 -71.333 9.66699 -117.5 29 -138.5s61 -31.5 125 -31.5c255.333 0 383 119.667 383 359
c0 107.333 -29.167 189 -87.5 245s-150.833 84 -277.5 84h-172v-518zM441.999 770.003l137.999 0.000976562c58 0 107.333 8.83301 148 26.5s71.834 42.667 93.501 75s37 67.166 46 104.499s13.5 80 13.5 128c0 102.667 -22.667 179.167 -68 229.5s-118.333 75.5 -219 75.5
c-62 0 -102.833 -11.5 -122.5 -34.5s-29.5 -70.167 -29.5 -141.5v-463z" />
    <glyph glyph-name="afii10020" unicode="&#x413;" horiz-adv-x="1081" 
d="M86 0l-0.00292969 41.001c49.333 2 84.833 7.33301 106.5 16s37 24.667 46 48s13.5 60.666 13.5 111.999v1016c0 51.333 -4.5 88.666 -13.5 111.999s-24.333 39.333 -46 48s-57.167 14 -106.5 16v41c134 -4 332 -6 594 -6c162.667 0 278 2 346 6
c-9.33301 -97.333 -14 -184.666 -14 -261.999c0 -69.333 2 -125.333 6 -168h-47c-4 39.333 -7.83301 72.166 -11.5 98.499s-8.33398 53.333 -14.001 81s-12.167 50.167 -19.5 67.5s-16.666 34.333 -27.999 51s-24.166 29.667 -38.499 39s-31.5 17.833 -51.5 25.5
s-42.5 13 -67.5 16s-53.5 4.5 -85.5 4.5h-47c-70.667 0 -116 -10 -136 -30s-30 -66.667 -30 -140v-1016c0 -38.667 2.5 -68.667 7.5 -90s15.833 -38.5 32.5 -51.5s37.167 -21.667 61.5 -26s59.5 -7.16602 105.5 -8.49902v-41c-71.333 4 -171.666 6 -300.999 6
c-117.333 0 -204.666 -2 -261.999 -6z" />
    <glyph glyph-name="afii10021" unicode="&#x414;" horiz-adv-x="1288" 
d="M6 41l37 -0.000976562c128.667 0 222.667 111 282 333c38.667 144.667 68 372.334 88 683.001l9 145c0.666992 14 1.33398 24.333 2.00098 31c0.666992 10 1 23.667 1 41c0 52.667 -11 87.667 -33 105s-66.667 27.333 -134 30v41c57.333 -4 127.666 -6 210.999 -6
c20.667 0 51 1 91 3s69.667 3 89 3c34 0 81.333 -1 142 -3s111 -3 151 -3c104.667 0 186 2 244 6v-41c-49.333 -2 -84.833 -7.33301 -106.5 -16s-37 -24.667 -46 -48s-13.5 -60.666 -13.5 -111.999v-1016c0 -74 10.167 -121.833 30.5 -143.5s65.5 -32.5 135.5 -32.5h63
c-9.33301 -89.333 -14 -170 -14 -242c0 -54 2 -96.333 6 -127h-47c-4.66699 44.667 -9.5 81 -14.5 109s-11.833 55.667 -20.5 83s-19 48.5 -31 63.5s-27.5 28.5 -46.5 40.5s-41.5 20.333 -67.5 25s-57.333 7 -94 7h-584c-44 0 -80.667 -4 -110 -12s-53.5 -19 -72.5 -33
s-34.5 -35.333 -46.5 -64s-21.167 -58.834 -27.5 -90.501s-12.5 -74.5 -18.5 -128.5h-47c4 30.667 6 73 6 127c0 72 -4.66699 152.667 -14 242zM181 40.999l483.002 -0.00195312c69.333 0 114.166 10.667 134.499 32s30.5 69.333 30.5 144v1016
c0 74.667 -10.167 122.667 -30.5 144s-65.166 32 -134.499 32h-27c-21.333 0 -39.333 -0.833008 -54 -2.5s-27.834 -3.83398 -39.501 -6.50098s-21.167 -7.66699 -28.5 -15s-13.5 -14.333 -18.5 -21s-9 -17.667 -12 -33s-5.33301 -29.333 -7 -42
s-3.83398 -31.334 -6.50098 -56.001c-3.33301 -39.333 -7.5 -92.333 -12.5 -159l-13 -175.5c-3.66699 -50.333 -9 -108.833 -16 -175.5s-14.5 -125.667 -22.5 -177s-18.833 -105.166 -32.5 -161.499s-29 -105.166 -46 -146.499s-38.167 -79.666 -63.5 -114.999
s-53.333 -62.666 -84 -81.999z" />
    <glyph glyph-name="afii10022" unicode="&#x415;" horiz-adv-x="1247" 
d="M86 0v40.9932c49.333 2 84.833 7.33301 106.5 16s37 24.667 46 48s13.5 60.666 13.5 111.999v1016c0 51.333 -4.5 88.666 -13.5 111.999s-24.333 39.333 -46 48s-57.167 14 -106.5 16v41c134 -4 332 -6 594 -6c200.667 0 343.334 2 428.001 6
c-9.33301 -89.333 -14 -170 -14 -242c0 -53.333 2 -95.666 6 -126.999h-47c-4.66699 44.667 -9.5 80.834 -14.5 108.501s-11.833 54.834 -20.5 81.501s-19 47.334 -31 62.001s-27.667 27.834 -47 39.501s-42 19.667 -68 24s-57.333 6.5 -94 6.5h-170
c-70.667 0 -116 -10 -136 -30s-30 -66.667 -30 -140v-483h136c24.667 0 46.5 3 65.5 9s34.833 15.333 47.5 28s23.167 25.167 31.5 37.5s15.166 28.666 20.499 48.999s9.16602 36.833 11.499 49.5s4.83301 30 7.5 52s4.66699 37 6 45h47c-4.66699 -68 -7 -132.333 -7 -193
c0 -13.333 0.166992 -30.666 0.5 -51.999s0.5 -36.666 0.5 -45.999c0 -69.333 4 -166.333 12 -291h-47c-9.33301 76.667 -17 125.334 -23 146.001c-18.667 66 -57.334 105.667 -116.001 119c-16.667 4 -35.667 6 -57 6h-136v-492c0 -73.333 10 -120 30 -140
s65.333 -30 136 -30h150c64.667 0 116.834 5.83301 156.501 17.5s71.834 32.834 96.501 63.501s42.667 67.167 54 109.5s21 99.833 29 172.5h47c-4 -36.667 -6 -86 -6 -148c0 -77.333 4.66699 -164.666 14 -261.999c-92.667 4 -249 6 -469 6c-262 0 -460 -2 -594 -6z" />
    <glyph glyph-name="afii10024" unicode="&#x416;" horiz-adv-x="2013" 
d="M2 102l30.999 22.999c16 -20 28 -34.333 36 -43s18.667 -16.667 32 -24s28 -11 44 -11c26.667 0 46.334 11.5 59.001 34.5s26.667 67.5 42 133.5l59 258c12.667 55.333 31.834 102.333 57.501 141s57.167 68.667 94.5 90s76.333 37 117 47s87 16 139 18l-385 491
c-68.667 86 -149.334 135.667 -242.001 149v41c41.333 -4 99.333 -6 174 -6c79.333 0 158 2 236 6v-41c-84.667 -2 -127 -26.667 -127 -74c0 -42.667 34.667 -108 104 -196l197 -250c60 -77.333 140.333 -117 241 -119v463c0 38.667 -1.83301 68.5 -5.5 89.5
s-12.167 38.167 -25.5 51.5s-29.833 22.166 -49.5 26.499s-48.167 7.16602 -85.5 8.49902v41c64 -4 151 -6 261 -6c116.667 0 204 2 262 6v-41c-37.333 -1.33301 -65.833 -4.16602 -85.5 -8.49902s-36.167 -13.166 -49.5 -26.499s-21.833 -30.5 -25.5 -51.5
s-5.5 -50.833 -5.5 -89.5v-463c100.667 2 181 41.667 241 119l197 250c69.333 88 104 153.333 104 196c0 47.333 -42 72 -126 74v41c77.333 -4 155.666 -6 234.999 -6c75.333 0 133.333 2 174 6v-41c-93.333 -13.333 -173.666 -63 -240.999 -149l-386 -491
c52 -2 98.333 -8 139 -18s79.667 -25.667 117 -47s68.833 -51.333 94.5 -90s44.834 -85.667 57.501 -141l59 -258c15.333 -66 29.333 -110.5 42 -133.5s32.334 -34.5 59.001 -34.5c22.667 0 41.5 5.83301 56.5 17.5s33.5 31.834 55.5 60.501l31 -23
c-30.667 -44.667 -61.667 -77.667 -93 -99s-73.333 -32 -126 -32c-54 0 -99.167 15.833 -135.5 47.5s-64.166 89.834 -83.499 174.501l-57 253c-6.66699 30 -12.334 53.333 -17.001 70s-11 36.667 -19 60s-16.167 41.333 -24.5 54s-19.333 26.5 -33 41.5
s-28.834 26.167 -45.501 33.5s-36.834 13.5 -60.501 18.5s-50.167 7.5 -79.5 7.5h-135v-514c0 -38.667 1.83301 -68.5 5.5 -89.5s12.167 -38.167 25.5 -51.5s29.833 -22.166 49.5 -26.499s48.167 -7.16602 85.5 -8.49902v-41c-58 4 -145.333 6 -262 6
c-110 0 -197 -2 -261 -6v41c37.333 1.33301 65.833 4.16602 85.5 8.49902s36.167 13.166 49.5 26.499s21.833 30.5 25.5 51.5s5.5 50.833 5.5 89.5v514h-135c-26 0 -49.5 -1.5 -70.5 -4.5s-39.667 -8.5 -56 -16.5s-30.666 -16 -42.999 -24s-23.5 -19.5 -33.5 -34.5
s-18.333 -28.333 -25 -40s-13.334 -28.167 -20.001 -49.5s-11.834 -39.5 -15.501 -54.5l-14.5 -61.5l-58 -253c-19.333 -84.667 -47.166 -142.834 -83.499 -174.501s-81.5 -47.5 -135.5 -47.5c-52.667 0 -94.667 10.667 -126 32s-62.333 54.333 -93 99z" />
    <glyph glyph-name="afii10025" unicode="&#x417;" horiz-adv-x="1124" 
d="M72 190c0 32 10.1709 58.165 30.5039 78.498s46.166 30.5 77.499 30.5c32.667 0 59.667 -10 81 -30s32 -47 32 -81c0 -28 -7.83301 -51 -23.5 -69s-36.5 -29.667 -62.5 -35c14.667 -20.667 48.667 -38.834 102 -54.501s109.333 -23.5 168 -23.5
c117.333 0 205.666 33.333 264.999 100s89 155 89 265c0 109.333 -28.333 199 -85 269s-136 106.667 -238 110c-32.667 -18 -62 -27 -88 -27c-28.667 0 -43 11.667 -43 35c0 10 4 18 12 24s18.333 9 31 9c18 0 48 -4.33301 90 -13c90 30 152.833 74.167 188.5 132.5
s53.5 137.833 53.5 238.5c0 96.667 -17.833 169.334 -53.5 218.001s-93.834 73 -174.501 73c-50 0 -95.5 -11.167 -136.5 -33.5s-74.5 -52.5 -100.5 -90.5s-46.333 -79.833 -61 -125.5s-23.667 -93.5 -27 -143.5h-47c0 191.333 -3.66699 330.333 -11 417h47
c5.33301 -32.667 11.166 -55.834 17.499 -69.501s16.5 -20.5 30.5 -20.5s36.333 9.66699 67 29c2.66699 1.33301 9.83398 5.83301 21.501 13.5s20.167 12.834 25.5 15.501l26.5 13.5c12.333 6.33301 23.5 10.833 33.5 13.5l37 10c14.667 4 30.5 6.66699 47.5 8
s35.167 2 54.5 2c122.667 0 221.167 -27.667 295.5 -83s111.5 -130 111.5 -224c0 -44 -8.66699 -85.833 -26 -125.5s-39.833 -74 -67.5 -103s-60.167 -55.5 -97.5 -79.5s-74.333 -43.667 -111 -59s-74.334 -27.666 -113.001 -36.999
c60.667 -1.33301 119.667 -10.166 177 -26.499s109.833 -39.5 157.5 -69.5s86 -69.333 115 -118s43.5 -103 43.5 -163c0 -66 -15.5 -126 -46.5 -180s-72.833 -98.167 -125.5 -132.5s-112.5 -60.833 -179.5 -79.5s-137.5 -28 -211.5 -28c-121.333 0 -222.333 24.667 -303 74
c-64 40.667 -96 89 -96 145z" />
    <glyph glyph-name="afii10026" unicode="&#x418;" horiz-adv-x="1591" 
d="M86 0l-0.00390625 41.001c49.333 2 84.833 7.33301 106.5 16s37 24.667 46 48s13.5 60.666 13.5 111.999v1016c0 51.333 -4.5 88.666 -13.5 111.999s-24.333 39.333 -46 48s-57.167 14 -106.5 16v41c56.667 -4 144 -6 262 -6c110.667 0 197.334 2 260.001 6v-41
c-49.333 -2 -84.833 -7.33301 -106.5 -16s-37 -24.667 -46 -48s-13.5 -60.666 -13.5 -111.999v-970l706 1002c-2 58.667 -13.5 96.5 -34.5 113.5s-64.5 27.167 -130.5 30.5v41c64 -4 150.667 -6 260 -6c118 0 205.333 2 262 6v-41c-49.333 -2 -84.833 -7.33301 -106.5 -16
s-37 -24.667 -46 -48s-13.5 -60.666 -13.5 -111.999v-1016c0 -51.333 4.5 -88.666 13.5 -111.999s24.333 -39.333 46 -48s57.167 -14 106.5 -16v-41c-56.667 4 -144 6 -262 6c-109.333 0 -196 -2 -260 -6v41c49.333 2 84.833 7.33301 106.5 16s37 24.667 46 48
s13.5 60.666 13.5 111.999v969l-707 -1000c1.33301 -24.667 3.83301 -45 7.5 -61s8.83398 -29.5 15.501 -40.5s16.834 -19.333 30.501 -25s28.834 -9.83398 45.501 -12.501s39 -4.66699 67 -6v-41c-62.667 4 -149.334 6 -260.001 6c-117.333 0 -204.666 -2 -261.999 -6z" />
    <glyph glyph-name="afii10027" unicode="&#x419;" horiz-adv-x="1591" 
d="M86 0l-0.00390625 41.001c49.333 2 84.833 7.33301 106.5 16s37 24.667 46 48s13.5 60.666 13.5 111.999v1016c0 51.333 -4.5 88.666 -13.5 111.999s-24.333 39.333 -46 48s-57.167 14 -106.5 16v41c56.667 -4 144 -6 262 -6c110.667 0 197.334 2 260.001 6v-41
c-49.333 -2 -84.833 -7.33301 -106.5 -16s-37 -24.667 -46 -48s-13.5 -60.666 -13.5 -111.999v-970l706 1002c-2 58.667 -13.5 96.5 -34.5 113.5s-64.5 27.167 -130.5 30.5v41c64 -4 150.667 -6 260 -6c118 0 205.333 2 262 6v-41c-49.333 -2 -84.833 -7.33301 -106.5 -16
s-37 -24.667 -46 -48s-13.5 -60.666 -13.5 -111.999v-1016c0 -51.333 4.5 -88.666 13.5 -111.999s24.333 -39.333 46 -48s57.167 -14 106.5 -16v-41c-56.667 4 -144 6 -262 6c-109.333 0 -196 -2 -260 -6v41c49.333 2 84.833 7.33301 106.5 16s37 24.667 46 48
s13.5 60.666 13.5 111.999v969l-707 -1000c1.33301 -24.667 3.83301 -45 7.5 -61s8.83398 -29.5 15.501 -40.5s16.834 -19.333 30.501 -25s28.834 -9.83398 45.501 -12.501s39 -4.66699 67 -6v-41c-62.667 4 -149.334 6 -260.001 6c-117.333 0 -204.666 -2 -261.999 -6z
M378.996 1819c0 34 10.002 61.167 30.002 81.5s46.333 30.5 79 30.5s59.5 -9.83301 80.5 -29.5s31.5 -46.5 31.5 -80.5c0 -28 -7.83301 -51.167 -23.5 -69.5s-36.5 -30.166 -62.5 -35.499c28.667 -26.667 69.667 -45.667 123 -57s106.666 -17 159.999 -17
s106.5 5.66699 159.5 17s93.833 30.333 122.5 57c-26 5.33301 -46.833 17.166 -62.5 35.499s-23.5 41.5 -23.5 69.5c0 33.333 10.833 60 32.5 80s48.5 30 80.5 30s58.167 -10.167 78.5 -30.5s30.5 -47.5 30.5 -81.5c0 -28.667 -7.83301 -54 -23.5 -76
s-40.834 -43.333 -75.501 -64c-84.667 -51.333 -191 -77 -319 -77c-127.333 0 -234 25.667 -320 77c-34 20.667 -58.833 42 -74.5 64s-23.5 47.333 -23.5 76z" />
    <glyph glyph-name="afii10028" unicode="&#x41a;" horiz-adv-x="1389" 
d="M86 0v40.998c49.333 2 84.833 7.33301 106.5 16s37 24.667 46 48s13.5 60.666 13.5 111.999v1016c0 51.333 -4.5 88.666 -13.5 111.999s-24.333 39.333 -46 48s-57.167 14 -106.5 16v41c56.667 -4 144 -6 262 -6c110.667 0 197.334 2 260.001 6v-41
c-49.333 -2 -84.833 -7.33301 -106.5 -16s-37 -24.667 -46 -48s-13.5 -60.666 -13.5 -111.999v-463c101.333 2 182 41.667 242 119l197 250c69.333 88 104 153.333 104 196c0 47.333 -42.333 72 -127 74v41c78 -4 156.667 -6 236 -6c74.667 0 132.667 2 174 6v-41
c-92.667 -13.333 -173.334 -63 -242.001 -149l-386 -491c52 -2 98.333 -8 139 -18s79.667 -25.667 117 -47s69 -51.333 95 -90s45.333 -85.667 58 -141l59 -258c15.333 -66 29.166 -110.5 41.499 -133.5s31.833 -34.5 58.5 -34.5c23.333 0 42.333 5.83301 57 17.5
s33.334 31.834 56.001 60.501l31 -23c-31.333 -44.667 -62.5 -77.667 -93.5 -99s-72.833 -32 -125.5 -32c-54.667 0 -100.167 15.833 -136.5 47.5s-64.166 89.834 -83.499 174.501l-57 253c-6.66699 30 -12.334 53.333 -17.001 70s-11 36.667 -19 60
s-16.167 41.333 -24.5 54s-19.333 26.5 -33 41.5s-28.834 26.167 -45.501 33.5s-36.667 13.5 -60 18.5s-49.666 7.5 -78.999 7.5h-136v-514c0 -51.333 4.5 -88.666 13.5 -111.999s24.333 -39.333 46 -48s57.167 -14 106.5 -16v-41c-62.667 4 -149.334 6 -260.001 6
c-117.333 0 -204.666 -2 -261.999 -6z" />
    <glyph glyph-name="afii10029" unicode="&#x41b;" horiz-adv-x="1409" 
d="M-6 111c0 35.333 11.3301 63.4951 33.9971 84.4951s51.667 31.5 87 31.5c30 0 54.833 -8.16699 74.5 -24.5s29.5 -38.166 29.5 -65.499c0 -28.667 -7 -52.167 -21 -70.5s-36.333 -36.5 -67 -54.5c12.667 -1.33301 29 -2 49 -2c127.333 0 220.666 110.333 279.999 331
c39.333 147.333 69 379.666 89 696.999l12 195c1.33301 22.667 2 38 2 46c0 50.667 -11.333 84.334 -34 101.001s-67.334 26.334 -134.001 29.001v41c58 -4 128.333 -6 211 -6c20.667 0 51 1 91 3s69.667 3 89 3c34 0 81.5 -1 142.5 -3s111.167 -3 150.5 -3
c106 0 187.333 2 244 6v-41c-49.333 -2 -84.833 -7.33301 -106.5 -16s-37 -24.667 -46 -48s-13.5 -60.666 -13.5 -111.999v-1016c0 -51.333 4.5 -88.666 13.5 -111.999s24.333 -39.333 46 -48s57.167 -14 106.5 -16v-41c-56.667 4 -144 6 -262 6c-130 0 -230.333 -2 -301 -6
v41c46 1.33301 81.167 4.16602 105.5 8.49902s44.833 13 61.5 26s27.5 30.167 32.5 51.5s7.5 51.333 7.5 90v1016c0 74 -10.167 121.833 -30.5 143.5s-65.5 32.5 -135.5 32.5h-27c-24.667 0 -45.167 -0.833008 -61.5 -2.5s-30.666 -5.5 -42.999 -11.5
s-21.666 -12.333 -27.999 -19s-11.833 -17.834 -16.5 -33.501s-8 -30.834 -10 -45.501s-4.33301 -36 -7 -64c-3.33301 -38 -7.16602 -88.5 -11.499 -151.5l-11 -165.5c-3 -47.333 -7.5 -103 -13.5 -167s-12.333 -120.333 -19 -169s-15.667 -101.167 -27 -157.5
s-23.833 -105.166 -37.5 -146.499s-30.5 -82.166 -50.5 -122.499s-42.167 -73.166 -66.5 -98.499s-52.666 -45.666 -84.999 -60.999s-67.833 -23 -106.5 -23c-51.333 0 -95.166 11.5 -131.499 34.5s-54.5 58.167 -54.5 105.5z" />
    <glyph glyph-name="afii10030" unicode="&#x41c;" horiz-adv-x="1784" 
d="M86 0v41.001c68.667 2.66699 113.5 17.167 134.5 43.5s31.5 77.5 31.5 153.5v995c0 51.333 -4.5 88.666 -13.5 111.999s-24.333 39.333 -46 48s-57.167 14 -106.5 16v41c44.667 -4 108 -6 190 -6c72 0 130.333 2 175 6l450 -1188l440 1182h97c109.333 0 196 2 260 6v-41
c-49.333 -2 -84.833 -7.33301 -106.5 -16s-37 -24.667 -46 -48s-13.5 -60.666 -13.5 -111.999v-1016c0 -51.333 4.5 -88.666 13.5 -111.999s24.333 -39.333 46 -48s57.167 -14 106.5 -16v-41c-64 4 -150.667 6 -260 6c-117.333 0 -204.666 -2 -261.999 -6v41
c37.333 1.33301 65.666 4.16602 84.999 8.49902s35.666 13.166 48.999 26.499s21.833 30.5 25.5 51.5s5.5 50.833 5.5 89.5v1096l-493 -1323h-33l-516 1329v-1081c0 -76.667 11.5 -128 34.5 -154s73.5 -40.333 151.5 -43v-41c-49.333 4 -119 6 -209 6
c-81.333 0 -144.666 -2 -189.999 -6z" />
    <glyph glyph-name="afii10031" unicode="&#x41d;" horiz-adv-x="1550" 
d="M86 0l-0.000976562 41c49.333 2 84.833 7.33301 106.5 16s37 24.667 46 48s13.5 60.666 13.5 111.999v1016c0 51.333 -4.5 88.666 -13.5 111.999s-24.333 39.333 -46 48s-57.167 14 -106.5 16v41c56.667 -4 144 -6 262 -6c110.667 0 197.334 2 260.001 6v-41
c-49.333 -2 -84.833 -7.33301 -106.5 -16s-37 -24.667 -46 -48s-13.5 -60.666 -13.5 -111.999v-483h666v483c0 51.333 -4.5 88.666 -13.5 111.999s-24.333 39.333 -46 48s-57.167 14 -106.5 16v41c64 -4 150.667 -6 260 -6c117.333 0 204.666 2 261.999 6v-41
c-49.333 -2 -84.833 -7.33301 -106.5 -16s-37 -24.667 -46 -48s-13.5 -60.666 -13.5 -111.999v-1016c0 -51.333 4.5 -88.666 13.5 -111.999s24.333 -39.333 46 -48s57.167 -14 106.5 -16v-41c-57.333 4 -144.666 6 -261.999 6c-109.333 0 -196 -2 -260 -6v41
c49.333 2 84.833 7.33301 106.5 16s37 24.667 46 48s13.5 60.666 13.5 111.999v492h-666v-492c0 -51.333 4.5 -88.666 13.5 -111.999s24.333 -39.333 46 -48s57.167 -14 106.5 -16v-41c-62.667 4 -149.334 6 -260.001 6c-117.333 0 -204.666 -2 -261.999 -6z" />
    <glyph glyph-name="afii10032" unicode="&#x41e;" horiz-adv-x="1518" 
d="M109 713c0 150.667 27.667 284.167 83 400.5s132.333 206.333 231 270s211 95.5 337 95.5c197.333 0 354.833 -65.833 472.5 -197.5s176.5 -313.167 176.5 -544.5c0 -150.667 -27.667 -284.167 -83 -400.5s-132.333 -206.333 -231 -270s-211 -95.5 -337 -95.5
c-197.333 0 -354.833 65.833 -472.5 197.5s-176.5 313.167 -176.5 544.5zM313 721c0 -213.333 43.167 -385.5 129.5 -516.5s194.166 -196.5 323.499 -196.5c87.333 0 164.333 30.5 231 91.5s117.834 146 153.501 255s53.5 233.833 53.5 374.5
c0 213.333 -43.167 385.5 -129.5 516.5s-193.833 196.5 -322.5 196.5c-87.333 0 -164.5 -30.5 -231.5 -91.5s-118.333 -146 -154 -255s-53.5 -233.833 -53.5 -374.5z" />
    <glyph glyph-name="afii10033" unicode="&#x41f;" horiz-adv-x="1550" 
d="M86 0l-0.00390625 41c49.333 2 84.833 7.33301 106.5 16s37 24.667 46 48s13.5 60.666 13.5 111.999v1016c0 51.333 -4.5 88.666 -13.5 111.999s-24.333 39.333 -46 48s-57.167 14 -106.5 16v41c56.667 -4 144 -6 262 -6c58.667 0 138.334 1 239.001 3
s164.334 3 191.001 3s89.334 -1 188.001 -3s177.334 -3 236.001 -3c117.333 0 204.666 2 261.999 6v-41c-49.333 -2 -84.833 -7.33301 -106.5 -16s-37 -24.667 -46 -48s-13.5 -60.666 -13.5 -111.999v-1016c0 -51.333 4.5 -88.666 13.5 -111.999s24.333 -39.333 46 -48
s57.167 -14 106.5 -16v-41c-57.333 4 -144.666 6 -261.999 6c-109.333 0 -196 -2 -260 -6v41c49.333 2 84.833 7.33301 106.5 16s37 24.667 46 48s13.5 60.666 13.5 111.999v1016c0 74 -10.167 121.833 -30.5 143.5s-65.5 32.5 -135.5 32.5h-334
c-70 0 -115.167 -10.833 -135.5 -32.5s-30.5 -69.5 -30.5 -143.5v-1016c0 -51.333 4.5 -88.666 13.5 -111.999s24.333 -39.333 46 -48s57.167 -14 106.5 -16v-41c-62.667 4 -149.334 6 -260.001 6c-117.333 0 -204.666 -2 -261.999 -6z" />
    <glyph glyph-name="afii10034" unicode="&#x420;" horiz-adv-x="1198" 
d="M86 0l-0.00195312 41.001c49.333 2 84.833 7.33301 106.5 16s37 24.667 46 48s13.5 60.666 13.5 111.999v1016c0 51.333 -4.5 88.666 -13.5 111.999s-24.333 39.333 -46 48s-57.167 14 -106.5 16v41c56.667 -4 140 -6 250 -6c49.333 0 110.666 0.666992 183.999 2
s115 2 125 2c160.667 0 283.167 -36.667 367.5 -110s126.5 -171.333 126.5 -294c0 -42.667 -5 -84 -15 -124s-27.833 -80.667 -53.5 -122s-58 -77.333 -97 -108s-90.667 -55.667 -155 -75s-137.166 -29 -218.499 -29h-158v-369c0 -38.667 2.5 -68.667 7.5 -90
s15.833 -38.5 32.5 -51.5s37.167 -21.667 61.5 -26s59.5 -7.16602 105.5 -8.49902v-41c-71.333 4 -171.666 6 -300.999 6c-117.333 0 -204.666 -2 -261.999 -6zM441.998 627.001h138c56 0 105.167 7.16699 147.5 21.5s76.5 33.333 102.5 57s47 53 63 88
s26.833 70.667 32.5 107s8.5 76.833 8.5 121.5c0 132 -26.333 229.5 -79 292.5s-139.667 94.5 -261 94.5c-62 0 -102.833 -11.5 -122.5 -34.5s-29.5 -70.167 -29.5 -141.5v-606z" />
    <glyph glyph-name="afii10035" unicode="&#x421;" horiz-adv-x="1409" 
d="M109 713c0 150.667 27.667 284.168 83 400.501s132.333 206.333 231 270s211 95.5 337 95.5c81.333 0 150.833 -11.667 208.5 -35s113.834 -56 168.501 -98c14.667 -12 28 -18 40 -18c28 0 45.333 40.667 52 122h47c-5.33301 -88.667 -8 -245.667 -8 -471h-47
c-14.667 89.333 -28.334 153.166 -41.001 191.499s-33.334 75.5 -62.001 111.5c-41.333 53.333 -93.666 93.333 -156.999 120s-131.666 40 -204.999 40c-134 0 -241.333 -65 -322 -195s-121 -305.333 -121 -526c0 -222.667 43.167 -396.5 129.5 -521.5
s197.5 -187.5 333.5 -187.5c68 0 134.333 13 199 39s115 65 151 117c28 37.333 48 77.833 60 121.5s23.667 111.167 35 202.5h47c0 -235.333 2.66699 -399.333 8 -492h-47c-3.33301 42.667 -8.83301 73.5 -16.5 92.5s-18.834 28.5 -33.501 28.5
c-10.667 0 -24.667 -5.66699 -42 -17c-62 -43.333 -120.833 -76.333 -176.5 -99s-123.167 -34 -202.5 -34c-197.333 0 -354.833 65.833 -472.5 197.5s-176.5 313.167 -176.5 544.5z" />
    <glyph glyph-name="afii10036" unicode="&#x422;" horiz-adv-x="1272" 
d="M59 1450c113.333 -4 305.997 -6.00293 577.997 -6.00293c270 0 461.667 2 575 6c-9.33301 -97.333 -14 -184.666 -14 -261.999c0 -69.333 2 -125.333 6 -168h-47c-5.33301 53.333 -10.5 96 -15.5 128s-12.333 64.333 -22 97s-21.334 57.5 -35.001 74.5
s-31.5 32.667 -53.5 47s-48.167 24 -78.5 29s-67.166 7.5 -110.499 7.5h-111v-1165c0 -34.667 1.83301 -62.667 5.5 -84s9.5 -39.666 17.5 -54.999s20.5 -26.833 37.5 -34.5s36.5 -13.167 58.5 -16.5s51.333 -5.66602 88 -6.99902v-41c-72 4 -172.333 6 -301 6
c-136.667 0 -237.667 -2 -303 -6v41c36.667 1.33301 66 3.66602 88 6.99902s41.5 8.83301 58.5 16.5s29.5 19.167 37.5 34.5s13.833 33.666 17.5 54.999s5.5 49.333 5.5 84v1165h-111c-43.333 0 -80.166 -2.5 -110.499 -7.5s-56.666 -14.667 -78.999 -29
s-40.166 -30 -53.499 -47s-24.833 -41.667 -34.5 -74s-17 -64.666 -22 -96.999s-10.167 -75.166 -15.5 -128.499h-47c4 42.667 6 98.667 6 168c0 80 -5 167.333 -15 262z" />
    <glyph glyph-name="afii10037" unicode="&#x423;" horiz-adv-x="1325" 
d="M-4 1407l-0.00195312 43.001c52.667 -4 112.667 -6 180 -6c132.667 0 228.334 2 287.001 6v-43c-96 0 -144 -26.333 -144 -79c0 -21.333 7 -45 21 -71l417 -778l322 645c37.333 75.333 56 134 56 176c0 38.667 -15 66.167 -45 82.5s-75.333 25.166 -136 26.499v41
c78 -4 156.667 -6 236 -6c62 0 113 2 153 6v-41c-27.333 -6 -53.833 -23.167 -79.5 -51.5s-53.5 -71.833 -83.5 -130.5l-449 -894l-82 -165c-30.667 -62.667 -60.667 -108.334 -90 -137.001c-40 -40 -91 -60 -153 -60c-42.667 0 -77.334 10.833 -104.001 32.5
s-40 51.834 -40 90.501c0 32.667 10.333 59 31 79s46.667 30 78 30c30 0 54.833 -8.5 74.5 -25.5s29.5 -40.833 29.5 -71.5c0 -40 -18.333 -70.667 -55 -92c2.66699 -1.33301 6.66699 -2 12 -2c36 0 68 13.167 96 39.5s54.667 65.833 80 118.5l56 114l-549 1008
c-25.333 46 -47.166 76.667 -65.499 92s-36.166 23 -53.499 23z" />
    <glyph glyph-name="afii10038" unicode="&#x424;" horiz-adv-x="1739" 
d="M55 733c0 106.667 30.332 202.334 90.999 287.001s145.334 152.167 254.001 202.5s234 80.166 376 89.499v72c0 74.667 -9.83301 122 -29.5 142s-65.167 31.667 -136.5 35v41c54 -4.66699 141.333 -7 262 -7c114 0 201 2.33301 261 7v-41
c-71.333 -3.33301 -116.833 -15.166 -136.5 -35.499s-29.5 -67.5 -29.5 -141.5v-72c220.667 -13.333 395.167 -70 523.5 -170s192.5 -235 192.5 -405c0 -166 -65.667 -303.333 -197 -412s-304.333 -170.667 -519 -186v-73c0 -74.667 9.83301 -122 29.5 -142
s65.167 -31.667 136.5 -35v-41c-60 4.66699 -147 7 -261 7c-120.667 0 -208 -2.33301 -262 -7v41c71.333 3.33301 116.833 15.166 136.5 35.499s29.5 67.5 29.5 141.5v72c-222 12.667 -397.667 71 -527 175s-194 244 -194 420zM259.999 741
c0 -154.667 47.667 -282.333 143 -383s219.666 -160.667 372.999 -180v1096c-157.333 -16.667 -282.666 -73.5 -375.999 -170.5s-140 -217.833 -140 -362.5zM966.999 177.001c156 17.333 280.333 76.332 373 176.999s139 225.667 139 375
c0 148.667 -47.333 271.334 -142 368.001s-218 154.667 -370 174v-1094z" />
    <glyph glyph-name="afii10039" unicode="&#x425;" horiz-adv-x="1298" 
d="M33 0v41c76.667 10.667 153.667 73.334 231 188.001l309 461l-401 615c-25.333 39.333 -46.833 65.666 -64.5 78.999s-41.834 21 -72.501 23v43c93.333 -5.33301 152 -8 176 -8c91.333 0 187.666 2.66699 288.999 8v-43c-91.333 0 -137 -15 -137 -45
c0 -10.667 6 -25.667 18 -45l319 -488l201 301c59.333 88.667 89 154.334 89 197.001c0 28.667 -13.167 49.167 -39.5 61.5s-66.166 19.166 -119.499 20.499v41c78 -4 156.667 -6 236 -6c75.333 0 133.333 2 174 6v-41c-41.333 -6 -80.5 -24.5 -117.5 -55.5
s-74.833 -75.167 -113.5 -132.5l-287 -428l424 -648c25.333 -39.333 46.833 -65.666 64.5 -78.999s41.834 -21 72.501 -23v-43c-93.333 5.33301 -152 8 -176 8c-46 0 -142.333 -2.66699 -289 -8v43c53.333 0 91 2.33301 113 7s33 13.334 33 26.001
c0 9.33301 -5 21.666 -15 36.999l-350 536l-221 -330c-52 -77.333 -78 -137.333 -78 -180c0 -34.667 15.5 -59.334 46.5 -74.001s76.167 -22.667 135.5 -24v-41c-76.667 4 -168.667 6 -276 6c-75.333 0 -133.333 -2 -174 -6z" />
    <glyph glyph-name="afii10040" unicode="&#x426;" horiz-adv-x="1567" 
d="M86 0l0.000976562 41c49.333 2 84.833 7.33301 106.5 16s37 24.667 46 48s13.5 60.666 13.5 111.999v1016c0 51.333 -4.5 88.666 -13.5 111.999s-24.333 39.333 -46 48s-57.167 14 -106.5 16v41c56.667 -4 144 -6 262 -6c110.667 0 197.334 2 260.001 6v-41
c-49.333 -2 -84.833 -7.33301 -106.5 -16s-37 -24.667 -46 -48s-13.5 -60.666 -13.5 -111.999v-1016c0 -74 10.167 -121.833 30.5 -143.5s65.5 -32.5 135.5 -32.5h334c70 0 115.167 10.833 135.5 32.5s30.5 69.5 30.5 143.5v1016c0 51.333 -4.5 88.666 -13.5 111.999
s-24.333 39.333 -46 48s-57.167 14 -106.5 16v41c64 -4 150.667 -6 260 -6c117.333 0 204.666 2 261.999 6v-41c-49.333 -2 -84.833 -7.33301 -106.5 -16s-37 -24.667 -46 -48s-13.5 -60.666 -13.5 -111.999v-1016c0 -74 10.167 -121.833 30.5 -143.5
s65.5 -32.5 135.5 -32.5h64c-10 -96 -15 -176.667 -15 -242c0 -48.667 2.33301 -91 7 -127h-47c-6 54 -12.167 96.833 -18.5 128.5s-15.5 61.834 -27.5 90.501s-27.5 50 -46.5 64s-43.167 25 -72.5 33s-66 12 -110 12h-420c-26.667 0 -90.334 1 -191.001 3
s-180.334 3 -239.001 3c-117.333 0 -204.666 -2 -261.999 -6z" />
    <glyph glyph-name="afii10041" unicode="&#x427;" horiz-adv-x="1378" 
d="M35 1407l-0.00292969 42.999c125.333 -5.33301 209.333 -8 252 -8c38 0 114.333 2.66699 229 8v-43c-50 0 -85 -10.5 -105 -31.5s-30 -59.5 -30 -115.5v-381c0 -29.333 1.33301 -54.333 4 -75s8.83398 -41.834 18.501 -63.501s22.667 -39.167 39 -52.5
s39.166 -24.166 68.499 -32.499s64.333 -12.5 105 -12.5c128 0 234.667 15 320 45v545c0 51.333 -4.5 88.666 -13.5 111.999s-24.333 39.333 -46 48s-57.167 14 -106.5 16v41c56.667 -4 144 -6 262 -6c110.667 0 197.334 2 260.001 6v-41
c-49.333 -2 -84.833 -7.33301 -106.5 -16s-37 -24.667 -46 -48s-13.5 -60.666 -13.5 -111.999v-1016c0 -51.333 4.5 -88.666 13.5 -111.999s24.333 -39.333 46 -48s57.167 -14 106.5 -16v-41c-57.333 4 -144.666 6 -261.999 6c-128.667 0 -229 -2 -301 -6v41
c46 1.33301 81.167 4.16602 105.5 8.49902s44.833 13 61.5 26s27.5 30.167 32.5 51.5s7.5 51.333 7.5 90v436c-41.333 -20 -98.833 -37.5 -172.5 -52.5s-144.5 -22.5 -212.5 -22.5c-112 0 -199.333 23.667 -262 71c-37.333 28.667 -63.166 63.334 -77.499 104.001
s-21.5 97.667 -21.5 171v336c0 56 -11.5 94.5 -34.5 115.5s-63.167 31.5 -120.5 31.5z" />
    <glyph glyph-name="afii10042" unicode="&#x428;" horiz-adv-x="2062" 
d="M86 0l-0.00195312 41c49.333 2 84.833 7.33301 106.5 16s37 24.667 46 48s13.5 60.666 13.5 111.999v1016c0 51.333 -4.5 88.666 -13.5 111.999s-24.333 39.333 -46 48s-57.167 14 -106.5 16v41c56.667 -4 144 -6 262 -6c100 0 180 2 240 6v-41
c-32.667 -1.33301 -57.667 -4.16602 -75 -8.49902s-31.833 -13.166 -43.5 -26.499s-19.167 -30.5 -22.5 -51.5s-5 -50.833 -5 -89.5v-1016c0 -74 10.167 -121.833 30.5 -143.5s65.5 -32.5 135.5 -32.5h162c70 0 115.167 10.833 135.5 32.5s30.5 69.5 30.5 143.5v1016
c0 39.333 -1.5 69.333 -4.5 90s-10.333 37.667 -22 51s-26 22.166 -43 26.499s-42.167 7.16602 -75.5 8.49902v41c59.333 -4 139 -6 239 -6c108 0 188.667 2 242 6v-41c-33.333 -1.33301 -58.666 -4.16602 -75.999 -8.49902s-31.833 -13.166 -43.5 -26.499
s-19 -30.333 -22 -51s-4.5 -50.667 -4.5 -90v-1016c0 -74 10.167 -121.833 30.5 -143.5s65.5 -32.5 135.5 -32.5h162c70 0 115.167 10.833 135.5 32.5s30.5 69.5 30.5 143.5v1016c0 39.333 -1.5 69.333 -4.5 90s-10.333 37.667 -22 51s-26 22.166 -43 26.499
s-42.167 7.16602 -75.5 8.49902v41c59.333 -4 139 -6 239 -6c117.333 0 204.666 2 261.999 6v-41c-49.333 -2 -84.833 -7.33301 -106.5 -16s-37 -24.667 -46 -48s-13.5 -60.666 -13.5 -111.999v-1016c0 -51.333 4.5 -88.666 13.5 -111.999s24.333 -39.333 46 -48
s57.167 -14 106.5 -16v-41c-57.333 4 -144.666 6 -261.999 6c-31.333 0 -86.833 -1 -166.5 -3s-145.5 -3 -197.5 -3c-47.333 0 -106.666 1 -177.999 3s-117.333 3 -138 3c-21.333 0 -68.5 -1 -141.5 -3s-133.5 -3 -181.5 -3c-54 0 -120.333 1 -199 3s-133.334 3 -164.001 3
c-117.333 0 -204.666 -2 -261.999 -6z" />
    <glyph glyph-name="afii10043" unicode="&#x429;" horiz-adv-x="2038" 
d="M86 0l-0.00878906 41c49.333 2 84.833 7.33301 106.5 16s37 24.667 46 48s13.5 60.666 13.5 111.999v1016c0 51.333 -4.5 88.666 -13.5 111.999s-24.333 39.333 -46 48s-57.167 14 -106.5 16v41c56.667 -4 144 -6 262 -6c100 0 180 2 240 6v-41
c-32.667 -1.33301 -57.667 -4.16602 -75 -8.49902s-31.833 -13.166 -43.5 -26.499s-19.167 -30.5 -22.5 -51.5s-5 -50.833 -5 -89.5v-1016c0 -74 10.167 -121.833 30.5 -143.5s65.5 -32.5 135.5 -32.5h142c69.333 0 114.166 10.667 134.499 32s30.5 69.333 30.5 144v1016
c0 39.333 -1.5 69.333 -4.5 90s-10.167 37.667 -21.5 51s-25.666 22.166 -42.999 26.499s-42.666 7.16602 -75.999 8.49902v41c59.333 -4 139.333 -6 240 -6c108 0 188.333 2 241 6v-41c-33.333 -1.33301 -58.666 -4.16602 -75.999 -8.49902
s-31.666 -13.166 -42.999 -26.499s-18.5 -30.333 -21.5 -51s-4.5 -50.667 -4.5 -90v-1016c0 -74 10.167 -121.833 30.5 -143.5s65.5 -32.5 135.5 -32.5h141c70 0 115.167 10.833 135.5 32.5s30.5 69.5 30.5 143.5v1016c0 39.333 -1.5 69.333 -4.5 90
s-10.167 37.667 -21.5 51s-25.666 22.166 -42.999 26.499s-42.666 7.16602 -75.999 8.49902v41c58.667 -4 138.334 -6 239.001 -6c118 0 205.333 2 262 6v-41c-49.333 -2 -84.833 -7.33301 -106.5 -16s-37 -24.667 -46 -48s-13.5 -60.666 -13.5 -111.999v-1016
c0 -74 10.167 -121.833 30.5 -143.5s65.5 -32.5 135.5 -32.5h64c-9.33301 -89.333 -14 -170 -14 -242c0 -54 2 -96.333 6 -127h-47c-6 54 -12.167 96.833 -18.5 128.5s-15.5 61.834 -27.5 90.501s-27.5 50 -46.5 64s-43.167 25 -72.5 33s-66 12 -110 12h-340
c-47.333 0 -106.5 1 -177.5 3s-116.833 3 -137.5 3c-21.333 0 -68.666 -1 -141.999 -3s-134 -3 -182 -3c-45.333 0 -105.666 1 -180.999 3s-129 3 -161 3c-117.333 0 -204.666 -2 -261.999 -6z" />
    <glyph glyph-name="afii10044" unicode="&#x42a;" horiz-adv-x="1495" 
d="M57 1450c117.333 -4 316.666 -6.00195 597.999 -6.00195c130 0 230.333 2 301 6v-41c-46 -1.33301 -81.167 -4.16602 -105.5 -8.49902s-44.833 -13 -61.5 -26s-27.334 -30.167 -32.001 -51.5s-7 -51.333 -7 -90v-374c27.333 0 62.666 0.5 105.999 1.5
s70.666 1.5 81.999 1.5c160 0 282.333 -37.333 367 -112s127 -173.667 127 -297c0 -42.667 -5 -84 -15 -124s-27.833 -80.333 -53.5 -121s-58 -76 -97 -106s-90.667 -54.5 -155 -73.5s-137.166 -28.5 -218.499 -28.5c-18.667 0 -54.5 1 -107.5 3s-96.5 3 -130.5 3
c-116.667 0 -204 -2 -262 -6v41c49.333 2 84.833 7.33301 106.5 16s37 24.667 46 48s13.5 60.666 13.5 111.999v1186h-131c-43.333 0 -80.166 -2.5 -110.499 -7.5s-56.666 -14.667 -78.999 -29s-40.166 -30 -53.499 -47s-24.833 -41.667 -34.5 -74s-17 -64.666 -22 -96.999
s-10.167 -75.166 -15.5 -128.499h-47c4 42.667 6 98.667 6 168c0 80 -5 167.333 -15 262zM750 216.998c0 -75.333 8.33301 -123.501 25 -144.501s56 -31.5 118 -31.5c53.333 0 100 7 140 21s72.167 32.5 96.5 55.5s44 51.667 59 86s25.167 69.5 30.5 105.5s8 76.333 8 121
c0 132.667 -26.5 231.334 -79.5 296.001s-139.833 97 -260.5 97c-30 0 -75.667 -0.666992 -137 -2v-604z" />
    <glyph glyph-name="afii10045" unicode="&#x42b;" horiz-adv-x="1821" 
d="M86 0l0.000976562 41.001c49.333 2 84.833 7.33301 106.5 16s37 24.667 46 48s13.5 60.666 13.5 111.999v1016c0 51.333 -4.5 88.666 -13.5 111.999s-24.333 39.333 -46 48s-57.167 14 -106.5 16v41c56.667 -4 144 -6 262 -6c129.333 0 229.666 2 300.999 6v-41
c-46 -1.33301 -81.167 -4.16602 -105.5 -8.49902s-44.833 -13 -61.5 -26s-27.5 -30.167 -32.5 -51.5s-7.5 -51.333 -7.5 -90v-374c26.667 0 62 0.5 106 1.5s71.667 1.5 83 1.5c160 0 282.167 -37.333 366.5 -112s126.5 -173.667 126.5 -297
c0 -42.667 -4.83301 -84 -14.5 -124s-27.334 -80.333 -53.001 -121s-58.167 -76 -97.5 -106s-91 -54.5 -155 -73.5s-136.667 -28.5 -218 -28.5c-18.667 0 -54.5 1 -107.5 3s-96.5 3 -130.5 3c-117.333 0 -204.666 -2 -261.999 -6zM442.001 217.001
c0 -75.333 8.5 -123.501 25.5 -144.501s56.5 -31.5 118.5 -31.5c53.333 0 100 7 140 21s72.167 32.5 96.5 55.5s44 51.667 59 86s25.167 69.5 30.5 105.5s8 76.333 8 121c0 132.667 -26.5 231.334 -79.5 296.001s-139.833 97 -260.5 97c-30.667 0 -76.667 -0.666992 -138 -2
v-604zM1212 0v41c37.333 1.33301 65.833 4.16602 85.5 8.49902s36.167 13.166 49.5 26.499s21.833 30.5 25.5 51.5s5.5 50.833 5.5 89.5v1016c0 38.667 -1.83301 68.5 -5.5 89.5s-12.167 38.167 -25.5 51.5s-29.833 22.166 -49.5 26.499s-48.167 7.16602 -85.5 8.49902v41
c58 -4 145.667 -6 263 -6c109.333 0 196 2 260 6v-41c-37.333 -1.33301 -65.833 -4.16602 -85.5 -8.49902s-36.167 -13.166 -49.5 -26.499s-21.833 -30.5 -25.5 -51.5s-5.5 -50.833 -5.5 -89.5v-1016c0 -38.667 1.83301 -68.5 5.5 -89.5s12.167 -38.167 25.5 -51.5
s29.833 -22.166 49.5 -26.499s48.167 -7.16602 85.5 -8.49902v-41c-64 4 -150.667 6 -260 6c-117.333 0 -205 -2 -263 -6z" />
    <glyph glyph-name="afii10046" unicode="&#x42c;" horiz-adv-x="1188" 
d="M86 0l0.000976562 41.001c49.333 2 84.833 7.33301 106.5 16s37 24.667 46 48s13.5 60.666 13.5 111.999v1016c0 51.333 -4.5 88.666 -13.5 111.999s-24.333 39.333 -46 48s-57.167 14 -106.5 16v41c56.667 -4 144 -6 262 -6c129.333 0 229.666 2 300.999 6v-41
c-46 -1.33301 -81.167 -4.16602 -105.5 -8.49902s-44.833 -13 -61.5 -26s-27.5 -30.167 -32.5 -51.5s-7.5 -51.333 -7.5 -90v-374c26.667 0 62 0.5 106 1.5s71.667 1.5 83 1.5c160 0 282.167 -37.333 366.5 -112s126.5 -173.667 126.5 -297
c0 -42.667 -4.83301 -84 -14.5 -124s-27.334 -80.333 -53.001 -121s-58.167 -76 -97.5 -106s-91 -54.5 -155 -73.5s-136.667 -28.5 -218 -28.5c-18.667 0 -54.5 1 -107.5 3s-96.5 3 -130.5 3c-117.333 0 -204.666 -2 -261.999 -6zM442.001 217.001
c0 -75.333 8.5 -123.501 25.5 -144.501s56.5 -31.5 118.5 -31.5c53.333 0 100 7 140 21s72.167 32.5 96.5 55.5s44 51.667 59 86s25.167 69.5 30.5 105.5s8 76.333 8 121c0 132.667 -26.5 231.334 -79.5 296.001s-139.833 97 -260.5 97c-30.667 0 -76.667 -0.666992 -138 -2
v-604z" />
    <glyph glyph-name="afii10047" unicode="&#x42d;" horiz-adv-x="1417" 
d="M141 0c6 104 9.00293 268.005 9.00293 492.005h47c10.667 -90.667 22 -158 34 -202s32 -84.667 60 -122c36.667 -52 87.167 -91 151.5 -117s130.5 -39 198.5 -39c136 0 247.167 62.5 333.5 187.5s129.5 298.833 129.5 521.5l-1 41
c-22.667 -50.667 -55.5 -89.334 -98.5 -116.001s-91.167 -40 -144.5 -40c-40 0 -80.333 8.16699 -121 24.5s-75.334 34.166 -104.001 53.499s-62.334 37.166 -101.001 53.499s-76 24.5 -112 24.5c-38 0 -72.333 -9.5 -103 -28.5s-53 -47.833 -67 -86.5l-31 15
c18.667 68 53.5 120 104.5 156s109.833 54 176.5 54c34 0 67.167 -5.33301 99.5 -16s61.666 -23.667 87.999 -39l78.5 -45.5c26 -15 54.167 -27.833 84.5 -38.5s60.833 -16 91.5 -16c72 0 124.667 30.667 158 92c-10.667 195.333 -55.667 349.666 -135 462.999
s-181 170 -305 170c-74 0 -142.667 -13.333 -206 -40s-115.666 -66.667 -156.999 -120c-28 -36.667 -48.5 -74.334 -61.5 -113.001s-26.5 -102 -40.5 -190h-47c0 214 -3 371 -9 471h47c8 -81.333 25.667 -122 53 -122c11.333 0 24.666 6 39.999 18
c54.667 42 110.667 74.667 168 98s126.666 35 207.999 35c126 0 238.5 -31.833 337.5 -95.5s176.167 -153.667 231.5 -270s83 -249.833 83 -400.5c0 -231.333 -59 -412.833 -177 -544.5s-275.667 -197.5 -473 -197.5c-79.333 0 -146.833 11.333 -202.5 34
s-114.167 55.667 -175.5 99c-17.333 11.333 -31.666 17 -42.999 17c-14 0 -24.833 -9.5 -32.5 -28.5s-13.5 -49.833 -17.5 -92.5h-47z" />
    <glyph glyph-name="afii10048" unicode="&#x42e;" horiz-adv-x="2073" 
d="M86 0l0.00195312 41.001c49.333 2 84.833 7.33301 106.5 16s37 24.667 46 48s13.5 60.666 13.5 111.999v1016c0 51.333 -4.5 88.666 -13.5 111.999s-24.333 39.333 -46 48s-57.167 14 -106.5 16v41c56.667 -4 144 -6 262 -6c110.667 0 197.334 2 260.001 6v-41
c-49.333 -2 -84.833 -7.33301 -106.5 -16s-37 -24.667 -46 -48s-13.5 -60.666 -13.5 -111.999v-492h260c3.33301 145.333 32.333 274.166 87 386.499s129.167 199 223.5 260s201.166 91.5 320.499 91.5c191.333 0 344 -65.833 458 -197.5s171 -313.167 171 -544.5
c0 -150.667 -26.833 -284.167 -80.5 -400.5s-128.334 -206.333 -224.001 -270s-204.5 -95.5 -326.5 -95.5c-189.333 0 -340.833 64.5 -454.5 193.5s-171.834 307.5 -174.501 535.5h-260v-483c0 -51.333 4.5 -88.666 13.5 -111.999s24.333 -39.333 46 -48
s57.167 -14 106.5 -16v-41c-62.667 4 -149.334 6 -260.001 6c-117.333 0 -204.666 -2 -261.999 -6zM907.002 721.001c0 -213.333 41.333 -385.5 124 -516.5s185.334 -196.5 308.001 -196.5c83.333 0 156.833 30.5 220.5 91.5s112.5 146 146.5 255s51 233.833 51 374.5
c0 213.333 -41.333 385.5 -124 516.5s-185.334 196.5 -308.001 196.5c-83.333 0 -156.833 -30.5 -220.5 -91.5s-112.5 -146 -146.5 -255s-51 -233.833 -51 -374.5z" />
    <glyph glyph-name="afii10049" unicode="&#x42f;" horiz-adv-x="1337" 
d="M-25 102l31.0049 22.999c15.333 -19.333 27.333 -33.5 36 -42.5s19.667 -17.167 33 -24.5s27.666 -11 42.999 -11c27.333 0 47.666 12.167 60.999 36.5s26.666 68.166 39.999 131.499l47 209c19.333 85.333 50.666 148 93.999 188s110.333 67.333 201 82l27 4
c-72 10.667 -134.333 29.834 -187 57.501s-93.167 60.334 -121.5 98.001s-48.833 76.167 -61.5 115.5s-19 80.333 -19 123c0 104.667 42.5 190.167 127.5 256.5s206.833 99.5 365.5 99.5c9.33301 0 50.666 -0.666992 123.999 -2s135 -2 185 -2c110 0 193.333 2 250 6v-41
c-49.333 -2 -84.833 -7.33301 -106.5 -16s-37 -24.667 -46 -48s-13.5 -60.666 -13.5 -111.999v-1016c0 -51.333 4.5 -88.666 13.5 -111.999s24.333 -39.333 46 -48s57.167 -14 106.5 -16v-41c-56.667 4 -144 6 -262 6c-109.333 0 -196 -2 -260 -6v41
c49.333 2 84.833 7.33301 106.5 16s37 24.667 46 48s13.5 60.666 13.5 111.999v471h-205c-22.667 0 -43.334 -2.5 -62.001 -7.5s-34.667 -11.333 -48 -19s-25.666 -19 -36.999 -34s-20.5 -29 -27.5 -42s-14.333 -31.333 -22 -55s-13.667 -44.167 -18 -61.5
s-9.83301 -41.333 -16.5 -72l-45 -204c-18.667 -82.667 -46 -140.334 -82 -173.001s-81.667 -49 -137 -49c-52 0 -93.667 10.333 -125 31s-63 54 -95 100zM403.005 1083c0 -54.667 5 -101.832 15 -141.499s27.5 -76.334 52.5 -110.001s61.5 -59.167 109.5 -76.5
s107.333 -26 178 -26h137v504c0 71.333 -9.83301 118.5 -29.5 141.5s-60.5 34.5 -122.5 34.5c-118.667 0 -205 -28 -259 -84s-81 -136.667 -81 -242z" />
    <glyph glyph-name="afii10065" unicode="&#x430;" horiz-adv-x="1020" 
d="M80 215c0 39.333 7 74.334 21 105.001s36.833 58.667 68.5 84s65.334 47.5 101.001 66.5s82.167 40.5 139.5 64.5c8.66699 4 23.167 10 43.5 18s34.666 13.833 42.999 17.5l37.5 16.5c16.667 7.33301 28.5 13.166 35.5 17.499l28 17c11.667 7 20 13.333 25 19
s10.5 12.334 16.5 20.001s10.167 15.5 12.5 23.5s3.5 16.333 3.5 25v127c0 79.333 -16.5 133.5 -49.5 162.5s-79.833 43.5 -140.5 43.5c-96.667 0 -164.334 -24.333 -203.001 -73c27.333 -6.66699 50.166 -21.167 68.499 -43.5s27.5 -49.5 27.5 -81.5
c0 -34.667 -10.833 -61.834 -32.5 -81.501s-50.834 -29.5 -87.501 -29.5c-34.667 0 -61.834 11.667 -81.501 35s-29.5 54 -29.5 92c0 53.333 32 102 96 146c78.667 51.333 174.334 77 287.001 77c114 0 196.667 -25.667 248 -77c31.333 -32 52.833 -69.167 64.5 -111.5
s17.5 -100.833 17.5 -175.5v-569c0 -34 4.83301 -58.667 14.5 -74s25.834 -23 48.501 -23c28 0 58.667 14.333 92 43l23 -35c-24 -18 -42.667 -31.333 -56 -40s-31.666 -16.667 -54.999 -24s-48.666 -11 -75.999 -11c-66 0 -111.833 16.5 -137.5 49.5
s-38.5 77.167 -38.5 132.5c-40 -66 -88 -112.833 -144 -140.5s-113 -41.5 -171 -41.5c-74 0 -135.833 19.333 -185.5 58s-74.5 95.667 -74.5 171zM260 248.001c0 -59.333 14.998 -104.171 44.998 -134.504s69.667 -45.5 119 -45.5c90.667 0 167.667 51.667 231 155v402
c-10 -15.333 -26.667 -29.666 -50 -42.999s-72 -38 -146 -74c-28.667 -14 -52.167 -26.667 -70.5 -38s-38.666 -27.166 -60.999 -47.499s-39.166 -45.166 -50.499 -74.499s-17 -62.666 -17 -99.999z" />
    <glyph glyph-name="afii10066" unicode="&#x431;" horiz-adv-x="1149" 
d="M129 639c0 40 1.33398 82 4.00098 126s8.83398 104 18.501 180s27 148.333 52 217s56.167 123.667 93.5 165c58 64.667 140 105.667 246 123c24.667 4 52.167 7.33301 82.5 10s62.333 4.83398 96 6.50098s54.5 2.83398 62.5 3.50098
c73.333 5.33301 127.666 18.5 162.999 39.5s64.333 54.5 87 100.5l31 -8c-34 -106.667 -72.333 -177 -115 -211c-48.667 -40 -119.667 -62.667 -213 -68c-84.667 -4 -154.334 -10.667 -209.001 -20c-76 -13.333 -136.5 -40 -181.5 -80s-80.5 -100.333 -106.5 -181
s-46 -192.334 -60 -335.001l1 -2c62.667 224.667 205.667 337 429 337c62.667 0 119.167 -9.33301 169.5 -28s92.333 -43.667 126 -75s61.667 -69 84 -113s38.5 -90.333 48.5 -139s15 -100.334 15 -155.001c0 -168 -44.833 -303.5 -134.5 -406.5
s-207.5 -154.5 -353.5 -154.5c-290.667 0 -436 222.667 -436 668zM324.001 516c0 -88 7.66699 -165.502 23 -232.502s36.333 -119.667 63 -158s56 -66.833 88 -85.5s66 -28 102 -28c40.667 0 76.667 11.833 108 35.5s56 53.334 74 89.001s32.667 78.167 44 127.5
s18.833 95.833 22.5 139.5s5.5 88.834 5.5 135.501c0 159.333 -22.333 275.833 -67 349.5s-106.334 110.5 -185.001 110.5c-37.333 0 -71.666 -8 -102.999 -24s-60.5 -41.667 -87.5 -77s-48.333 -85.5 -64 -150.5s-23.5 -142.167 -23.5 -231.5z" />
    <glyph glyph-name="afii10067" unicode="&#x432;" horiz-adv-x="1118" 
d="M59 0l-0.000976562 43c57.333 0 97.666 10.5 120.999 31.5s35 59.5 35 115.5v672c0 56.667 -11.667 95.5 -35 116.5s-63.666 31.5 -120.999 31.5v43c141.333 -6 222 -9 242 -9c34.667 0 82.5 1.5 143.5 4.5s102.5 4.5 124.5 4.5c73.333 0 136.333 -5.83301 189 -17.5
s94.167 -28.834 124.5 -51.501s52.333 -48.667 66 -78s20.5 -63 20.5 -101c0 -62 -26.5 -116.333 -79.5 -163s-129.5 -77.667 -229.5 -93c131.333 -6.66699 226.5 -31.167 285.5 -73.5s88.5 -101.833 88.5 -178.5c0 -89.333 -36.667 -161.166 -110 -215.499
s-189.666 -81.5 -348.999 -81.5c-26 -0 -69.5 1.33301 -130.5 4s-108.833 4 -143.5 4c-36 0 -116.667 -2.66699 -242 -8zM398.999 190c0 -56.667 11.165 -95.333 33.498 -116s63.166 -31 122.499 -31c55.333 0 102.333 6.66699 141 20s68.334 32 89.001 56
s35.334 50.333 44.001 79s13 61 13 97c0 82 -22.667 140 -68 174s-108.666 51 -189.999 51h-185v-330zM398.997 555.001h82c80.667 1.33301 143 11 187 29s73.667 42.667 89 74s23 74.666 23 129.999c0 34.667 -3.16699 64.334 -9.5 89.001s-17.5 47.667 -33.5 69
s-39.667 37.333 -71 48s-70.333 16 -117 16c-56 0 -95 -10.833 -117 -32.5s-33 -60.167 -33 -115.5v-307z" />
    <glyph glyph-name="afii10068" unicode="&#x433;" horiz-adv-x="952" 
d="M59 0l-0.000976562 42.999c57.333 0 97.666 10.5 120.999 31.5s35 59.5 35 115.5v672c0 56.667 -11.667 95.5 -35 116.5s-63.666 31.5 -120.999 31.5v43c141.333 -6 223.333 -9 246 -9c30.667 0 76.334 1.5 137.001 4.5s103.667 4.5 129 4.5h320
c-9.33301 -90.667 -14 -170 -14 -238c0 -54 2 -96.333 6 -127h-47c-4.66699 53.333 -9.5 95.833 -14.5 127.5s-12 61.667 -21 90s-21 49.333 -36 63s-33.833 24.334 -56.5 32.001s-51 11.5 -85 11.5h-88c-50 0 -85.167 -10.833 -105.5 -32.5s-30.5 -60.834 -30.5 -117.501
v-651c0 -63.333 18 -107.166 54 -131.499s90.333 -36.5 163 -36.5v-43c-168 5.33301 -273 8 -315 8c-36 0 -116.667 -2.66699 -242 -8z" />
    <glyph glyph-name="afii10069" unicode="&#x434;" horiz-adv-x="1073" 
d="M14 43h39c40 0 74.667 14.833 104 44.5s52 66.167 68 109.5c54 142 92.333 363.667 115 665c0 2.66699 0.166992 6.16699 0.5 10.5s0.5 7.5 0.5 9.5c0 47.333 -13.167 80.5 -39.5 99.5s-67.5 28.5 -123.5 28.5v43c69.333 -6 115.666 -9 138.999 -9
c22 0 57.333 1.5 106 4.5s86 4.5 112 4.5c23.333 0 58.333 -1.5 105 -4.5s86 -4.5 118 -4.5c21.333 0 104 3 248 9v-43c-57.333 0 -97.666 -10.5 -120.999 -31.5s-35 -59.833 -35 -116.5v-672c0 -58 11.667 -97 35 -117s71 -30 143 -30
c-9.33301 -89.333 -14 -168.666 -14 -237.999c0 -54 2 -96.333 6 -127h-47c-4.66699 54 -9.5 96.833 -14.5 128.5s-12 62 -21 91s-21 50.667 -36 65s-33.833 25.5 -56.5 33.5s-51 12 -85 12c-32 0 -93.667 -1.33301 -185 -4s-188.666 -4 -291.999 -4
c-34 0 -62.333 -3.66699 -85 -11s-41.5 -17.833 -56.5 -31.5s-27.167 -34.5 -36.5 -62.5s-16.333 -57.833 -21 -89.5s-9.33398 -74.167 -14.001 -127.5h-47c4 30.667 6 73 6 127c0 71.333 -5 150.666 -15 237.999zM156 43h374.001c50.667 0 86 10.5 106 31.5
s30 59.5 30 115.5v672c0 56.667 -10 95.5 -30 116.5s-55.333 31.5 -106 31.5h-18c-48.667 0 -82 -10.167 -100 -30.5s-29.667 -59.5 -35 -117.5c-8.66699 -100 -16.334 -180.333 -23.001 -241s-18.5 -134.167 -35.5 -220.5s-37.167 -157.833 -60.5 -214.5
c-29.333 -69.333 -63.333 -117 -102 -143z" />
    <glyph glyph-name="afii10070" unicode="&#x435;" horiz-adv-x="1036" 
d="M94 502c0 179.333 41.835 321.001 125.502 425.001s196.167 156 337.5 156c122.667 0 217.167 -37.167 283.5 -111.5s99.5 -187.166 99.5 -338.499h-640c-4.66699 -36.667 -7 -80.334 -7 -131.001c0 -134 31.333 -241.667 94 -323s135.667 -122 219 -122
c137.333 0 237.666 68.333 300.999 205l41 -16c-24.667 -75.333 -70.834 -140 -138.501 -194s-149.167 -81 -244.5 -81c-146 0 -261 48.667 -345 146s-126 225.666 -126 384.999zM297.002 672.001l446 -0.000976562c4 106 -11 194.5 -45 265.5s-83.667 106.5 -149 106.5
c-64.667 0 -120.167 -31.167 -166.5 -93.5s-74.833 -155.166 -85.5 -278.499z" />
    <glyph glyph-name="afii10072" unicode="&#x436;" horiz-adv-x="1724" 
d="M41 0l0.0146484 42.9971c40 4 70.167 14.5 90.5 31.5s38.5 44.167 54.5 81.5c6 13.333 21.333 54.166 46 122.499s45.667 116.833 63 145.5c31.333 50 72.666 85.333 123.999 106s114.666 32.334 189.999 35.001c-26.667 9.33301 -49.834 21.333 -69.501 36
s-36.834 33.334 -51.501 56.001s-26 42.5 -34 59.5s-18 40.833 -30 71.5c-2.66699 8 -7 19.5 -13 34.5s-10.333 26.333 -13 34s-6.66699 17.834 -12 30.501l-12.5 29.5c-3 7 -7 15.333 -12 25s-9.5 17.334 -13.5 23.001l-13 18c-4.66699 6.33301 -9.5 11.5 -14.5 15.5
s-10.167 7.33301 -15.5 10v-15c0 -39.333 -10.667 -71 -32 -95s-50.333 -36 -87 -36c-32.667 0 -58.834 10.167 -78.501 30.5s-29.5 46.5 -29.5 78.5s10.667 58.667 32 80s54.333 32 99 32c29.333 0 56.166 -5.33301 80.499 -16s43.833 -23 58.5 -37s29 -34 43 -60
s24.333 -47.5 31 -64.5s15 -40.5 25 -70.5c2 -5.33301 3.33301 -9.33301 4 -12c12 -35.333 23.167 -64.333 33.5 -87s23.666 -45.167 39.999 -67.5s35 -40 56 -53s47.167 -24.167 78.5 -33.5s68.333 -16 111 -20v300c0 56.667 -10 95.5 -30 116.5s-55 31.5 -105 31.5v43
c129.333 -6 205 -9 227 -9c22.667 0 98.667 3 228 9v-43c-50.667 0 -86 -10.5 -106 -31.5s-30 -59.833 -30 -116.5v-300c42.667 4 79.667 10.667 111 20s57.666 20.5 78.999 33.5s40.166 30.667 56.499 53s29.666 44.833 39.999 67.5s21.5 51.667 33.5 87
c26 77.333 48.333 130.666 67 159.999c42 66.667 100.333 100 175 100c44.667 0 77.667 -10.667 99 -32s32 -48 32 -80s-9.83301 -58.167 -29.5 -78.5s-46.167 -30.5 -79.5 -30.5c-36.667 0 -65.667 12 -87 36s-32 55.667 -32 95v15
c-6.66699 -3.33301 -13.167 -7.66602 -19.5 -12.999s-12.5 -12.833 -18.5 -22.5l-15.5 -25c-4.33301 -7 -9.83301 -18.5 -16.5 -34.5l-15 -36c-3.33301 -8 -9 -22.667 -17 -44l-17 -45c-11.333 -30 -21 -53.833 -29 -71.5s-19.333 -37.667 -34 -60
s-31.834 -40.833 -51.501 -55.5s-42.834 -26.667 -69.501 -36c78.667 -2.66699 143.167 -15 193.5 -37s90.5 -56.667 120.5 -104c17.333 -28.667 38.166 -77 62.499 -145s39.5 -109 45.5 -123c16.667 -37.333 35 -64.5 55 -81.5s50 -27.5 90 -31.5v-43
c-50 -9.33301 -91.333 -14 -124 -14c-54.667 0 -97.834 12.5 -129.501 37.5s-56.167 67.167 -73.5 126.5l-13.5 46.5c-7 24.333 -13 44.333 -18 60s-11.5 34.834 -19.5 57.501s-17 43.5 -27 62.5s-20.333 36.167 -31 51.5c-28.667 39.333 -65.5 65.833 -110.5 79.5
s-105.833 19.834 -182.5 18.501v-336c0 -56 10 -94.5 30 -115.5s55.333 -31.5 106 -31.5v-43c-114.667 5.33301 -190.667 8 -228 8c-36.667 0 -112.334 -2.66699 -227.001 -8v43c50 0 85 10.5 105 31.5s30 59.5 30 115.5v336c-74 1.33301 -134.167 -4.83398 -180.5 -18.501
s-83.833 -40.167 -112.5 -79.5c-11.333 -15.333 -22 -33.5 -32 -54.5s-19.333 -43.333 -28 -67s-15.5 -43.834 -20.5 -60.501l-17 -58.5c-6.33301 -22.333 -9.83301 -34.833 -10.5 -37.5c-17.333 -59.333 -42 -101.5 -74 -126.5s-75 -37.5 -129 -37.5
c-33.333 0 -75 4.66699 -125 14z" />
    <glyph glyph-name="afii10073" unicode="&#x437;" horiz-adv-x="956" 
d="M72 188c0 32.667 10.1699 59.335 30.5029 80.002s46.166 31 77.499 31c32.667 0 59.667 -10 81 -30s32 -47 32 -81c0 -28 -7.83301 -51 -23.5 -69s-36.5 -29.667 -62.5 -35c12 -20.667 41 -38.834 87 -54.501s92.667 -23.5 140 -23.5c80.667 0 142.834 24.667 186.501 74
s65.5 114 65.5 194c0 78 -19.333 142.5 -58 193.5s-91 76.833 -157 77.5c-32.667 -18 -61.334 -27 -86.001 -27c-30 0 -45 11.667 -45 35c0 22 15.667 33 47 33c21.333 0 50 -4.33301 86 -13c106.667 31.333 160 113.333 160 246c0 69.333 -13.5 124.166 -40.5 164.499
s-66.833 60.5 -119.5 60.5c-77.333 0 -145.833 -33.5 -205.5 -100.5s-88.167 -151.5 -85.5 -253.5h-47c2 46 3 88 3 126c0 84 -4.33301 167.667 -13 251h47c4 -31.333 9.33301 -54.166 16 -68.499s16.334 -21.5 29.001 -21.5c12 0 35.333 11.667 70 35
c22 14 40.833 25.167 56.5 33.5s39.167 16.666 70.5 24.999s64.666 12.5 99.999 12.5c91.333 0 164.333 -22 219 -66s82 -101.667 82 -173c-0.666992 -40 -10.334 -76.5 -29.001 -109.5s-44 -60.5 -76 -82.5s-64.667 -40 -98 -54s-69.333 -25.667 -108 -35
c115.333 -4 205.833 -29 271.5 -75s98.5 -111.667 98.5 -197c0 -63.333 -20.667 -119.833 -62 -169.5s-95.333 -87.167 -162 -112.5s-139.334 -38 -218.001 -38c-102.667 0 -190.667 24.667 -264 74c-64 43.333 -96 91 -96 143z" />
    <glyph glyph-name="afii10074" unicode="&#x438;" horiz-adv-x="1282" 
d="M59 0l0.000976562 42.998c57.333 0 97.666 10.5 120.999 31.5s35 59.5 35 115.5v672c0 56.667 -11.667 95.5 -35 116.5s-63.666 31.5 -120.999 31.5v43c141.333 -6 223.333 -9 246 -9c24 0 100.667 3 230 9v-43c-50.667 0 -86 -10.5 -106 -31.5s-30 -59.833 -30 -116.5
v-648l484 667c-2 48.667 -13.167 82.334 -33.5 101.001s-54.166 28 -101.499 28v43c129.333 -6 205.666 -9 228.999 -9s105.333 3 246 9v-43c-57.333 0 -97.666 -10.5 -120.999 -31.5s-35 -59.833 -35 -116.5v-672c0 -56 11.667 -94.5 35 -115.5s63.666 -31.5 120.999 -31.5
v-43c-125.333 5.33301 -207.333 8 -246 8c-38 0 -114.333 -2.66699 -229 -8v43c50 0 85 10.5 105 31.5s30 59.5 30 115.5v624l-482 -666c4.66699 -39.333 17.167 -66.666 37.5 -81.999s52.5 -23 96.5 -23v-43c-114.667 5.33301 -191.334 8 -230.001 8
s-120.667 -2.66699 -246 -8z" />
    <glyph glyph-name="afii10075" unicode="&#x439;" horiz-adv-x="1282" 
d="M59 0l0.000976562 42.998c57.333 0 97.666 10.5 120.999 31.5s35 59.5 35 115.5v672c0 56.667 -11.667 95.5 -35 116.5s-63.666 31.5 -120.999 31.5v43c141.333 -6 223.333 -9 246 -9c24 0 100.667 3 230 9v-43c-50.667 0 -86 -10.5 -106 -31.5s-30 -59.833 -30 -116.5
v-648l484 667c-2 48.667 -13.167 82.334 -33.5 101.001s-54.166 28 -101.499 28v43c129.333 -6 205.666 -9 228.999 -9s105.333 3 246 9v-43c-57.333 0 -97.666 -10.5 -120.999 -31.5s-35 -59.833 -35 -116.5v-672c0 -56 11.667 -94.5 35 -115.5s63.666 -31.5 120.999 -31.5
v-43c-125.333 5.33301 -207.333 8 -246 8c-38 0 -114.333 -2.66699 -229 -8v43c50 0 85 10.5 105 31.5s30 59.5 30 115.5v624l-482 -666c4.66699 -39.333 17.167 -66.666 37.5 -81.999s52.5 -23 96.5 -23v-43c-114.667 5.33301 -191.334 8 -230.001 8
s-120.667 -2.66699 -246 -8zM260.001 1518c0 31.333 10.167 57.165 30.5 77.498s46.5 30.5 78.5 30.5c31.333 0 57.833 -10 79.5 -30s32.5 -46.667 32.5 -80c0 -28 -7.83301 -51.167 -23.5 -69.5s-36.5 -30.166 -62.5 -35.499c24.667 -26.667 59.667 -45.667 105 -57
s91 -17 137 -17s91.5 5.66699 136.5 17s79.833 30.333 104.5 57c-26 5.33301 -46.833 17.166 -62.5 35.499s-23.5 41.5 -23.5 69.5c0 33.333 10.833 60 32.5 80s48.5 30 80.5 30s58.167 -10.167 78.5 -30.5s30.5 -46.166 30.5 -77.499
c0 -55.333 -32.333 -104.666 -97 -147.999c-72 -49.333 -165.333 -74 -280 -74c-114 0 -207.667 24.667 -281 74c-64 44 -96 93.333 -96 148z" />
    <glyph glyph-name="afii10076" unicode="&#x43a;" horiz-adv-x="1171" 
d="M59 0l0.000976562 43.001c57.333 0 97.666 10.5 120.999 31.5s35 59.5 35 115.5v672c0 56.667 -11.667 95.5 -35 116.5s-63.666 31.5 -120.999 31.5v43c141.333 -6 222.666 -9 243.999 -9c25.333 0 102.666 3 231.999 9v-43c-50.667 0 -86 -10.5 -106 -31.5
s-30 -59.833 -30 -116.5v-301c42.667 2.66699 80 8.83398 112 18.501s58.5 21.167 79.5 34.5s39.833 31.5 56.5 54.5s29.834 45.667 39.501 68s20.5 51.166 32.5 86.499c26 77.333 48.333 130.666 67 159.999c42.667 66 101 99.333 175 100c44.667 0 77.667 -10.667 99 -32
s32 -48 32 -80s-9.83301 -58.167 -29.5 -78.5s-46.167 -30.5 -79.5 -30.5c-36.667 0 -65.667 12 -87 36s-32 55.667 -32 95v15c-19.333 -8.66699 -36.166 -26.834 -50.499 -54.501s-34.166 -74.834 -59.499 -141.501l-9 -24c-9.33301 -24.667 -17 -43.834 -23 -57.501
s-14.5 -30.667 -25.5 -51s-22.167 -36.5 -33.5 -48.5s-25.833 -24.167 -43.5 -36.5s-37.167 -22.166 -58.5 -29.499c152.667 -3.33301 258 -50.333 316 -141c17.333 -28 38.166 -76.167 62.499 -144.5s39.5 -109.5 45.5 -123.5c16.667 -37.333 35.167 -64.5 55.5 -81.5
s50.166 -27.5 89.499 -31.5v-43c-52.667 -9.33301 -94.667 -14 -126 -14c-58 0 -101.833 13.333 -131.5 40s-52.834 68 -69.501 124l-13.5 46.5c-7 24.333 -13 44.333 -18 60s-11.5 34.834 -19.5 57.501s-17 43.5 -27 62.5s-20.333 36.167 -31 51.5
c-28.667 39.333 -65.5 65.833 -110.5 79.5s-106.5 19.834 -184.5 18.501v-336c0 -56 10 -94.5 30 -115.5s55.333 -31.5 106 -31.5v-43c-114.667 5.33301 -192 8 -232 8c-37.333 0 -118.666 -2.66699 -243.999 -8z" />
    <glyph glyph-name="afii10077" unicode="&#x43b;" horiz-adv-x="1153" 
d="M14 94c0 33.333 10.1621 59.833 30.4951 79.5s47.166 29.5 80.499 29.5c30 0 54.5 -8.5 73.5 -25.5s28.5 -41.5 28.5 -73.5c0 -47.333 -25.667 -80.666 -77 -99.999c2.66699 -1.33301 9.33398 -2 20.001 -2c23.333 0 45.5 6.5 66.5 19.5s39.167 30.5 54.5 52.5
s28 42.667 38 62s19 39.666 27 60.999c54.667 141.333 93 363 115 665c0 2.66699 0.166992 6.16699 0.5 10.5s0.5 7.5 0.5 9.5c0 47.333 -13.167 80.5 -39.5 99.5s-67.5 28.5 -123.5 28.5v43c68.667 -6 115.334 -9 140.001 -9h174h223c24 0 106.667 3 248 9v-43
c-57.333 0 -97.666 -10.5 -120.999 -31.5s-35 -59.833 -35 -116.5v-672c0 -56 11.667 -94.5 35 -115.5s63.666 -31.5 120.999 -31.5v-43c-125.333 5.33301 -208.666 8 -249.999 8c-34 0 -129.667 -2.66699 -287 -8v43c66 0 115.333 10.667 148 32s49 59.666 49 114.999v672
c0 56.667 -10 95.5 -30 116.5s-55.333 31.5 -106 31.5h-18c-33.333 0 -55.666 -9.83301 -66.999 -29.5s-19.666 -59.167 -24.999 -118.5c-10 -110 -18.333 -195 -25 -255s-18.167 -130.667 -34.5 -212s-36.166 -151 -59.499 -209c-58.667 -143.333 -135.667 -215 -231 -215
c-40 0 -74 10.833 -102 32.5s-42 51.834 -42 90.501z" />
    <glyph glyph-name="afii10078" unicode="&#x43c;" horiz-adv-x="1454" 
d="M57 0v41c37.333 1.33301 65.833 4.16602 85.5 8.49902s36.167 13.166 49.5 26.499s21.833 30.5 25.5 51.5s5.5 50.833 5.5 89.5v621c0 38.667 -1.83301 68.5 -5.5 89.5s-12.167 38.167 -25.5 51.5s-29.833 22.166 -49.5 26.499s-48.167 7.16602 -85.5 8.49902v41
c44.667 -4 108.334 -6 191.001 -6c59.333 0 112 2 158 6l312 -829l329 823h96c103.333 0 188 2 254 6v-41c-37.333 -1.33301 -65.833 -4.16602 -85.5 -8.49902s-36.167 -13.166 -49.5 -26.499s-21.833 -30.5 -25.5 -51.5s-5.5 -50.833 -5.5 -89.5v-621
c0 -38.667 1.83301 -68.5 5.5 -89.5s12.167 -38.167 25.5 -51.5s29.833 -22.166 49.5 -26.499s48.167 -7.16602 85.5 -8.49902v-41c-64 4 -148.667 6 -254 6c-118 0 -205.333 -2 -262 -6v41c49.333 2 84.833 7.33301 106.5 16s37 24.667 46 48s13.5 60.666 13.5 111.999v719
l-381 -946h-33l-365 934v-707c0 -51.333 4.5 -88.666 13.5 -111.999s24.333 -39.333 46 -48s57.167 -14 106.5 -16v-41c-49.333 4 -111.333 6 -186 6c-82.667 0 -146.334 -2 -191.001 -6z" />
    <glyph glyph-name="afii10079" unicode="&#x43d;" horiz-adv-x="1251" 
d="M59 0l0.000976562 43c57.333 0 97.666 10.5 120.999 31.5s35 59.5 35 115.5v672c0 56.667 -11.667 95.5 -35 116.5s-63.666 31.5 -120.999 31.5v43c141.333 -6 223.333 -9 246 -9c24 0 100.667 3 230 9v-43c-50.667 0 -86 -10.5 -106 -31.5s-30 -59.833 -30 -116.5v-299
h453v299c0 56.667 -10 95.5 -30 116.5s-55 31.5 -105 31.5v43c128.667 -6 205 -9 229 -9c22.667 0 104.667 3 246 9v-43c-57.333 0 -97.666 -10.5 -120.999 -31.5s-35 -59.833 -35 -116.5v-672c0 -56 11.667 -94.5 35 -115.5s63.666 -31.5 120.999 -31.5v-43
c-125.333 5.33301 -207.333 8 -246 8c-38 0 -114.333 -2.66699 -229 -8v43c50 0 85 10.5 105 31.5s30 59.5 30 115.5v332h-453v-332c0 -56 10 -94.5 30 -115.5s55.333 -31.5 106 -31.5v-43c-114.667 5.33301 -191.334 8 -230.001 8s-120.667 -2.66699 -246 -8z" />
    <glyph glyph-name="afii10080" unicode="&#x43e;" horiz-adv-x="1122" 
d="M96 526c0 77.333 7.83105 147 23.498 209s37.334 114.5 65.001 157.5s61.167 78.833 100.5 107.5s81.833 49.667 127.5 63s95.167 20 148.5 20s102.833 -6.66699 148.5 -20s88.167 -34.333 127.5 -63s72.833 -64.5 100.5 -107.5s49.334 -95.5 65.001 -157.5
s23.5 -131.667 23.5 -209c0 -95.333 -11.833 -179.166 -35.5 -251.499s-57 -130.333 -100 -174s-92 -76.167 -147 -97.5s-115.833 -32 -182.5 -32s-127.5 10.667 -182.5 32s-104 53.833 -147 97.5s-76.333 101.667 -100 174s-35.5 156.166 -35.5 251.499zM294.998 526
c0 -175.333 23.833 -304.833 71.5 -388.5s112.5 -125.5 194.5 -125.5s146.833 41.833 194.5 125.5s71.5 213.167 71.5 388.5c0 176 -23.833 306 -71.5 390s-112.5 126 -194.5 126s-146.833 -42 -194.5 -126s-71.5 -214 -71.5 -390z" />
    <glyph glyph-name="afii10081" unicode="&#x43f;" horiz-adv-x="1251" 
d="M59 0l0.00195312 43c57.333 0 97.666 10.5 120.999 31.5s35 59.5 35 115.5v672c0 56.667 -11.667 95.5 -35 116.5s-63.666 31.5 -120.999 31.5v43c141.333 -6 223.333 -9 246 -9c46 0 104.333 1.5 175 4.5s123 4.5 157 4.5c33.333 0 81.666 -1.5 144.999 -4.5
s118 -4.5 164 -4.5c22.667 0 104.667 3 246 9v-43c-57.333 0 -97.666 -10.5 -120.999 -31.5s-35 -59.833 -35 -116.5v-672c0 -56 11.667 -94.5 35 -115.5s63.666 -31.5 120.999 -31.5v-43c-125.333 5.33301 -207.333 8 -246 8c-38 0 -114.333 -2.66699 -229 -8v43
c50 0 85 10.5 105 31.5s30 59.5 30 115.5v672c0 56.667 -10 95.5 -30 116.5s-55 31.5 -105 31.5h-182c-50.667 0 -86 -10.5 -106 -31.5s-30 -59.833 -30 -116.5v-672c0 -56 10 -94.5 30 -115.5s55.333 -31.5 106 -31.5v-43c-114.667 5.33301 -191.334 8 -230.001 8
s-120.667 -2.66699 -246 -8z" />
    <glyph glyph-name="afii10082" unicode="&#x440;" horiz-adv-x="1190" 
d="M45 1012l-0.000976562 43c42.667 -4 85 -6 127 -6c86.667 0 157.667 9.33301 213 28v-216c30.667 70.667 74.834 125.334 132.501 164.001s122.834 58 195.501 58c111.333 0 202.666 -44.667 273.999 -134s107 -214 107 -374c0 -60.667 -5.5 -119.5 -16.5 -176.5
s-28.667 -111.667 -53 -164s-54.333 -97.833 -90 -136.5s-80 -69.5 -133 -92.5s-111.833 -34.5 -176.5 -34.5c-52 0 -99 10.167 -141 30.5s-75 47.166 -99 80.499v-262c0 -55.333 16.333 -93.833 49 -115.5s82 -32.5 148 -32.5v-43c-180 6 -278.333 9 -295 9
c-18 0 -91.667 -3 -221 -9v43c50 0 85 9.16699 105 27.5s30 51.5 30 99.5v1032c0 63.333 -11.5 109.333 -34.5 138s-63.5 43 -121.5 43zM384.999 150c44 -88 116.333 -132 217 -132c195.333 0 293 176.333 293 529c0 316.667 -79.333 475 -238 475
c-62 0 -117.5 -22.167 -166.5 -66.5s-84.167 -108.5 -105.5 -192.5v-613z" />
    <glyph glyph-name="afii10083" unicode="&#x441;" horiz-adv-x="995" 
d="M94 514c0 168 44.4971 304.83 133.497 410.497s203.5 158.5 343.5 158.5c92 0 171.333 -21.667 238 -65c64 -43.333 96 -96 96 -158c0 -36 -10.167 -64.167 -30.5 -84.5s-46.166 -30.5 -77.499 -30.5c-32 0 -58.833 9.16699 -80.5 27.5s-32.5 43.5 -32.5 75.5
c0 29.333 8.16699 53.833 24.5 73.5s36.833 32.834 61.5 39.501c-13.333 24.667 -37.666 45.167 -72.999 61.5s-72.333 24.5 -111 24.5c-28.667 0 -56.167 -4.83301 -82.5 -14.5s-52.5 -26.667 -78.5 -51s-48.667 -55 -68 -92s-34.833 -85 -46.5 -144
s-17.5 -125.833 -17.5 -200.5c0 -88 7.83301 -164.167 23.5 -228.5s37.5 -114.833 65.5 -151.5s59 -63.5 93 -80.5s71.667 -25.5 113 -25.5c58 0 113.5 17 166.5 51s96.5 87.333 130.5 160l39 -14c-10.667 -35.333 -26 -69 -46 -101s-45 -62.167 -75 -90.5
s-67.167 -51 -111.5 -68s-92.5 -25.5 -144.5 -25.5c-63.333 0 -122.666 12.667 -177.999 38s-103.333 60.833 -144 106.5s-72.667 102.834 -96 171.501s-35 144.334 -35 227.001z" />
    <glyph glyph-name="afii10084" unicode="&#x442;" horiz-adv-x="1135" 
d="M66 1051l196 0.00195312c30 0 79.333 -0.666992 148 -2s120.334 -2 155.001 -2c35.333 0 87.833 1 157.5 3s119.5 3 149.5 3h197c-9.33301 -90.667 -14 -170 -14 -238c0 -54 2 -96.333 6 -127h-47c-5.33301 70 -14.5 126.667 -27.5 170s-31.667 76.166 -56 98.499
s-50.833 37.166 -79.5 44.499s-66 11 -112 11h-80v-801c0 -63.333 18 -107.166 54 -131.499s90.667 -36.5 164 -36.5v-43c-170.667 5.33301 -274 8 -310 8c-35.333 0 -138.333 -2.66699 -309 -8v43c72.667 0 127 12.167 163 36.5s54 68.166 54 131.499v801h-100
c-45.333 0 -81.5 -3.66699 -108.5 -11s-51.333 -22.666 -73 -45.999s-37.834 -56.333 -48.501 -99s-18.667 -99.334 -24 -170.001h-47c4 30.667 6 73 6 127c0 68 -4.66699 147.333 -14 238z" />
    <glyph glyph-name="afii10085" unicode="&#x443;" horiz-adv-x="1032" 
d="M-8 1012l-0.00292969 43c64 -8.66699 131 -13 201 -13c58.667 0 147.334 4.33301 266.001 13v-43c-20 0 -35 -0.166992 -45 -0.5s-22.5 -1.66602 -37.5 -3.99902s-26 -5.83301 -33 -10.5s-13.333 -11.667 -19 -21s-8.5 -21 -8.5 -35
c0 -24.667 8.66699 -58.334 26 -101.001l247 -612l226 593c14.667 40 22 71.333 22 94c0 32 -12.167 55.667 -36.5 71s-63.166 24.666 -116.499 27.999v41c72 -4 129.333 -6 172 -6c61.333 0 113.333 2 156 6v-41c-27.333 -3.33301 -51.666 -15.666 -72.999 -36.999
s-41.333 -57 -60 -107l-336 -880l-70 -178c-26 -67.333 -55.333 -115.333 -88 -144c-38.667 -35.333 -92 -53 -160 -53c-40.667 0 -74 10.833 -100 32.5s-39 51.834 -39 90.501c0 32.667 9.66699 58.834 29 78.501s46 29.5 80 29.5c30 0 54.833 -8.33301 74.5 -25
s29.5 -40.334 29.5 -71.001c0 -40.667 -18.333 -71.334 -55 -92.001c2.66699 -1.33301 6.66699 -2 12 -2c75.333 0 133.333 53.333 174 160l73 187l-372 894c-38 76.667 -84.333 115 -139 115z" />
    <glyph glyph-name="afii10086" unicode="&#x444;" horiz-adv-x="1634" 
d="M98 522c0 92.667 10.9961 175.169 32.9961 247.502s52.333 131.166 91 176.499s83.334 79.5 134.001 102.5s106 34.5 166 34.5c88 0 155.667 -26 203 -78v224c0 63.333 -11.5 109.166 -34.5 137.499s-63.5 42.5 -121.5 42.5v43c43.333 -4 85.666 -6 126.999 -6
c88 0 159 9.66699 213 29v-474c62 54.667 140.667 82 236 82c116.667 0 211 -44 283 -132s108 -213.333 108 -376c0 -60.667 -5.16699 -119.5 -15.5 -176.5s-27.166 -111.667 -50.499 -164s-52.166 -97.833 -86.499 -136.5s-77.166 -69.5 -128.499 -92.5
s-108 -34.5 -170 -34.5c-72.667 0 -131.334 18 -176.001 54v-205c0 -55.333 12.833 -93.833 38.5 -115.5s64.834 -32.5 117.501 -32.5v-43c-153.333 6 -236 9 -248 9c-9.33301 0 -92 -3 -248 -9v43c52.667 0 91.834 10.667 117.501 32s38.5 60 38.5 116v205
c-53.333 -36 -121 -54 -203 -54c-127.333 0 -229.833 47.333 -307.5 142s-116.5 231 -116.5 409zM296.996 539.002c0 -170.667 22.668 -297.667 68.001 -381s114.666 -125 207.999 -125c62 0 112.667 14.333 152 43v866c-45.333 62.667 -106 94 -182 94
c-164 0 -246 -165.667 -246 -497zM908.997 75.002c42 -38 94.001 -57 156.001 -57c181.333 0 272 176.333 272 529c0 164 -19.833 284.167 -59.5 360.5s-100.834 114.5 -183.501 114.5c-77.333 0 -139 -25.333 -185 -76v-871z" />
    <glyph glyph-name="afii10087" unicode="&#x445;" horiz-adv-x="1063" 
d="M43 0l-0.000976562 41.002c26.667 3.33301 54 15.666 82 36.999s60.667 56.666 98 105.999l236 311l-285 414c-27.333 39.333 -49.166 65.5 -65.499 78.5s-36.833 21.167 -61.5 24.5v43c72 -5.33301 120.667 -8 146 -8c46 0 126.333 2.66699 241 8v-43
c-22 0 -40.833 -4.16699 -56.5 -12.5s-23.5 -19.5 -23.5 -33.5c0 -8 2.66699 -16 8 -24l219 -319l142 198c41.333 58 62 101 62 129c0 36.667 -39 58 -117 64v41c70.667 -4 128 -6 172 -6c60 0 111.667 2 155 6v-41c-55.333 -6.66699 -115.333 -54.667 -180 -144l-207 -286
l301 -439c24 -34.667 44.667 -59.167 62 -73.5s39 -23.833 65 -28.5v-43c-69.333 5.33301 -117.666 8 -144.999 8c-46.667 0 -127.334 -2.66699 -242.001 -8v43c22 0 41 4.33301 57 13s24 19.667 24 33c0 7.33301 -3 15.333 -9 24l-233 340l-150 -195
c-38 -48.667 -57 -89.667 -57 -123c0 -56 50.333 -87.333 151 -94v-41c-72 4 -149.667 6 -233 6c-60.667 0 -112.667 -2 -156 -6z" />
    <glyph glyph-name="afii10088" unicode="&#x446;" horiz-adv-x="1260" 
d="M59 0v43c57.333 0 97.666 10.5 120.999 31.5s35 59.5 35 115.5v672c0 56.667 -11.667 95.5 -35 116.5s-63.666 31.5 -120.999 31.5v43c141.333 -6 223.333 -9 246 -9c24 0 100.667 3 230 9v-43c-50.667 0 -86 -10.5 -106 -31.5s-30 -59.833 -30 -116.5v-672
c0 -56 10 -94.5 30 -115.5s55.333 -31.5 106 -31.5h182c50 0 85 10.5 105 31.5s30 59.5 30 115.5v672c0 56.667 -10 95.5 -30 116.5s-55 31.5 -105 31.5v43c128.667 -6 205 -9 229 -9c22.667 0 104.667 3 246 9v-43c-57.333 0 -97.666 -10.5 -120.999 -31.5
s-35 -59.833 -35 -116.5v-672c0 -58 11.667 -97 35 -117s71 -30 143 -30c-9.33301 -89.333 -14 -170 -14 -242c0 -54 2 -96.333 6 -127h-47c-6 54 -12 97 -18 129s-15 62.667 -27 92s-27.5 51.333 -46.5 66s-43.333 26.167 -73 34.5s-66.167 12.5 -109.5 12.5
c-37.333 0 -81.333 -1.33301 -132 -4s-89.334 -4 -116.001 -4c-34 -0 -86.333 1.33301 -157 4s-129 4 -175 4c-38.667 0 -120.667 -2.66699 -246 -8z" />
    <glyph glyph-name="afii10089" unicode="&#x447;" horiz-adv-x="1157" 
d="M31 1010l0.00292969 43.0029c141.333 -6 223 -9 245 -9c24 0 100.667 3 230 9v-43c-50 0 -85 -10.5 -105 -31.5s-30 -59.833 -30 -116.5v-160c0 -34.667 0.666992 -61.834 2 -81.501s5.16602 -40.667 11.499 -63s15.5 -39.166 27.5 -50.499s29 -20.833 51 -28.5
s49.333 -11.5 82 -11.5c84.667 0 155.667 18.667 213 56v339c0 56.667 -10 95.5 -30 116.5s-55 31.5 -105 31.5v43c129.333 -6 205.666 -9 228.999 -9c22.667 0 104.667 3 246 9v-43c-57.333 0 -97.666 -10.5 -120.999 -31.5s-35 -59.833 -35 -116.5v-672
c0 -56 11.667 -94.5 35 -115.5s63.666 -31.5 120.999 -31.5v-43c-125.333 5.33301 -210 8 -254 8c-34 0 -135 -2.66699 -303 -8v43c72.667 0 127 12.167 163 36.5s54 68.166 54 131.499v269c-34 -20.667 -77.833 -39 -131.5 -55s-106.834 -24 -159.501 -24
c-94.667 0 -165.667 26 -213 78c-24.667 27.333 -42.167 62.166 -52.5 104.499s-15.5 97.166 -15.5 164.499v114c0 56.667 -11.5 95.5 -34.5 116.5s-63.167 31.5 -120.5 31.5z" />
    <glyph glyph-name="afii10090" unicode="&#x448;" horiz-adv-x="1729" 
d="M59 0l0.00292969 43.001c57.333 0 97.666 10.5 120.999 31.5s35 59.5 35 115.5v672c0 56.667 -11.667 95.5 -35 116.5s-63.666 31.5 -120.999 31.5v43c141.333 -6 222.666 -9 243.999 -9c23.333 0 93.666 3 210.999 9v-43c-42.667 0 -72.5 -10.5 -89.5 -31.5
s-25.5 -59.833 -25.5 -116.5v-672c0 -56.667 10.667 -95.334 32 -116.001s60 -31 116 -31h90c50 0 85 10.5 105 31.5s30 59.5 30 115.5v672c0 56.667 -8.5 95.5 -25.5 116.5s-46.833 31.5 -89.5 31.5v43c116.667 -6 185.667 -9 207 -9s90.333 3 207 9v-43
c-42.667 0 -72.5 -10.5 -89.5 -31.5s-25.5 -59.833 -25.5 -116.5v-672c0 -56 10 -94.5 30 -115.5s55.333 -31.5 106 -31.5h102c50 0 85 10.5 105 31.5s30 59.5 30 115.5v672c0 56.667 -8.5 95.5 -25.5 116.5s-46.833 31.5 -89.5 31.5v43c116.667 -6 187 -9 211 -9
c22 0 103.333 3 244 9v-43c-57.333 0 -97.666 -10.5 -120.999 -31.5s-35 -59.833 -35 -116.5v-672c0 -56 11.667 -94.5 35 -115.5s63.666 -31.5 120.999 -31.5v-43c-125.333 5.33301 -207.333 8 -246 8c-35.333 0 -84 -1.33301 -146 -4s-107.333 -4 -136 -4
c-30 -0 -76.5 1.33301 -139.5 4s-109.5 4 -139.5 4s-75.5 -1.33301 -136.5 -4s-105.5 -4 -133.5 -4c-27.333 -0 -72.833 1.33301 -136.5 4s-113.834 4 -150.501 4c-38.667 0 -120.667 -2.66699 -246 -8z" />
    <glyph glyph-name="afii10091" unicode="&#x449;" horiz-adv-x="1729" 
d="M59 0l0.00195312 43.001c57.333 0 97.666 10.5 120.999 31.5s35 59.5 35 115.5v672c0 56.667 -11.667 95.5 -35 116.5s-63.666 31.5 -120.999 31.5v43c141.333 -6 222.666 -9 243.999 -9c23.333 0 93.666 3 210.999 9v-43c-42.667 0 -72.5 -10.5 -89.5 -31.5
s-25.5 -59.833 -25.5 -116.5v-672c0 -56 10 -94.5 30 -115.5s55.333 -31.5 106 -31.5h102c50 0 85 10.5 105 31.5s30 59.5 30 115.5v672c0 56.667 -8.5 95.5 -25.5 116.5s-46.833 31.5 -89.5 31.5v43c116.667 -6 185.667 -9 207 -9s90.333 3 207 9v-43
c-42.667 0 -72.5 -10.5 -89.5 -31.5s-25.5 -59.833 -25.5 -116.5v-672c0 -56 10 -94.5 30 -115.5s55.333 -31.5 106 -31.5h102c50 0 85 10.5 105 31.5s30 59.5 30 115.5v672c0 56.667 -8.5 95.5 -25.5 116.5s-46.833 31.5 -89.5 31.5v43c116.667 -6 187 -9 211 -9
c22 0 103.333 3 244 9v-43c-57.333 0 -97.666 -10.5 -120.999 -31.5s-35 -59.833 -35 -116.5v-672c0 -56 11.667 -94.5 35 -115.5s63.666 -31.5 120.999 -31.5c-9.33301 -89.333 -14 -172.666 -14 -249.999c0 -48.667 2 -88.334 6 -119.001h-47
c-4.66699 44.667 -9.5 81.5 -14.5 110.5s-12 57.333 -21 85s-19.667 49.167 -32 64.5s-28.166 29.166 -47.499 41.499s-42 20.833 -68 25.5s-57.333 7 -94 7c-20.667 0 -53 -1.33301 -97 -4s-79 -4 -105 -4c-24.667 -0 -69 1.33301 -133 4s-111.333 4 -142 4
c-30 0 -74.833 -1.33301 -134.5 -4s-104.834 -4 -135.501 -4s-77 1.33301 -139 4s-110.667 4 -146 4c-38.667 0 -120.667 -2.66699 -246 -8z" />
    <glyph glyph-name="afii10092" unicode="&#x44a;" horiz-adv-x="1370" 
d="M63 1053l213.002 0.00292969c53.333 0 115.666 -1.5 186.999 -4.5s119.666 -4.5 144.999 -4.5c23.333 0 105.333 3 246 9v-43c-57.333 0 -97.666 -10.5 -120.999 -31.5s-35 -59.833 -35 -116.5v-248h203c141.333 0 245.333 -26.333 312 -79s100 -123.667 100 -213
c0 -40 -8 -78.333 -24 -115s-40.5 -70.834 -73.5 -102.501s-79.167 -57 -138.5 -76s-128.333 -28.5 -207 -28.5c-22.667 0 -64.167 1.33301 -124.5 4s-107.5 4 -141.5 4c-36.667 0 -132.334 -2.66699 -287.001 -8v43c66 0 115.333 10.667 148 32s49 59.666 49 114.999v674
c0 58.667 -8.66699 98 -26 118s-53.666 30 -108.999 30h-47c-34 0 -62.333 -3.83301 -85 -11.5s-41.5 -18.334 -56.5 -32.001s-27.167 -34.667 -36.5 -63s-16.333 -58.333 -21 -90s-9.33398 -74.167 -14.001 -127.5h-47c4 30.667 6 73 6 127c0 70.667 -5 150 -15 238z
M698.002 190.003c0 -54.667 11.168 -92.833 33.501 -114.5s61.166 -32.5 116.499 -32.5c52.667 0 97.5 7 134.5 21s65.167 34 84.5 60s33 53.833 41 83.5s12 63.5 12 101.5c0 95.333 -26.5 164.333 -79.5 207s-139.833 64 -260.5 64h-82v-390z" />
    <glyph glyph-name="afii10093" unicode="&#x44b;" horiz-adv-x="1552" 
d="M55 0l0.00195312 43.001c57.333 0 97.666 10.5 120.999 31.5s35 59.5 35 115.5v672c0 56.667 -10 95.5 -30 116.5s-55 31.5 -105 31.5v43c129.333 -6 205.666 -9 228.999 -9s105.333 3 246 9v-43c-57.333 0 -97.666 -10.5 -120.999 -31.5s-35 -59.833 -35 -116.5v-248
h142c141.333 0 245.166 -26.333 311.499 -79s99.5 -123.667 99.5 -213c0 -40 -8 -78.333 -24 -115s-40.5 -70.834 -73.5 -102.501s-79 -57 -138 -76s-127.833 -28.5 -206.5 -28.5c-17.333 -0 -50 1.33301 -98 4s-85 4 -111 4c-36 0 -116.667 -2.66699 -242 -8z
M395.002 190.001c0 -54.667 6.50098 -92.833 19.501 -114.5s35.833 -32.5 68.5 -32.5c52.667 0 97.5 7 134.5 21s65.167 33.833 84.5 59.5s33.166 53.5 41.499 83.5s12.5 64 12.5 102c0 94.667 -26.667 163.5 -80 206.5s-140 64.5 -260 64.5h-21v-390zM1022 0.00195312
l-0.000976562 43c50 0 85 10.5 105 31.5s30 59.5 30 115.5v672c0 56.667 -10 95.5 -30 116.5s-55 31.5 -105 31.5v43c129.333 -6 204.333 -9 225 -9c24.667 0 101.334 3 230.001 9v-43c-50.667 0 -86 -10.5 -106 -31.5s-30 -59.833 -30 -116.5v-672
c0 -56 11.667 -94.5 35 -115.5s63.666 -31.5 120.999 -31.5v-43c-125.333 5.33301 -208.666 8 -249.999 8c-35.333 0 -110.333 -2.66699 -225 -8z" />
    <glyph glyph-name="afii10094" unicode="&#x44c;" horiz-adv-x="1067" 
d="M55 0l0.000976562 43.001c57.333 0 97.666 10.5 120.999 31.5s35 59.5 35 115.5v672c0 56.667 -10 95.5 -30 116.5s-55 31.5 -105 31.5v43c129.333 -6 205.666 -9 228.999 -9s105.333 3 246 9v-43c-57.333 0 -97.666 -10.5 -120.999 -31.5s-35 -59.833 -35 -116.5v-248
h203c141.333 0 245.333 -26.333 312 -79s100 -123.667 100 -213c0 -40 -8 -78.333 -24 -115s-40.5 -70.834 -73.5 -102.501s-79.167 -57 -138.5 -76s-128.333 -28.5 -207 -28.5c-23.333 -0 -65.5 1.33301 -126.5 4s-108.833 4 -143.5 4c-36 0 -116.667 -2.66699 -242 -8z
M395.001 190.001c0 -54.667 11.168 -92.833 33.501 -114.5s61.166 -32.5 116.499 -32.5c52.667 0 97.5 7 134.5 21s65.167 34 84.5 60s33 53.833 41 83.5s12 63.5 12 101.5c0 95.333 -26.5 164.333 -79.5 207s-139.833 64 -260.5 64h-82v-390z" />
    <glyph glyph-name="afii10095" unicode="&#x44d;" horiz-adv-x="1020" 
d="M92 178c0 33.333 11.1689 60.1602 33.502 80.4932s49.5 30.5 81.5 30.5s58.667 -10 80 -30s32 -46.333 32 -79c0 -29.333 -8.83301 -53.666 -26.5 -72.999s-39.5 -31.666 -65.5 -36.999c11.333 -22 34.166 -37.833 68.499 -47.5s68.833 -14.5 103.5 -14.5
c34 0 66.167 4.83301 96.5 14.5s60 26.834 89 51.501s53.667 56 74 94s36.833 87.667 49.5 149s19 131 19 209v35c-61.333 -73.333 -124 -110 -188 -110c-26.667 0 -60 11.5 -100 34.5s-77 34.5 -111 34.5c-24 0 -44.5 -4.33301 -61.5 -13s-34.167 -24 -51.5 -46l-29 16
c28 52 56 90.667 84 116s61 38 99 38c26.667 0 62 -11 106 -33s83 -33 117 -33c46 0 90 16 132 48c-4.66699 72.667 -15.334 136.834 -32.001 192.501s-37.667 99.834 -63 132.501s-52.833 57.167 -82.5 73.5s-61.5 24.5 -95.5 24.5c-42.667 0 -82.5 -11 -119.5 -33
s-66.833 -47.667 -89.5 -77c-36 -47.333 -58.667 -106.666 -68 -177.999h-47c0 160 -2.66699 271.667 -8 335h47c8 -56 26.667 -84 56 -84c10.667 0 22.667 4.33301 36 13c28 16.667 50 29 66 37s38 15.667 66 23s57.667 11 89 11c130 0 237 -49.167 321 -147.5
s126 -227.166 126 -386.499c0 -172.667 -49 -312.167 -147 -418.5s-221 -159.5 -369 -159.5c-82 0 -153 18 -213 54c-70 41.333 -105 92.333 -105 153z" />
    <glyph glyph-name="afii10096" unicode="&#x44e;" horiz-adv-x="1608" 
d="M59 0v42.9951c57.333 0 97.666 10.5 120.999 31.5s35 59.5 35 115.5v672c0 56.667 -11.667 95.5 -35 116.5s-63.666 31.5 -120.999 31.5v43c141.333 -6 223.333 -9 246 -9c24 0 100.667 3 230 9v-43c-50.667 0 -86 -10.5 -106 -31.5s-30 -59.833 -30 -116.5v-315h222
c2 92 14.667 172.833 38 242.5s55.166 125.334 95.499 167.001s86.5 72.834 138.5 93.501s109.333 31 172 31c64 0 122.167 -10.667 174.5 -32s99 -53.666 140 -96.999s72.833 -101.166 95.5 -173.499s34 -156.5 34 -252.5c0 -95.333 -11.333 -179.166 -34 -251.499
s-54.5 -130.333 -95.5 -174s-87.833 -76.167 -140.5 -97.5s-110.667 -32 -174 -32c-62.667 0 -120 10.333 -172 31s-98.167 52 -138.5 94s-72.166 97.833 -95.499 167.5s-36 150.5 -38 242.5h-222v-316c0 -56 11.667 -94.5 35 -115.5s63.666 -31.5 120.999 -31.5v-43
c-125.333 5.33301 -208.666 8 -249.999 8c-38.667 0 -120.667 -2.66699 -246 -8zM819 525.995c0 -175.333 22.1689 -304.833 66.502 -388.5s104.166 -125.5 179.499 -125.5s135.166 41.833 179.499 125.5s66.5 213.167 66.5 388.5s-22 304.833 -66 388.5
s-104 125.5 -180 125.5s-136 -41.833 -180 -125.5s-66 -213.167 -66 -388.5z" />
    <glyph glyph-name="afii10097" unicode="&#x44f;" horiz-adv-x="1100" 
d="M-8 0l0.00585938 43c39.333 3.33301 69.166 9.33301 89.499 18s34.833 19.5 43.5 32.5s18.334 34.5 29.001 64.5c33.333 95.333 58.5 158 75.5 188s43.5 55.333 79.5 76c30 17.333 67.333 31 112 41c-56 7.33301 -103 20.5 -141 39.5s-66.167 42.5 -84.5 70.5
s-31 55.667 -38 83s-10.5 58 -10.5 92c0 46.667 6.16699 87.5 18.5 122.5s32.5 66.667 60.5 95s67.667 50 119 65s113.666 22.5 186.999 22.5c23.333 0 65.666 -1.5 126.999 -4.5s109.333 -4.5 144 -4.5c19.333 0 99.666 3 240.999 9v-43
c-57.333 0 -97.5 -10.5 -120.5 -31.5s-34.5 -59.833 -34.5 -116.5v-672c0 -56 10 -94.5 30 -115.5s55 -31.5 105 -31.5v-43c-114.667 5.33301 -191 8 -229 8c-38.667 0 -120.667 -2.66699 -246 -8v43c57.333 0 97.666 10.5 120.999 31.5s35 59.5 35 115.5v270l-139 -3
c-60 -2.66699 -104.667 -17 -134 -43c-20 -18 -35.667 -43 -47 -75s-22.166 -71 -32.499 -117s-20.5 -82.333 -30.5 -109c-16.667 -43.333 -39.334 -74 -68.001 -92s-76.334 -27 -143.001 -27c-34.667 0 -74.334 2 -119.001 6zM336.006 774
c0 -91.333 21.833 -158.998 65.5 -202.998s117.5 -67 221.5 -69l82 -2v362c0 54.667 -11 93 -33 115s-60.333 33 -115 33c-44.667 0 -82.167 -6.33301 -112.5 -19s-53 -30.834 -68 -54.501s-25.5 -48.334 -31.5 -74.001s-9 -55.167 -9 -88.5z" />
    <glyph glyph-name="afii10071" unicode="&#x451;" horiz-adv-x="1036" 
d="M94 502c0 179.333 41.835 321.001 125.502 425.001s196.167 156 337.5 156c122.667 0 217.167 -37.167 283.5 -111.5s99.5 -187.166 99.5 -338.499h-640c-4.66699 -36.667 -7 -80.334 -7 -131.001c0 -134 31.333 -241.667 94 -323s135.667 -122 219 -122
c137.333 0 237.666 68.333 300.999 205l41 -16c-24.667 -75.333 -70.834 -140 -138.501 -194s-149.167 -81 -244.5 -81c-146 0 -261 48.667 -345 146s-126 225.666 -126 384.999zM221.002 1403c0 32 11.833 59.833 35.5 83.5s51.5 35.5 83.5 35.5s59.833 -12 83.5 -36
s35.5 -51.667 35.5 -83c0 -32.667 -11.833 -60.667 -35.5 -84s-51.5 -35 -83.5 -35c-32.667 0 -60.667 11.667 -84 35s-35 51.333 -35 84zM297.002 672.001l446 -0.000976562c4 106 -11 194.5 -45 265.5s-83.667 106.5 -149 106.5c-64.667 0 -120.167 -31.167 -166.5 -93.5
s-74.833 -155.166 -85.5 -278.499zM656.002 1403c0 32 11.667 59.833 35 83.5s51 35.5 83 35.5s59.833 -12 83.5 -36s35.5 -51.667 35.5 -83c0 -32.667 -11.833 -60.667 -35.5 -84s-51.5 -35 -83.5 -35c-32.667 0 -60.5 11.667 -83.5 35s-34.5 51.333 -34.5 84z" />
    <glyph glyph-name="afii10099" unicode="&#x452;" horiz-adv-x="1171" 
d="M31 1102l-0.00195312 41.001h170v215c0 63.333 -11.5 109.166 -34.5 137.499s-63.5 42.5 -121.5 42.5v43c42.667 -4 85 -6 127 -6c88 0 159 9.66699 213 29v-461h371v-41h-371v-408c64 164 180 246 348 246c94.667 0 167 -26 217 -78c26 -28 44.5 -62.5 55.5 -103.5
s16.5 -95.833 16.5 -164.5v-356c0 -111.333 -7.5 -208.5 -22.5 -291.5s-43.833 -151.167 -86.5 -204.5c-31.333 -40.667 -69.166 -71.667 -113.499 -93s-88.833 -32 -133.5 -32c-45.333 0 -79.666 10.333 -102.999 31s-35 46.667 -35 78c0 28 8.83301 51 26.5 69
s41.167 27 70.5 27c27.333 0 49.5 -8.83301 66.5 -26.5s25.5 -39.5 25.5 -65.5c0 -32 -11 -59.333 -33 -82c52.667 6 90.334 23 113.001 51c13.333 15.333 23.333 37 30 65c7.33301 30.667 11 65.667 11 105v770c0 36 -1.83301 66.5 -5.5 91.5s-11 49.167 -22 72.5
s-28 41 -51 53s-52.167 18 -87.5 18c-84 0 -152.833 -34.5 -206.5 -103.5s-80.5 -157.833 -80.5 -266.5v-314c0 -56 10 -94.5 30 -115.5s55 -31.5 105 -31.5v-43c-114.667 5.33301 -191 8 -229 8c-38.667 0 -120.667 -2.66699 -246 -8v43c57.333 0 97.666 10.5 120.999 31.5
s35 59.5 35 115.5v912h-170z" />
    <glyph glyph-name="afii10100" unicode="&#x453;" horiz-adv-x="952" 
d="M59 0l-0.000976562 42.999c57.333 0 97.666 10.5 120.999 31.5s35 59.5 35 115.5v672c0 56.667 -11.667 95.5 -35 116.5s-63.666 31.5 -120.999 31.5v43c141.333 -6 223.333 -9 246 -9c30.667 0 76.334 1.5 137.001 4.5s103.667 4.5 129 4.5h320
c-9.33301 -90.667 -14 -170 -14 -238c0 -54 2 -96.333 6 -127h-47c-4.66699 53.333 -9.5 95.833 -14.5 127.5s-12 61.667 -21 90s-21 49.333 -36 63s-33.833 24.334 -56.5 32.001s-51 11.5 -85 11.5h-88c-50 0 -85.167 -10.833 -105.5 -32.5s-30.5 -60.834 -30.5 -117.501
v-651c0 -63.333 18 -107.166 54 -131.499s90.333 -36.5 163 -36.5v-43c-168 5.33301 -273 8 -315 8c-36 0 -116.667 -2.66699 -242 -8zM349.999 1245c44 69.333 87.334 145.168 130.001 227.501s73.667 136.166 93 161.499c23.333 30.667 49.333 46 78 46
c16.667 0 31.667 -5 45 -15c18.667 -15.333 28 -34.333 28 -57c0 -22 -9.33301 -45.333 -28 -70c-20 -25.333 -64.833 -68.5 -134.5 -129.5s-132.834 -121.5 -189.501 -181.5z" />
    <glyph glyph-name="afii10101" unicode="&#x454;" horiz-adv-x="1010" 
d="M94 514c0 168.667 44.3311 305.668 132.998 411.001s202.667 158 342 158c98 0 178.667 -21.667 242 -65c62.667 -42.667 94 -95.334 94 -158.001c0 -36 -10.167 -64.167 -30.5 -84.5s-46.166 -30.5 -77.499 -30.5c-32 0 -58.833 10 -80.5 30s-32.5 47 -32.5 81
c0 28 7.83301 51.167 23.5 69.5s36.5 30.166 62.5 35.499c-13.333 24.667 -37.666 45.167 -72.999 61.5s-72.333 24.5 -111 24.5c-28.667 0 -56.167 -4.83301 -82.5 -14.5s-52.5 -26.667 -78.5 -51s-48.667 -55 -68 -92s-34.833 -85 -46.5 -144s-17.5 -125.833 -17.5 -200.5
l1 -45c32.667 43.333 67.667 75.666 105 96.999s72.333 32 105 32c26 0 58.667 -11.333 98 -34s76.333 -34 111 -34c40.667 0 76 19 106 57l27 -16c-26.667 -50.667 -53.334 -88.167 -80.001 -112.5s-59.334 -36.5 -98.001 -36.5c-28 0 -63.5 10.5 -106.5 31.5
s-79.833 31.5 -110.5 31.5c-54 0 -105.333 -23 -154 -69c10.667 -134.667 42.334 -233 95.001 -295s118 -93 196 -93c58 0 113.5 17 166.5 51s96.5 87.333 130.5 160l39 -14c-10.667 -35.333 -26 -69 -46 -101s-45 -62.167 -75 -90.5s-67.167 -51 -111.5 -68
s-92.5 -25.5 -144.5 -25.5c-63.333 0 -122.666 12.667 -177.999 38s-103.333 60.833 -144 106.5s-72.667 102.834 -96 171.501s-35 144.334 -35 227.001z" />
    <glyph glyph-name="afii10102" unicode="&#x455;" horiz-adv-x="913" 
d="M113 -14c5.33301 78 7.99707 214.332 7.99707 408.999h47c6 -49.333 12.833 -92 20.5 -128s18.5 -71 32.5 -105s31 -61.333 51 -82s45.167 -37.167 75.5 -49.5s65.5 -18.5 105.5 -18.5c48 0 90.333 15.833 127 47.5s55 80.834 55 147.501
c0 23.333 -4.16699 45.5 -12.5 66.5s-18.166 39.167 -29.499 54.5s-28.5 32.333 -51.5 51s-43.667 34.167 -62 46.5l-76.5 49.5l-49.5 31.5l-45 30c-22.333 15 -37.5 25.833 -45.5 32.5l-38 32c-17.333 14.667 -29.333 26.667 -36 36l-27 37.5
c-11.333 15.667 -19.166 30.334 -23.499 44.001s-8.33301 29.167 -12 46.5s-5.5 35.333 -5.5 54c0 86.667 28.833 152.334 86.5 197.001s129.834 67 216.501 67s161 -25 223 -75c14.667 -11.333 26.667 -17 36 -17c24 0 39.333 30 46 90h47
c-5.33301 -66.667 -8 -182.667 -8 -348h-47c-34 207.333 -127 311 -279 311c-49.333 0 -89.666 -13.833 -120.999 -41.5s-47 -66.167 -47 -115.5c0 -17.333 2.16699 -33.5 6.5 -48.5s11.666 -29.5 21.999 -43.5s20.333 -26.333 30 -37s24 -22.834 43 -36.501l47 -33
c12.333 -8.33301 31.166 -20.333 56.499 -36l58 -36.5l89.5 -60c23 -16 48 -36 75 -60s47.833 -46.833 62.5 -68.5s27.167 -47.167 37.5 -76.5s15.5 -60.333 15.5 -93c0 -60.667 -16.5 -113.167 -49.5 -157.5s-75.5 -77 -127.5 -98s-109.667 -31.5 -173 -31.5
c-60.667 0 -114.667 9.66699 -162 29c-26.667 13.333 -54.667 31.666 -84 54.999c-5.33301 5.33301 -11.666 8 -18.999 8c-20 0 -34 -25.667 -42 -77h-47z" />
    <glyph glyph-name="afii10103" unicode="&#x456;" horiz-adv-x="600" 
d="M59 0l0.00195312 43c57.333 0 97.666 10.5 120.999 31.5s35 59.5 35 115.5v641c0 63.333 -11.5 109.333 -34.5 138s-63.5 43 -121.5 43v43c42.667 -4 85 -6 127 -6c86.667 0 157.667 9.33301 213 28v-887c0 -56 11.667 -94.5 35 -115.5s63.666 -31.5 120.999 -31.5v-43
c-125.333 5.33301 -208 8 -248 8s-122.667 -2.66699 -248 -8zM158.002 1436c0 35.333 12.833 66 38.5 92s56.5 39 92.5 39c35.333 0 66 -13 92 -39s39 -56.667 39 -92c0 -36 -13 -66.833 -39 -92.5s-56.667 -38.5 -92 -38.5c-36 0 -66.833 12.833 -92.5 38.5
s-38.5 56.5 -38.5 92.5z" />
    <glyph glyph-name="afii10104" unicode="&#x457;" horiz-adv-x="600" 
d="M-45 1403c0 32 11.833 59.833 35.5 83.5s51.5 35.5 83.5 35.5s59.833 -12 83.5 -36s35.5 -51.667 35.5 -83c0 -32.667 -11.833 -60.667 -35.5 -84s-51.5 -35 -83.5 -35c-32.667 0 -60.667 11.667 -84 35s-35 51.333 -35 84zM59 0l0.00195312 43
c57.333 0 97.666 10.5 120.999 31.5s35 59.5 35 115.5v641c0 63.333 -11.5 109.333 -34.5 138s-63.5 43 -121.5 43v43c42.667 -4 85 -6 127 -6c86.667 0 157.667 9.33301 213 28v-887c0 -56 11.667 -94.5 35 -115.5s63.666 -31.5 120.999 -31.5v-43
c-125.333 5.33301 -208 8 -248 8s-122.667 -2.66699 -248 -8zM390.002 1403c0 32 11.667 59.833 35 83.5s51 35.5 83 35.5s59.833 -12 83.5 -36s35.5 -51.667 35.5 -83c0 -32.667 -11.833 -60.667 -35.5 -84s-51.5 -35 -83.5 -35c-32.667 0 -60.5 11.667 -83.5 35
s-34.5 51.333 -34.5 84z" />
    <glyph glyph-name="afii10105" unicode="&#x458;" horiz-adv-x="547" 
d="M-131 -260c0 31.333 9.83301 56.834 29.5 76.501s45.167 29.5 76.5 29.5c32.667 0 58.667 -8.33301 78 -25s29 -41.667 29 -75c0 -46.667 -26 -79.334 -78 -98.001c8 -1.33301 19.667 -2 35 -2c47.333 0 85.666 15.667 114.999 47c31.333 39.333 47 97.333 47 174v964
c0 63.333 -11.5 109.333 -34.5 138s-63.5 43 -121.5 43v43c42.667 -4 85 -6 127 -6c86.667 0 157.667 9.33301 213 28v-841c0 -111.333 -7.5 -208.5 -22.5 -291.5s-43.833 -151.167 -86.5 -204.5c-31.333 -40.667 -69.166 -71.667 -113.499 -93s-88.833 -32 -133.5 -32
c-48 0 -86.333 10.333 -115 31c-30 22.667 -45 54 -45 94zM141 1425c0 36 13 66.833 39 92.5s56.667 38.5 92 38.5c36 0 66.833 -12.833 92.5 -38.5s38.5 -56.5 38.5 -92.5c0 -35.333 -12.833 -66 -38.5 -92s-56.5 -39 -92.5 -39c-35.333 0 -66 13 -92 39s-39 56.667 -39 92
z" />
    <glyph glyph-name="afii10106" unicode="&#x459;" horiz-adv-x="1653" 
d="M14 96c0 32 10.165 57.834 30.498 77.501s46.5 29.5 78.5 29.5c30.667 0 55.667 -8.5 75 -25.5s29 -41.5 29 -73.5c0 -47.333 -25.667 -80.666 -77 -99.999c2.66699 -1.33301 9.33398 -2 20.001 -2c72.667 0 134.667 65 186 195c54 138 92.333 359.667 115 665
c0 2.66699 0.166992 6.16699 0.5 10.5s0.5 7.5 0.5 9.5c0 47.333 -13.167 80.5 -39.5 99.5s-67.5 28.5 -123.5 28.5v43c68.667 -6 115.334 -9 140.001 -9c21.333 0 56.333 1.5 105 4.5s86 4.5 112 4.5c23.333 0 58.333 -1.5 105 -4.5s86 -4.5 118 -4.5
c24.667 0 107.334 3 248.001 9v-43c-57.333 0 -97.666 -10.5 -120.999 -31.5s-35 -59.833 -35 -116.5v-248h203c141.333 0 245.166 -26.333 311.499 -79s99.5 -123.667 99.5 -213c0 -40 -8 -78.333 -24 -115s-40.5 -70.834 -73.5 -102.501s-79 -57 -138 -76
s-127.833 -28.5 -206.5 -28.5c-22.667 0 -64.167 1.33301 -124.5 4s-107.5 4 -141.5 4c-39.333 0 -135 -2.66699 -287 -8v43c66 0 115.333 10.667 148 32s49 59.666 49 114.999v672c0 56.667 -10 95.5 -30 116.5s-55 31.5 -105 31.5h-19c-48.667 0 -82 -10.167 -100 -30.5
s-29.667 -59.5 -35 -117.5c-8 -95.333 -15.667 -175 -23 -239s-19.5 -138.5 -36.5 -223.5s-36.833 -156.167 -59.5 -213.5c-58.667 -143.333 -134.334 -215 -227.001 -215c-42 0 -77.167 10.833 -105.5 32.5s-42.5 52.5 -42.5 92.5zM980.998 190.001
c0 -54.667 11 -92.833 33 -114.5s60.667 -32.5 116 -32.5c52.667 0 97.5 7 134.5 21s65.333 34 85 60s33.5 53.833 41.5 83.5s12 63.5 12 101.5c0 95.333 -26.5 164.333 -79.5 207s-139.833 64 -260.5 64h-82v-390z" />
    <glyph glyph-name="afii10107" unicode="&#x45a;" horiz-adv-x="1708" 
d="M59 0l0.000976562 43c57.333 0 97.666 10.5 120.999 31.5s35 59.5 35 115.5v672c0 56.667 -11.667 95.5 -35 116.5s-63.666 31.5 -120.999 31.5v43c141.333 -6 223.333 -9 246 -9c24 0 100.667 3 230 9v-43c-50.667 0 -86 -10.5 -106 -31.5s-30 -59.833 -30 -116.5v-250
h453v250c0 56.667 -10 95.5 -30 116.5s-55 31.5 -105 31.5v43c128.667 -6 205 -9 229 -9c22.667 0 104.667 3 246 9v-43c-57.333 0 -97.666 -10.5 -120.999 -31.5s-35 -59.833 -35 -116.5v-249c28.667 0 66.667 0.5 114 1.5s77 1.5 89 1.5
c141.333 0 245.333 -26.667 312 -80s100 -124.666 100 -213.999c0 -40 -8 -78.333 -24 -115s-40.5 -70.834 -73.5 -102.501s-79.167 -57 -138.5 -76s-128.333 -28.5 -207 -28.5c-23.333 -0 -65.5 1.33301 -126.5 4s-108.833 4 -143.5 4
c-32.667 0 -106.334 -2.66699 -221.001 -8v43c50 0 85 10.5 105 31.5s30 59.5 30 115.5v381h-453v-381c0 -56 10 -94.5 30 -115.5s55.333 -31.5 106 -31.5v-43c-114.667 5.33301 -191.334 8 -230.001 8s-120.667 -2.66699 -246 -8zM1036 190
c0 -54.667 11.168 -92.833 33.501 -114.5s61.166 -32.5 116.499 -32.5c52.667 0 97.5 7 134.5 21s65.167 34 84.5 60s33 53.833 41 83.5s12 63.5 12 101.5c0 94 -26.333 161.167 -79 201.5s-139.667 60.5 -261 60.5c-6 0 -18.333 -0.166992 -37 -0.5s-33.667 -0.5 -45 -0.5
v-380z" />
    <glyph glyph-name="afii10108" unicode="&#x45b;" horiz-adv-x="1208" 
d="M31 1102l0.00292969 41.001h170v215c0 63.333 -11.5 109.166 -34.5 137.499s-63.5 42.5 -121.5 42.5v43c42.667 -4 85 -6 127 -6c88 0 159 9.66699 213 29v-461h371v-41h-371v-408c64 164 180 246 348 246c94.667 0 167 -26 217 -78c26 -28 44.5 -62.5 55.5 -103.5
s16.5 -95.833 16.5 -164.5v-404c0 -56 11.667 -94.5 35 -115.5s63.666 -31.5 120.999 -31.5v-43c-128 5.33301 -210 8 -246 8c-38.667 0 -115.334 -2.66699 -230.001 -8v43c50.667 0 86 10.5 106 31.5s30 59.5 30 115.5v449c0 36 -1.83301 66.5 -5.5 91.5
s-11 49.167 -22 72.5s-28 41 -51 53s-52.167 18 -87.5 18c-84 0 -152.833 -34.5 -206.5 -103.5s-80.5 -157.833 -80.5 -266.5v-314c0 -56 10 -94.5 30 -115.5s55 -31.5 105 -31.5v-43c-114.667 5.33301 -191 8 -229 8c-38.667 0 -120.667 -2.66699 -246 -8v43
c57.333 0 97.666 10.5 120.999 31.5s35 59.5 35 115.5v912h-170z" />
    <glyph glyph-name="afii10109" unicode="&#x45c;" horiz-adv-x="1171" 
d="M59 0l0.000976562 43.001c57.333 0 97.666 10.5 120.999 31.5s35 59.5 35 115.5v672c0 56.667 -11.667 95.5 -35 116.5s-63.666 31.5 -120.999 31.5v43c141.333 -6 222.666 -9 243.999 -9c25.333 0 102.666 3 231.999 9v-43c-50.667 0 -86 -10.5 -106 -31.5
s-30 -59.833 -30 -116.5v-301c42.667 2.66699 80 8.83398 112 18.501s58.5 21.167 79.5 34.5s39.833 31.5 56.5 54.5s29.834 45.667 39.501 68s20.5 51.166 32.5 86.499c26 77.333 48.333 130.666 67 159.999c42.667 66 101 99.333 175 100c44.667 0 77.667 -10.667 99 -32
s32 -48 32 -80s-9.83301 -58.167 -29.5 -78.5s-46.167 -30.5 -79.5 -30.5c-36.667 0 -65.667 12 -87 36s-32 55.667 -32 95v15c-19.333 -8.66699 -36.166 -26.834 -50.499 -54.501s-34.166 -74.834 -59.499 -141.501l-9 -24c-9.33301 -24.667 -17 -43.834 -23 -57.501
s-14.5 -30.667 -25.5 -51s-22.167 -36.5 -33.5 -48.5s-25.833 -24.167 -43.5 -36.5s-37.167 -22.166 -58.5 -29.499c152.667 -3.33301 258 -50.333 316 -141c17.333 -28 38.166 -76.167 62.499 -144.5s39.5 -109.5 45.5 -123.5c16.667 -37.333 35.167 -64.5 55.5 -81.5
s50.166 -27.5 89.499 -31.5v-43c-52.667 -9.33301 -94.667 -14 -126 -14c-58 0 -101.833 13.333 -131.5 40s-52.834 68 -69.501 124l-13.5 46.5c-7 24.333 -13 44.333 -18 60s-11.5 34.834 -19.5 57.501s-17 43.5 -27 62.5s-20.333 36.167 -31 51.5
c-28.667 39.333 -65.5 65.833 -110.5 79.5s-106.5 19.834 -184.5 18.501v-336c0 -56 10 -94.5 30 -115.5s55.333 -31.5 106 -31.5v-43c-114.667 5.33301 -192 8 -232 8c-37.333 0 -118.666 -2.66699 -243.999 -8zM502.001 1245c44 69.333 87.334 145.168 130.001 227.501
s73.667 136.166 93 161.499c23.333 30.667 49.333 46 78 46c16.667 0 31.667 -5 45 -15c18.667 -15.333 28 -34.333 28 -57c0 -22 -9.33301 -45.333 -28 -70c-20 -25.333 -64.833 -68.5 -134.5 -129.5s-132.834 -121.5 -189.501 -181.5z" />
    <glyph glyph-name="afii10110" unicode="&#x45e;" horiz-adv-x="1032" 
d="M-8 1012l-0.00292969 43c64 -8.66699 131 -13 201 -13c58.667 0 147.334 4.33301 266.001 13v-43c-20 0 -35 -0.166992 -45 -0.5s-22.5 -1.66602 -37.5 -3.99902s-26 -5.83301 -33 -10.5s-13.333 -11.667 -19 -21s-8.5 -21 -8.5 -35
c0 -24.667 8.66699 -58.334 26 -101.001l247 -612l226 593c14.667 40 22 71.333 22 94c0 32 -12.167 55.667 -36.5 71s-63.166 24.666 -116.499 27.999v41c72 -4 129.333 -6 172 -6c61.333 0 113.333 2 156 6v-41c-27.333 -3.33301 -51.666 -15.666 -72.999 -36.999
s-41.333 -57 -60 -107l-336 -880l-70 -178c-26 -67.333 -55.333 -115.333 -88 -144c-38.667 -35.333 -92 -53 -160 -53c-40.667 0 -74 10.833 -100 32.5s-39 51.834 -39 90.501c0 32.667 9.66699 58.834 29 78.501s46 29.5 80 29.5c30 0 54.833 -8.33301 74.5 -25
s29.5 -40.334 29.5 -71.001c0 -40.667 -18.333 -71.334 -55 -92.001c2.66699 -1.33301 6.66699 -2 12 -2c75.333 0 133.333 53.333 174 160l73 187l-372 894c-38 76.667 -84.333 115 -139 115zM138.997 1518c0 31.333 10.167 57.165 30.5 77.498s46.5 30.5 78.5 30.5
c31.333 0 57.833 -10 79.5 -30s32.5 -46.667 32.5 -80c0 -28 -7.83301 -51.167 -23.5 -69.5s-36.5 -30.166 -62.5 -35.499c24.667 -26.667 59.667 -45.667 105 -57s91 -17 137 -17s91.5 5.66699 136.5 17s79.833 30.333 104.5 57c-26 5.33301 -46.833 17.166 -62.5 35.499
s-23.5 41.5 -23.5 69.5c0 33.333 10.833 60 32.5 80s48.5 30 80.5 30s58.167 -10.167 78.5 -30.5s30.5 -46.166 30.5 -77.499c0 -55.333 -32.333 -104.666 -97 -147.999c-72 -49.333 -165.333 -74 -280 -74c-114 0 -207.667 24.667 -281 74c-64 44 -96 93.333 -96 148z" />
    <glyph glyph-name="afii10193" unicode="&#x45f;" horiz-adv-x="1251" 
d="M59 0l0.00488281 43.002c57.333 0 97.666 10.5 120.999 31.5s35 59.5 35 115.5v672c0 56.667 -11.667 95.5 -35 116.5s-63.666 31.5 -120.999 31.5v43c141.333 -6 223.333 -9 246 -9c24 0 100.667 3 230 9v-43c-50.667 0 -86 -10.5 -106 -31.5s-30 -59.833 -30 -116.5
v-672c0 -56 10 -94.5 30 -115.5s55.333 -31.5 106 -31.5h182c50 0 85 10.5 105 31.5s30 59.5 30 115.5v672c0 56.667 -10 95.5 -30 116.5s-55 31.5 -105 31.5v43c128.667 -6 205 -9 229 -9c22.667 0 104.667 3 246 9v-43c-57.333 0 -97.666 -10.5 -120.999 -31.5
s-35 -59.833 -35 -116.5v-672c0 -56 11.667 -94.5 35 -115.5s63.666 -31.5 120.999 -31.5v-43c-125.333 5.33301 -207.333 8 -246 8c-28 0 -63.333 -0.666992 -106 -2c-29.333 -2.66699 -54.333 -9.16699 -75 -19.5s-37.667 -23.333 -51 -39s-24.333 -37.834 -33 -66.501
s-15.334 -58.334 -20.001 -89.001s-9.33398 -70.667 -14.001 -120h-47c-4.66699 50 -9.33398 90.333 -14.001 121s-11.334 60.5 -20.001 89.5s-19.834 51.333 -33.501 67s-31 28.5 -52 38.5s-46.5 16.333 -76.5 19c-10 0 -26 0.166992 -48 0.5s-39 0.5 -51 0.5
c-38.667 0 -120.667 -2.66699 -246 -8z" />
    <glyph glyph-name="afii10050" unicode="&#x490;" horiz-adv-x="1071" 
d="M86 0v40.9971c49.333 2 84.833 7.33301 106.5 16s37 24.667 46 48s13.5 60.666 13.5 111.999v1016c0 51.333 -4.5 88.666 -13.5 111.999s-24.333 39.333 -46 48s-57.167 14 -106.5 16v41c71.333 -4 173.666 -6 306.999 -6c27.333 0 77.666 1 150.999 3s124 3 152 3
c36.667 0 68 2.16699 94 6.5s48.667 12.333 68 24s35 24.834 47 39.501s22.333 35.334 31 62.001s15.5 53.834 20.5 81.501s9.83301 63.834 14.5 108.501h47c-4 -30.667 -6 -73 -6 -127c0 -72 4.66699 -152.667 14 -242h-418c-70.667 0 -116 -10 -136 -30
s-30 -66.667 -30 -140v-1016c0 -38.667 2.5 -68.667 7.5 -90s15.833 -38.5 32.5 -51.5s37.167 -21.667 61.5 -26s59.5 -7.16602 105.5 -8.49902v-41c-71.333 4 -171.666 6 -300.999 6c-117.333 0 -204.666 -2 -261.999 -6z" />
    <glyph glyph-name="afii10098" unicode="&#x491;" horiz-adv-x="944" 
d="M59 0l0.000976562 43.0029c57.333 0 97.666 10.5 120.999 31.5s35 59.5 35 115.5v672c0 56.667 -11.667 95.5 -35 116.5s-63.666 31.5 -120.999 31.5v43c141.333 -6 223.333 -9 246 -9c25.333 0 70.166 1.5 134.499 4.5s104.833 4.5 121.5 4.5
c46 0 83.333 3.66699 112 11s55.167 22.166 79.5 44.499s43 55.166 56 98.499s22.167 99.666 27.5 168.999h47c-4 -30 -6 -72.333 -6 -127c0 -68.667 4.66699 -147.667 14 -237h-356c-50 0 -85.167 -10.833 -105.5 -32.5s-30.5 -60.834 -30.5 -117.501v-651
c0 -63.333 18 -107.166 54 -131.499s90.333 -36.5 163 -36.5v-43c-168 5.33301 -273 8 -315 8c-36 0 -116.667 -2.66699 -242 -8z" />
    <glyph glyph-name="uni2000" unicode="&#x2000;" horiz-adv-x="965" 
 />
    <glyph glyph-name="uni2001" unicode="&#x2001;" horiz-adv-x="1931" 
 />
    <glyph glyph-name="uni2002" unicode="&#x2002;" horiz-adv-x="965" 
 />
    <glyph glyph-name="uni2003" unicode="&#x2003;" horiz-adv-x="1931" 
 />
    <glyph glyph-name="uni2004" unicode="&#x2004;" horiz-adv-x="643" 
 />
    <glyph glyph-name="uni2005" unicode="&#x2005;" horiz-adv-x="482" 
 />
    <glyph glyph-name="uni2006" unicode="&#x2006;" horiz-adv-x="321" 
 />
    <glyph glyph-name="uni2007" unicode="&#x2007;" horiz-adv-x="321" 
 />
    <glyph glyph-name="uni2008" unicode="&#x2008;" horiz-adv-x="241" 
 />
    <glyph glyph-name="uni2009" unicode="&#x2009;" horiz-adv-x="386" 
 />
    <glyph glyph-name="uni200A" unicode="&#x200a;" horiz-adv-x="107" 
 />
    <glyph glyph-name="uni2010" unicode="&#x2010;" 
d="M141 492v118h740v-118h-740z" />
    <glyph glyph-name="uni2011" unicode="&#x2011;" 
d="M141 492v118h740v-118h-740z" />
    <glyph glyph-name="figuredash" unicode="&#x2012;" 
d="M141 492v118h740v-118h-740z" />
    <glyph glyph-name="endash" unicode="&#x2013;" horiz-adv-x="1169" 
d="M121 510v82h928v-82h-928z" />
    <glyph glyph-name="emdash" unicode="&#x2014;" horiz-adv-x="1765" 
d="M121 510v82h1524v-82h-1524z" />
    <glyph glyph-name="quoteleft" unicode="&#x2018;" horiz-adv-x="508" 
d="M112 1163c0 68.667 17.502 130.167 52.502 184.5s87.833 98.166 158.5 131.499l19 -37c-42.667 -18 -79.334 -46.167 -110.001 -84.5s-46 -77.166 -46 -116.499c0 -16.667 2 -31 6 -43c23.333 18 48.666 27 75.999 27c37.333 0 68.5 -11.833 93.5 -35.5
s37.5 -55.5 37.5 -95.5c0 -37.333 -12.667 -68.5 -38 -93.5s-56.333 -37.5 -93 -37.5c-52.667 0 -93 21.667 -121 65c-23.333 36 -35 81 -35 135z" />
    <glyph glyph-name="quoteright" unicode="&#x2019;" horiz-adv-x="502" 
d="M111 1347c0 37.333 12.665 68.5 37.998 93.5s56.333 37.5 93 37.5c52.667 0 93 -21.667 121 -65c23.333 -36 35 -81 35 -135c0 -68.667 -17.5 -130.167 -52.5 -184.5s-87.833 -98.166 -158.5 -131.499l-19 37c42.667 18 79.334 46.167 110.001 84.5s46 77.166 46 116.499
c0 16.667 -2 31 -6 43c-23.333 -18 -48.666 -27 -75.999 -27c-37.333 0 -68.5 11.833 -93.5 35.5s-37.5 55.5 -37.5 95.5z" />
    <glyph glyph-name="quotesinglbase" unicode="&#x201a;" horiz-adv-x="535" 
d="M127 102c0 37.333 12.665 68.5 37.998 93.5s56.333 37.5 93 37.5c52.667 0 93 -21.667 121 -65c23.333 -36 35 -81 35 -135c0 -68.667 -17.5 -130.167 -52.5 -184.5s-87.833 -98.166 -158.5 -131.499l-19 37c42.667 18 79.334 46.167 110.001 84.5s46 77.166 46 116.499
c0 16.667 -2 31 -6 43c-23.333 -18 -48.666 -27 -75.999 -27c-37.333 0 -68.5 11.833 -93.5 35.5s-37.5 55.5 -37.5 95.5z" />
    <glyph glyph-name="quotedblleft" unicode="&#x201c;" horiz-adv-x="856" 
d="M112 1163c0 68.667 17.501 130.167 52.501 184.5s87.833 98.166 158.5 131.499l19 -37c-42.667 -18 -79.334 -46.167 -110.001 -84.5s-46 -77.166 -46 -116.499c0 -16.667 2 -31 6 -43c22.667 18 48 27 76 27c36.667 0 67.667 -11.833 93 -35.5s38 -55.5 38 -95.5
c0 -37.333 -12.833 -68.5 -38.5 -93.5s-56.5 -37.5 -92.5 -37.5c-52.667 0 -93 21.667 -121 65c-23.333 36 -35 81 -35 135zM460.001 1163c0 68.667 17.502 130.167 52.502 184.5s87.833 98.166 158.5 131.499l19 -37c-42.667 -18 -79.334 -46.167 -110.001 -84.5
s-46 -77.166 -46 -116.499c0 -16.667 2 -31 6 -43c23.333 18 48.666 27 75.999 27c37.333 0 68.5 -11.833 93.5 -35.5s37.5 -55.5 37.5 -95.5c0 -37.333 -12.667 -68.5 -38 -93.5s-56.333 -37.5 -93 -37.5c-52.667 0 -93 21.667 -121 65c-23.333 36 -35 81 -35 135z" />
    <glyph glyph-name="quotedblright" unicode="&#x201d;" horiz-adv-x="850" 
d="M111 1347c0 37.333 12.665 68.5 37.998 93.5s56.333 37.5 93 37.5c52.667 0 93 -21.667 121 -65c23.333 -36 35 -81 35 -135c0 -68.667 -17.5 -130.167 -52.5 -184.5s-87.833 -98.166 -158.5 -131.499l-19 37c42.667 18 79.334 46.167 110.001 84.5s46 77.166 46 116.499
c0 16.667 -2 31 -6 43c-23.333 -18 -48.666 -27 -75.999 -27c-37.333 0 -68.5 11.833 -93.5 35.5s-37.5 55.5 -37.5 95.5zM458.998 1347c0 37.333 12.832 68.5 38.499 93.5s56.5 37.5 92.5 37.5c52.667 0 93 -21.667 121 -65c23.333 -36 35 -81 35 -135
c0 -68.667 -17.5 -130.167 -52.5 -184.5s-87.833 -98.166 -158.5 -131.499l-19 37c42.667 18 79.334 46.167 110.001 84.5s46 77.166 46 116.499c0 16.667 -2 31 -6 43c-22.667 -18 -48 -27 -76 -27c-36.667 0 -67.667 11.833 -93 35.5s-38 55.5 -38 95.5z" />
    </font>
</defs>
</svg>
